%TF.GenerationSoftware,KiCad,Pcbnew,7.0.10*%
%TF.CreationDate,2024-07-04T11:23:38+05:30*%
%TF.ProjectId,Drive_Node,44726976-655f-44e6-9f64-652e6b696361,rev?*%
%TF.SameCoordinates,Original*%
%TF.FileFunction,Soldermask,Bot*%
%TF.FilePolarity,Negative*%
%FSLAX46Y46*%
G04 Gerber Fmt 4.6, Leading zero omitted, Abs format (unit mm)*
G04 Created by KiCad (PCBNEW 7.0.10) date 2024-07-04 11:23:38*
%MOMM*%
%LPD*%
G01*
G04 APERTURE LIST*
G04 Aperture macros list*
%AMRoundRect*
0 Rectangle with rounded corners*
0 $1 Rounding radius*
0 $2 $3 $4 $5 $6 $7 $8 $9 X,Y pos of 4 corners*
0 Add a 4 corners polygon primitive as box body*
4,1,4,$2,$3,$4,$5,$6,$7,$8,$9,$2,$3,0*
0 Add four circle primitives for the rounded corners*
1,1,$1+$1,$2,$3*
1,1,$1+$1,$4,$5*
1,1,$1+$1,$6,$7*
1,1,$1+$1,$8,$9*
0 Add four rect primitives between the rounded corners*
20,1,$1+$1,$2,$3,$4,$5,0*
20,1,$1+$1,$4,$5,$6,$7,0*
20,1,$1+$1,$6,$7,$8,$9,0*
20,1,$1+$1,$8,$9,$2,$3,0*%
G04 Aperture macros list end*
%ADD10R,1.700000X1.700000*%
%ADD11O,1.700000X1.700000*%
%ADD12O,1.050000X1.900000*%
%ADD13RoundRect,0.250000X0.625000X-0.350000X0.625000X0.350000X-0.625000X0.350000X-0.625000X-0.350000X0*%
%ADD14O,1.750000X1.200000*%
%ADD15C,2.000000*%
%ADD16C,1.500000*%
%ADD17R,1.600000X1.600000*%
%ADD18O,1.600000X1.600000*%
G04 APERTURE END LIST*
D10*
%TO.C,J15*%
X127246446Y-59600000D03*
D11*
X127246446Y-62140000D03*
X127246446Y-64680000D03*
X127246446Y-67220000D03*
X127246446Y-69760000D03*
%TD*%
D10*
%TO.C,J2*%
X134346447Y-68699999D03*
D11*
X134346447Y-66159999D03*
X134346447Y-63619999D03*
X134346447Y-61079999D03*
%TD*%
D12*
%TO.C,J13*%
X137446446Y-52300000D03*
X130296446Y-52300000D03*
%TD*%
D10*
%TO.C,J8*%
X130821446Y-107300000D03*
D11*
X133361446Y-107300000D03*
X135901446Y-107300000D03*
X138441446Y-107300000D03*
X140981446Y-107300000D03*
X143521446Y-107300000D03*
X146061446Y-107300000D03*
%TD*%
D13*
%TO.C,J6*%
X164546446Y-80100000D03*
D14*
X164546446Y-78100000D03*
X164546446Y-76100000D03*
%TD*%
D10*
%TO.C,J14*%
X141166446Y-58500000D03*
D11*
X143706446Y-58500000D03*
X146246446Y-58500000D03*
X148786446Y-58500000D03*
X151326446Y-58500000D03*
X153866446Y-58500000D03*
X156406446Y-58500000D03*
X158946446Y-58500000D03*
X161486446Y-58500000D03*
X164026446Y-58500000D03*
X166566446Y-58500000D03*
%TD*%
D13*
%TO.C,J3*%
X116846446Y-77800000D03*
D14*
X116846446Y-75800000D03*
X116846446Y-73800000D03*
%TD*%
D15*
%TO.C,SW1*%
X164046446Y-95099999D03*
X164046446Y-101599999D03*
X159546446Y-95099999D03*
X159546446Y-101599999D03*
%TD*%
D16*
%TO.C,Y1*%
X152696446Y-107000000D03*
X157576446Y-107000000D03*
%TD*%
D17*
%TO.C,U3*%
X131646446Y-91000000D03*
D18*
X131646446Y-88460000D03*
X131646446Y-85920000D03*
X131646446Y-83380000D03*
X124026446Y-83380000D03*
X124026446Y-85920000D03*
X124026446Y-88460000D03*
X124026446Y-91000000D03*
%TD*%
D13*
%TO.C,J5*%
X164346446Y-90699999D03*
D14*
X164346446Y-88699999D03*
X164346446Y-86699999D03*
%TD*%
D13*
%TO.C,J4*%
X116146446Y-94799999D03*
D14*
X116146446Y-92799999D03*
%TD*%
D13*
%TO.C,J7*%
X164546446Y-69300000D03*
D14*
X164546446Y-67300000D03*
X164546446Y-65300000D03*
%TD*%
M02*
