%TF.GenerationSoftware,KiCad,Pcbnew,7.0.10*%
%TF.CreationDate,2024-07-04T11:23:38+05:30*%
%TF.ProjectId,Drive_Node,44726976-655f-44e6-9f64-652e6b696361,rev?*%
%TF.SameCoordinates,Original*%
%TF.FileFunction,Copper,L2,Bot*%
%TF.FilePolarity,Positive*%
%FSLAX46Y46*%
G04 Gerber Fmt 4.6, Leading zero omitted, Abs format (unit mm)*
G04 Created by KiCad (PCBNEW 7.0.10) date 2024-07-04 11:23:38*
%MOMM*%
%LPD*%
G01*
G04 APERTURE LIST*
G04 Aperture macros list*
%AMRoundRect*
0 Rectangle with rounded corners*
0 $1 Rounding radius*
0 $2 $3 $4 $5 $6 $7 $8 $9 X,Y pos of 4 corners*
0 Add a 4 corners polygon primitive as box body*
4,1,4,$2,$3,$4,$5,$6,$7,$8,$9,$2,$3,0*
0 Add four circle primitives for the rounded corners*
1,1,$1+$1,$2,$3*
1,1,$1+$1,$4,$5*
1,1,$1+$1,$6,$7*
1,1,$1+$1,$8,$9*
0 Add four rect primitives between the rounded corners*
20,1,$1+$1,$2,$3,$4,$5,0*
20,1,$1+$1,$4,$5,$6,$7,0*
20,1,$1+$1,$6,$7,$8,$9,0*
20,1,$1+$1,$8,$9,$2,$3,0*%
G04 Aperture macros list end*
%TA.AperFunction,ComponentPad*%
%ADD10R,1.700000X1.700000*%
%TD*%
%TA.AperFunction,ComponentPad*%
%ADD11O,1.700000X1.700000*%
%TD*%
%TA.AperFunction,ComponentPad*%
%ADD12O,1.050000X1.900000*%
%TD*%
%TA.AperFunction,ComponentPad*%
%ADD13RoundRect,0.250000X0.625000X-0.350000X0.625000X0.350000X-0.625000X0.350000X-0.625000X-0.350000X0*%
%TD*%
%TA.AperFunction,ComponentPad*%
%ADD14O,1.750000X1.200000*%
%TD*%
%TA.AperFunction,ComponentPad*%
%ADD15C,2.000000*%
%TD*%
%TA.AperFunction,ComponentPad*%
%ADD16C,1.500000*%
%TD*%
%TA.AperFunction,ComponentPad*%
%ADD17R,1.600000X1.600000*%
%TD*%
%TA.AperFunction,ComponentPad*%
%ADD18O,1.600000X1.600000*%
%TD*%
%TA.AperFunction,ViaPad*%
%ADD19C,0.700000*%
%TD*%
%TA.AperFunction,Conductor*%
%ADD20C,0.250000*%
%TD*%
G04 APERTURE END LIST*
D10*
%TO.P,J15,1,Pin_1*%
%TO.N,PA15*%
X127246446Y-59600000D03*
D11*
%TO.P,J15,2,Pin_2*%
%TO.N,PB3*%
X127246446Y-62140000D03*
%TO.P,J15,3,Pin_3*%
%TO.N,PB4*%
X127246446Y-64680000D03*
%TO.P,J15,4,Pin_4*%
%TO.N,PB5*%
X127246446Y-67220000D03*
%TO.P,J15,5,Pin_5*%
%TO.N,GND*%
X127246446Y-69760000D03*
%TD*%
D10*
%TO.P,J2,1,Pin_1*%
%TO.N,SWCLK*%
X134346447Y-68699999D03*
D11*
%TO.P,J2,2,Pin_2*%
%TO.N,SWDIO*%
X134346447Y-66159999D03*
%TO.P,J2,3,Pin_3*%
%TO.N,GND*%
X134346447Y-63619999D03*
%TO.P,J2,4,Pin_4*%
%TO.N,+3.3V*%
X134346447Y-61079999D03*
%TD*%
D12*
%TO.P,J13,6,Shield*%
%TO.N,GND*%
X137446446Y-52300000D03*
X130296446Y-52300000D03*
%TD*%
D10*
%TO.P,J8,1,Pin_1*%
%TO.N,GND*%
X130821446Y-107300000D03*
D11*
%TO.P,J8,2,Pin_2*%
%TO.N,PC13*%
X133361446Y-107300000D03*
%TO.P,J8,3,Pin_3*%
%TO.N,PC14*%
X135901446Y-107300000D03*
%TO.P,J8,4,Pin_4*%
%TO.N,PC15*%
X138441446Y-107300000D03*
%TO.P,J8,5,Pin_5*%
%TO.N,PA0*%
X140981446Y-107300000D03*
%TO.P,J8,6,Pin_6*%
%TO.N,PA1*%
X143521446Y-107300000D03*
%TO.P,J8,7,Pin_7*%
%TO.N,PA2*%
X146061446Y-107300000D03*
%TD*%
D13*
%TO.P,J6,1,Pin_1*%
%TO.N,GND*%
X164546446Y-80100000D03*
D14*
%TO.P,J6,2,Pin_2*%
%TO.N,PWM2*%
X164546446Y-78100000D03*
%TO.P,J6,3,Pin_3*%
%TO.N,DIR2*%
X164546446Y-76100000D03*
%TD*%
D10*
%TO.P,J14,1,Pin_1*%
%TO.N,PA10*%
X141166446Y-58500000D03*
D11*
%TO.P,J14,2,Pin_2*%
%TO.N,PA9*%
X143706446Y-58500000D03*
%TO.P,J14,3,Pin_3*%
%TO.N,PA8*%
X146246446Y-58500000D03*
%TO.P,J14,4,Pin_4*%
%TO.N,PB15*%
X148786446Y-58500000D03*
%TO.P,J14,5,Pin_5*%
%TO.N,PB14*%
X151326446Y-58500000D03*
%TO.P,J14,6,Pin_6*%
%TO.N,PB13*%
X153866446Y-58500000D03*
%TO.P,J14,7,Pin_7*%
%TO.N,PB12*%
X156406446Y-58500000D03*
%TO.P,J14,8,Pin_8*%
%TO.N,PB11*%
X158946446Y-58500000D03*
%TO.P,J14,9,Pin_9*%
%TO.N,PB10*%
X161486446Y-58500000D03*
%TO.P,J14,10,Pin_10*%
%TO.N,PB2*%
X164026446Y-58500000D03*
%TO.P,J14,11,Pin_11*%
%TO.N,GND*%
X166566446Y-58500000D03*
%TD*%
D13*
%TO.P,J3,1,Pin_1*%
%TO.N,GND*%
X116846446Y-77800000D03*
D14*
%TO.P,J3,2,Pin_2*%
%TO.N,SDA*%
X116846446Y-75800000D03*
%TO.P,J3,3,Pin_3*%
%TO.N,SCL*%
X116846446Y-73800000D03*
%TD*%
D15*
%TO.P,SW1,1,1*%
%TO.N,GND*%
X164046446Y-95099999D03*
X164046446Y-101599999D03*
%TO.P,SW1,2,2*%
%TO.N,Net-(C2-Pad2)*%
X159546446Y-95099999D03*
X159546446Y-101599999D03*
%TD*%
D16*
%TO.P,Y1,1,1*%
%TO.N,/Microcontroller+USB/HSE_OUT*%
X152696446Y-107000000D03*
%TO.P,Y1,2,2*%
%TO.N,/Microcontroller+USB/HSE_IN*%
X157576446Y-107000000D03*
%TD*%
D17*
%TO.P,U3,1,TXD*%
%TO.N,CAN_TX*%
X131646446Y-91000000D03*
D18*
%TO.P,U3,2,VSS*%
%TO.N,GND*%
X131646446Y-88460000D03*
%TO.P,U3,3,VDD*%
%TO.N,+3.3V*%
X131646446Y-85920000D03*
%TO.P,U3,4,RXD*%
%TO.N,CAN_RX*%
X131646446Y-83380000D03*
%TO.P,U3,5,Vref*%
%TO.N,Net-(U3-Vref)*%
X124026446Y-83380000D03*
%TO.P,U3,6,CANL*%
%TO.N,CAN_L*%
X124026446Y-85920000D03*
%TO.P,U3,7,CANH*%
%TO.N,CAN_H*%
X124026446Y-88460000D03*
%TO.P,U3,8,Rs*%
%TO.N,Net-(U3-Rs)*%
X124026446Y-91000000D03*
%TD*%
D13*
%TO.P,J5,1,Pin_1*%
%TO.N,GND*%
X164346446Y-90699999D03*
D14*
%TO.P,J5,2,Pin_2*%
%TO.N,PWM1*%
X164346446Y-88699999D03*
%TO.P,J5,3,Pin_3*%
%TO.N,DIR1*%
X164346446Y-86699999D03*
%TD*%
D13*
%TO.P,J4,1,Pin_1*%
%TO.N,GND*%
X116146446Y-94799999D03*
D14*
%TO.P,J4,2,Pin_2*%
%TO.N,+5V*%
X116146446Y-92799999D03*
%TD*%
D13*
%TO.P,J7,1,Pin_1*%
%TO.N,GND*%
X164546446Y-69300000D03*
D14*
%TO.P,J7,2,Pin_2*%
%TO.N,PWM3*%
X164546446Y-67300000D03*
%TO.P,J7,3,Pin_3*%
%TO.N,DIR3*%
X164546446Y-65300000D03*
%TD*%
D19*
%TO.N,+3.3V*%
X133646446Y-84104999D03*
X132246446Y-70699999D03*
%TO.N,+5V*%
X121846446Y-98600000D03*
X135221446Y-58500000D03*
%TO.N,CAN_TX*%
X138659099Y-88287347D03*
X137633793Y-89312653D03*
%TO.N,GND*%
X155912654Y-72712650D03*
X130200000Y-100085000D03*
X153523133Y-70223133D03*
X135100000Y-92800000D03*
X140500000Y-89600000D03*
X131800000Y-96000000D03*
%TO.N,Net-(D7-A)*%
X158746446Y-75300000D03*
X159546446Y-78825000D03*
%TO.N,PA0*%
X153446447Y-83800000D03*
X150746446Y-89799999D03*
%TO.N,PA1*%
X151640876Y-90247215D03*
X154446449Y-83799999D03*
%TO.N,PA2*%
X152046446Y-81400000D03*
X155346446Y-91800000D03*
%TD*%
D20*
%TO.N,+3.3V*%
X133646446Y-72099999D02*
X132246446Y-70699999D01*
X133646446Y-84104999D02*
X133646446Y-72099999D01*
%TO.N,+5V*%
X129046447Y-91400000D02*
X121846446Y-98600000D01*
X135221446Y-58500000D02*
X129046446Y-64675000D01*
X129046446Y-64675000D02*
X129046447Y-91400000D01*
%TO.N,CAN_TX*%
X137633793Y-89312653D02*
X138659099Y-88287347D01*
%TO.N,GND*%
X130200000Y-100085000D02*
X130200000Y-97600000D01*
X130200000Y-97600000D02*
X131800000Y-96000000D01*
X137300000Y-92800000D02*
X140500000Y-89600000D01*
X135100000Y-92800000D02*
X137300000Y-92800000D01*
X153523133Y-70323129D02*
X153523133Y-70223133D01*
X155912654Y-72712650D02*
X153523133Y-70323129D01*
%TO.N,Net-(D7-A)*%
X158746446Y-78025000D02*
X159546446Y-78825000D01*
X158746446Y-75300000D02*
X158746446Y-78025000D01*
%TO.N,PA0*%
X150746446Y-89799999D02*
X150746446Y-86500000D01*
X150746446Y-86500000D02*
X153446447Y-83800000D01*
%TO.N,PA1*%
X154171447Y-87716644D02*
X154171446Y-84075002D01*
X154171446Y-84075002D02*
X154446449Y-83799999D01*
X151640876Y-90247215D02*
X154171447Y-87716644D01*
%TO.N,PA2*%
X153071754Y-81399999D02*
X152046446Y-81400000D01*
X155346446Y-91800000D02*
X155346446Y-83674691D01*
X155346446Y-83674691D02*
X153071754Y-81399999D01*
%TD*%
%TA.AperFunction,Conductor*%
%TO.N,GND*%
G36*
X129238922Y-51519685D02*
G01*
X129284677Y-51572489D01*
X129294621Y-51641647D01*
X129290544Y-51659994D01*
X129286276Y-51674064D01*
X129271446Y-51824642D01*
X129271446Y-52000000D01*
X130071446Y-52000000D01*
X130071446Y-52723650D01*
X130086306Y-52793560D01*
X130142528Y-52870943D01*
X130225364Y-52918769D01*
X130320490Y-52928767D01*
X130411459Y-52899209D01*
X130482542Y-52835206D01*
X130521446Y-52747825D01*
X130521446Y-52600000D01*
X130596446Y-52600000D01*
X130596446Y-53705117D01*
X130690599Y-53676556D01*
X130690602Y-53676555D01*
X130868655Y-53581384D01*
X130868661Y-53581379D01*
X131024738Y-53453292D01*
X131152825Y-53297215D01*
X131152830Y-53297209D01*
X131248002Y-53119154D01*
X131306616Y-52925932D01*
X131321446Y-52775357D01*
X131321446Y-52600000D01*
X136421446Y-52600000D01*
X136421446Y-52775357D01*
X136436275Y-52925932D01*
X136494889Y-53119154D01*
X136590061Y-53297209D01*
X136590066Y-53297215D01*
X136718153Y-53453292D01*
X136874230Y-53581379D01*
X136874236Y-53581384D01*
X137052289Y-53676555D01*
X137052292Y-53676556D01*
X137146446Y-53705117D01*
X137146446Y-52600000D01*
X136421446Y-52600000D01*
X131321446Y-52600000D01*
X130596446Y-52600000D01*
X130521446Y-52600000D01*
X130521446Y-52000000D01*
X131321446Y-52000000D01*
X131321446Y-51824642D01*
X131306615Y-51674064D01*
X131302348Y-51659994D01*
X131301725Y-51590127D01*
X131338974Y-51531014D01*
X131402269Y-51501424D01*
X131421009Y-51500000D01*
X136321883Y-51500000D01*
X136388922Y-51519685D01*
X136434677Y-51572489D01*
X136444621Y-51641647D01*
X136440544Y-51659994D01*
X136436276Y-51674064D01*
X136421446Y-51824642D01*
X136421446Y-52000000D01*
X137221446Y-52000000D01*
X137221446Y-52723650D01*
X137236306Y-52793560D01*
X137292528Y-52870943D01*
X137375364Y-52918769D01*
X137470490Y-52928767D01*
X137561459Y-52899209D01*
X137632542Y-52835206D01*
X137671446Y-52747825D01*
X137671446Y-52600000D01*
X137746446Y-52600000D01*
X137746446Y-53705117D01*
X137840599Y-53676556D01*
X137840602Y-53676555D01*
X138018655Y-53581384D01*
X138018661Y-53581379D01*
X138174738Y-53453292D01*
X138302825Y-53297215D01*
X138302830Y-53297209D01*
X138398002Y-53119154D01*
X138456616Y-52925932D01*
X138471446Y-52775357D01*
X138471446Y-52600000D01*
X137746446Y-52600000D01*
X137671446Y-52600000D01*
X137671446Y-52000000D01*
X138471446Y-52000000D01*
X138471446Y-51824642D01*
X138456615Y-51674064D01*
X138452348Y-51659994D01*
X138451725Y-51590127D01*
X138488974Y-51531014D01*
X138552269Y-51501424D01*
X138571009Y-51500000D01*
X169048638Y-51500000D01*
X169115677Y-51519685D01*
X169136319Y-51536319D01*
X169463681Y-51863681D01*
X169497166Y-51925004D01*
X169500000Y-51951362D01*
X169500000Y-110776000D01*
X169480315Y-110843039D01*
X169427511Y-110888794D01*
X169376000Y-110900000D01*
X111751362Y-110900000D01*
X111684323Y-110880315D01*
X111663681Y-110863681D01*
X111636319Y-110836319D01*
X111602834Y-110774996D01*
X111600000Y-110748638D01*
X111600000Y-108197844D01*
X129471446Y-108197844D01*
X129477847Y-108257372D01*
X129477849Y-108257379D01*
X129528091Y-108392086D01*
X129528095Y-108392093D01*
X129614255Y-108507187D01*
X129614258Y-108507190D01*
X129729352Y-108593350D01*
X129729359Y-108593354D01*
X129864066Y-108643596D01*
X129864073Y-108643598D01*
X129923601Y-108649999D01*
X129923618Y-108650000D01*
X130521446Y-108650000D01*
X130521446Y-107701643D01*
X130548346Y-107724952D01*
X130679131Y-107784680D01*
X130785683Y-107800000D01*
X130857209Y-107800000D01*
X130963761Y-107784680D01*
X131094546Y-107724952D01*
X131121446Y-107701643D01*
X131121446Y-108650000D01*
X131719274Y-108650000D01*
X131719290Y-108649999D01*
X131778818Y-108643598D01*
X131778825Y-108643596D01*
X131913532Y-108593354D01*
X131913539Y-108593350D01*
X132028633Y-108507190D01*
X132028636Y-108507187D01*
X132114796Y-108392093D01*
X132114799Y-108392088D01*
X132125070Y-108364550D01*
X132166941Y-108308615D01*
X132232405Y-108284197D01*
X132300678Y-108299048D01*
X132332482Y-108323898D01*
X132375678Y-108370821D01*
X132375688Y-108370830D01*
X132565370Y-108518466D01*
X132565376Y-108518470D01*
X132565379Y-108518472D01*
X132776790Y-108632882D01*
X132776793Y-108632883D01*
X133004145Y-108710933D01*
X133004147Y-108710933D01*
X133004149Y-108710934D01*
X133241254Y-108750500D01*
X133241255Y-108750500D01*
X133481637Y-108750500D01*
X133481638Y-108750500D01*
X133718743Y-108710934D01*
X133946102Y-108632882D01*
X134157513Y-108518472D01*
X134347210Y-108370825D01*
X134510017Y-108193969D01*
X134527639Y-108166995D01*
X134580783Y-108121641D01*
X134650014Y-108112217D01*
X134713350Y-108141718D01*
X134735250Y-108166992D01*
X134752875Y-108193969D01*
X134915682Y-108370825D01*
X134915685Y-108370827D01*
X134915688Y-108370830D01*
X135105370Y-108518466D01*
X135105376Y-108518470D01*
X135105379Y-108518472D01*
X135316790Y-108632882D01*
X135316793Y-108632883D01*
X135544145Y-108710933D01*
X135544147Y-108710933D01*
X135544149Y-108710934D01*
X135781254Y-108750500D01*
X135781255Y-108750500D01*
X136021637Y-108750500D01*
X136021638Y-108750500D01*
X136258743Y-108710934D01*
X136486102Y-108632882D01*
X136697513Y-108518472D01*
X136887210Y-108370825D01*
X137050017Y-108193969D01*
X137067639Y-108166995D01*
X137120783Y-108121641D01*
X137190014Y-108112217D01*
X137253350Y-108141718D01*
X137275250Y-108166992D01*
X137292875Y-108193969D01*
X137455682Y-108370825D01*
X137455685Y-108370827D01*
X137455688Y-108370830D01*
X137645370Y-108518466D01*
X137645376Y-108518470D01*
X137645379Y-108518472D01*
X137856790Y-108632882D01*
X137856793Y-108632883D01*
X138084145Y-108710933D01*
X138084147Y-108710933D01*
X138084149Y-108710934D01*
X138321254Y-108750500D01*
X138321255Y-108750500D01*
X138561637Y-108750500D01*
X138561638Y-108750500D01*
X138798743Y-108710934D01*
X139026102Y-108632882D01*
X139237513Y-108518472D01*
X139427210Y-108370825D01*
X139590017Y-108193969D01*
X139607639Y-108166995D01*
X139660783Y-108121641D01*
X139730014Y-108112217D01*
X139793350Y-108141718D01*
X139815250Y-108166992D01*
X139832875Y-108193969D01*
X139995682Y-108370825D01*
X139995685Y-108370827D01*
X139995688Y-108370830D01*
X140185370Y-108518466D01*
X140185376Y-108518470D01*
X140185379Y-108518472D01*
X140396790Y-108632882D01*
X140396793Y-108632883D01*
X140624145Y-108710933D01*
X140624147Y-108710933D01*
X140624149Y-108710934D01*
X140861254Y-108750500D01*
X140861255Y-108750500D01*
X141101637Y-108750500D01*
X141101638Y-108750500D01*
X141338743Y-108710934D01*
X141566102Y-108632882D01*
X141777513Y-108518472D01*
X141967210Y-108370825D01*
X142130017Y-108193969D01*
X142147639Y-108166995D01*
X142200783Y-108121641D01*
X142270014Y-108112217D01*
X142333350Y-108141718D01*
X142355250Y-108166992D01*
X142372875Y-108193969D01*
X142535682Y-108370825D01*
X142535685Y-108370827D01*
X142535688Y-108370830D01*
X142725370Y-108518466D01*
X142725376Y-108518470D01*
X142725379Y-108518472D01*
X142936790Y-108632882D01*
X142936793Y-108632883D01*
X143164145Y-108710933D01*
X143164147Y-108710933D01*
X143164149Y-108710934D01*
X143401254Y-108750500D01*
X143401255Y-108750500D01*
X143641637Y-108750500D01*
X143641638Y-108750500D01*
X143878743Y-108710934D01*
X144106102Y-108632882D01*
X144317513Y-108518472D01*
X144507210Y-108370825D01*
X144670017Y-108193969D01*
X144687639Y-108166995D01*
X144740783Y-108121641D01*
X144810014Y-108112217D01*
X144873350Y-108141718D01*
X144895250Y-108166992D01*
X144912875Y-108193969D01*
X145075682Y-108370825D01*
X145075685Y-108370827D01*
X145075688Y-108370830D01*
X145265370Y-108518466D01*
X145265376Y-108518470D01*
X145265379Y-108518472D01*
X145476790Y-108632882D01*
X145476793Y-108632883D01*
X145704145Y-108710933D01*
X145704147Y-108710933D01*
X145704149Y-108710934D01*
X145941254Y-108750500D01*
X145941255Y-108750500D01*
X146181637Y-108750500D01*
X146181638Y-108750500D01*
X146418743Y-108710934D01*
X146646102Y-108632882D01*
X146857513Y-108518472D01*
X147047210Y-108370825D01*
X147210017Y-108193969D01*
X147341495Y-107992728D01*
X147438056Y-107772591D01*
X147497066Y-107539563D01*
X147516917Y-107300000D01*
X147511564Y-107235403D01*
X147503683Y-107140291D01*
X147497066Y-107060437D01*
X147481761Y-107000000D01*
X151340787Y-107000000D01*
X151361382Y-107235403D01*
X151361384Y-107235413D01*
X151422540Y-107463655D01*
X151422542Y-107463659D01*
X151422543Y-107463663D01*
X151444078Y-107509844D01*
X151522411Y-107677830D01*
X151522413Y-107677834D01*
X151555406Y-107724952D01*
X151657951Y-107871401D01*
X151825045Y-108038495D01*
X151921830Y-108106265D01*
X152018611Y-108174032D01*
X152018613Y-108174033D01*
X152018616Y-108174035D01*
X152232783Y-108273903D01*
X152461038Y-108335063D01*
X152649364Y-108351539D01*
X152696445Y-108355659D01*
X152696446Y-108355659D01*
X152696447Y-108355659D01*
X152735680Y-108352226D01*
X152931854Y-108335063D01*
X153160109Y-108273903D01*
X153374276Y-108174035D01*
X153567847Y-108038495D01*
X153734941Y-107871401D01*
X153870481Y-107677830D01*
X153970349Y-107463663D01*
X154031509Y-107235408D01*
X154052105Y-107000000D01*
X156220787Y-107000000D01*
X156241382Y-107235403D01*
X156241384Y-107235413D01*
X156302540Y-107463655D01*
X156302542Y-107463659D01*
X156302543Y-107463663D01*
X156324078Y-107509844D01*
X156402411Y-107677830D01*
X156402413Y-107677834D01*
X156435406Y-107724952D01*
X156537951Y-107871401D01*
X156705045Y-108038495D01*
X156801830Y-108106265D01*
X156898611Y-108174032D01*
X156898613Y-108174033D01*
X156898616Y-108174035D01*
X157112783Y-108273903D01*
X157341038Y-108335063D01*
X157529364Y-108351539D01*
X157576445Y-108355659D01*
X157576446Y-108355659D01*
X157576447Y-108355659D01*
X157615680Y-108352226D01*
X157811854Y-108335063D01*
X158040109Y-108273903D01*
X158254276Y-108174035D01*
X158447847Y-108038495D01*
X158614941Y-107871401D01*
X158750481Y-107677830D01*
X158850349Y-107463663D01*
X158911509Y-107235408D01*
X158932105Y-107000000D01*
X158911509Y-106764592D01*
X158850349Y-106536337D01*
X158750481Y-106322171D01*
X158718224Y-106276102D01*
X158614940Y-106128597D01*
X158447848Y-105961506D01*
X158447841Y-105961501D01*
X158440560Y-105956403D01*
X158408967Y-105934281D01*
X158254280Y-105825967D01*
X158254276Y-105825965D01*
X158254274Y-105825964D01*
X158040109Y-105726097D01*
X158040105Y-105726096D01*
X158040101Y-105726094D01*
X157811859Y-105664938D01*
X157811849Y-105664936D01*
X157576447Y-105644341D01*
X157576445Y-105644341D01*
X157341042Y-105664936D01*
X157341032Y-105664938D01*
X157112790Y-105726094D01*
X157112781Y-105726098D01*
X156898617Y-105825964D01*
X156898615Y-105825965D01*
X156705043Y-105961505D01*
X156537951Y-106128597D01*
X156402411Y-106322169D01*
X156402410Y-106322171D01*
X156302544Y-106536335D01*
X156302540Y-106536344D01*
X156241384Y-106764586D01*
X156241382Y-106764596D01*
X156220787Y-106999999D01*
X156220787Y-107000000D01*
X154052105Y-107000000D01*
X154031509Y-106764592D01*
X153970349Y-106536337D01*
X153870481Y-106322171D01*
X153838224Y-106276102D01*
X153734940Y-106128597D01*
X153567848Y-105961506D01*
X153567841Y-105961501D01*
X153560560Y-105956403D01*
X153528967Y-105934281D01*
X153374280Y-105825967D01*
X153374276Y-105825965D01*
X153374274Y-105825964D01*
X153160109Y-105726097D01*
X153160105Y-105726096D01*
X153160101Y-105726094D01*
X152931859Y-105664938D01*
X152931849Y-105664936D01*
X152696447Y-105644341D01*
X152696445Y-105644341D01*
X152461042Y-105664936D01*
X152461032Y-105664938D01*
X152232790Y-105726094D01*
X152232781Y-105726098D01*
X152018617Y-105825964D01*
X152018615Y-105825965D01*
X151825043Y-105961505D01*
X151657951Y-106128597D01*
X151522411Y-106322169D01*
X151522410Y-106322171D01*
X151422544Y-106536335D01*
X151422540Y-106536344D01*
X151361384Y-106764586D01*
X151361382Y-106764596D01*
X151340787Y-106999999D01*
X151340787Y-107000000D01*
X147481761Y-107000000D01*
X147438056Y-106827409D01*
X147341495Y-106607272D01*
X147331445Y-106591890D01*
X147210018Y-106406033D01*
X147210017Y-106406031D01*
X147047210Y-106229175D01*
X147047205Y-106229171D01*
X147047203Y-106229169D01*
X146857521Y-106081533D01*
X146857515Y-106081529D01*
X146646103Y-105967118D01*
X146646098Y-105967116D01*
X146418746Y-105889066D01*
X146240914Y-105859391D01*
X146181638Y-105849500D01*
X145941254Y-105849500D01*
X145893833Y-105857413D01*
X145704145Y-105889066D01*
X145476793Y-105967116D01*
X145476788Y-105967118D01*
X145265376Y-106081529D01*
X145265370Y-106081533D01*
X145075688Y-106229169D01*
X145075685Y-106229172D01*
X144912876Y-106406029D01*
X144912875Y-106406031D01*
X144895253Y-106433003D01*
X144842106Y-106478358D01*
X144772875Y-106487780D01*
X144709539Y-106458277D01*
X144687639Y-106433003D01*
X144685600Y-106429883D01*
X144670017Y-106406031D01*
X144507210Y-106229175D01*
X144507205Y-106229171D01*
X144507203Y-106229169D01*
X144317521Y-106081533D01*
X144317515Y-106081529D01*
X144106103Y-105967118D01*
X144106098Y-105967116D01*
X143878746Y-105889066D01*
X143700914Y-105859391D01*
X143641638Y-105849500D01*
X143401254Y-105849500D01*
X143353833Y-105857413D01*
X143164145Y-105889066D01*
X142936793Y-105967116D01*
X142936788Y-105967118D01*
X142725376Y-106081529D01*
X142725370Y-106081533D01*
X142535688Y-106229169D01*
X142535685Y-106229172D01*
X142372876Y-106406029D01*
X142372875Y-106406031D01*
X142355253Y-106433003D01*
X142302106Y-106478358D01*
X142232875Y-106487780D01*
X142169539Y-106458277D01*
X142147639Y-106433003D01*
X142145600Y-106429883D01*
X142130017Y-106406031D01*
X141967210Y-106229175D01*
X141967205Y-106229171D01*
X141967203Y-106229169D01*
X141777521Y-106081533D01*
X141777515Y-106081529D01*
X141566103Y-105967118D01*
X141566098Y-105967116D01*
X141338746Y-105889066D01*
X141160914Y-105859391D01*
X141101638Y-105849500D01*
X140861254Y-105849500D01*
X140813833Y-105857413D01*
X140624145Y-105889066D01*
X140396793Y-105967116D01*
X140396788Y-105967118D01*
X140185376Y-106081529D01*
X140185370Y-106081533D01*
X139995688Y-106229169D01*
X139995685Y-106229172D01*
X139832876Y-106406029D01*
X139832875Y-106406031D01*
X139815253Y-106433003D01*
X139762106Y-106478358D01*
X139692875Y-106487780D01*
X139629539Y-106458277D01*
X139607639Y-106433003D01*
X139605600Y-106429883D01*
X139590017Y-106406031D01*
X139427210Y-106229175D01*
X139427205Y-106229171D01*
X139427203Y-106229169D01*
X139237521Y-106081533D01*
X139237515Y-106081529D01*
X139026103Y-105967118D01*
X139026098Y-105967116D01*
X138798746Y-105889066D01*
X138620914Y-105859391D01*
X138561638Y-105849500D01*
X138321254Y-105849500D01*
X138273833Y-105857413D01*
X138084145Y-105889066D01*
X137856793Y-105967116D01*
X137856788Y-105967118D01*
X137645376Y-106081529D01*
X137645370Y-106081533D01*
X137455688Y-106229169D01*
X137455685Y-106229172D01*
X137292876Y-106406029D01*
X137292875Y-106406031D01*
X137275253Y-106433003D01*
X137222106Y-106478358D01*
X137152875Y-106487780D01*
X137089539Y-106458277D01*
X137067639Y-106433003D01*
X137065600Y-106429883D01*
X137050017Y-106406031D01*
X136887210Y-106229175D01*
X136887205Y-106229171D01*
X136887203Y-106229169D01*
X136697521Y-106081533D01*
X136697515Y-106081529D01*
X136486103Y-105967118D01*
X136486098Y-105967116D01*
X136258746Y-105889066D01*
X136080914Y-105859391D01*
X136021638Y-105849500D01*
X135781254Y-105849500D01*
X135733833Y-105857413D01*
X135544145Y-105889066D01*
X135316793Y-105967116D01*
X135316788Y-105967118D01*
X135105376Y-106081529D01*
X135105370Y-106081533D01*
X134915688Y-106229169D01*
X134915685Y-106229172D01*
X134752876Y-106406029D01*
X134752875Y-106406031D01*
X134735253Y-106433003D01*
X134682106Y-106478358D01*
X134612875Y-106487780D01*
X134549539Y-106458277D01*
X134527639Y-106433003D01*
X134525600Y-106429883D01*
X134510017Y-106406031D01*
X134347210Y-106229175D01*
X134347205Y-106229171D01*
X134347203Y-106229169D01*
X134157521Y-106081533D01*
X134157515Y-106081529D01*
X133946103Y-105967118D01*
X133946098Y-105967116D01*
X133718746Y-105889066D01*
X133540914Y-105859391D01*
X133481638Y-105849500D01*
X133241254Y-105849500D01*
X133193833Y-105857413D01*
X133004145Y-105889066D01*
X132776793Y-105967116D01*
X132776788Y-105967118D01*
X132565376Y-106081529D01*
X132565370Y-106081533D01*
X132375688Y-106229169D01*
X132375683Y-106229173D01*
X132332482Y-106276102D01*
X132272594Y-106312092D01*
X132202756Y-106309991D01*
X132145140Y-106270466D01*
X132125071Y-106235451D01*
X132114800Y-106207913D01*
X132114796Y-106207906D01*
X132028636Y-106092812D01*
X132028633Y-106092809D01*
X131913539Y-106006649D01*
X131913532Y-106006645D01*
X131778825Y-105956403D01*
X131778818Y-105956401D01*
X131719290Y-105950000D01*
X131121446Y-105950000D01*
X131121446Y-106898356D01*
X131094546Y-106875048D01*
X130963761Y-106815320D01*
X130857209Y-106800000D01*
X130785683Y-106800000D01*
X130679131Y-106815320D01*
X130548346Y-106875048D01*
X130521446Y-106898356D01*
X130521446Y-105950000D01*
X129923601Y-105950000D01*
X129864073Y-105956401D01*
X129864066Y-105956403D01*
X129729359Y-106006645D01*
X129729352Y-106006649D01*
X129614258Y-106092809D01*
X129614255Y-106092812D01*
X129528095Y-106207906D01*
X129528091Y-106207913D01*
X129477849Y-106342620D01*
X129477847Y-106342627D01*
X129471446Y-106402155D01*
X129471446Y-107000000D01*
X130419892Y-107000000D01*
X130361953Y-107090156D01*
X130321446Y-107228111D01*
X130321446Y-107371889D01*
X130361953Y-107509844D01*
X130419892Y-107600000D01*
X129471446Y-107600000D01*
X129471446Y-108197844D01*
X111600000Y-108197844D01*
X111600000Y-101599999D01*
X157940997Y-101599999D01*
X157960763Y-101851150D01*
X158019572Y-102096109D01*
X158115979Y-102328858D01*
X158247606Y-102543652D01*
X158247607Y-102543655D01*
X158247610Y-102543658D01*
X158411222Y-102735223D01*
X158550943Y-102854556D01*
X158602789Y-102898837D01*
X158602792Y-102898838D01*
X158817586Y-103030465D01*
X159050335Y-103126872D01*
X159295298Y-103185682D01*
X159546446Y-103205448D01*
X159797594Y-103185682D01*
X160042557Y-103126872D01*
X160275305Y-103030465D01*
X160490105Y-102898835D01*
X160681670Y-102735223D01*
X160845282Y-102543658D01*
X160976912Y-102328858D01*
X161073319Y-102096110D01*
X161132129Y-101851147D01*
X161151895Y-101600004D01*
X162541305Y-101600004D01*
X162561831Y-101847728D01*
X162561833Y-101847737D01*
X162622858Y-102088716D01*
X162722711Y-102316361D01*
X162722713Y-102316365D01*
X162795067Y-102427112D01*
X163508350Y-101713830D01*
X163523330Y-101785914D01*
X163592888Y-101920155D01*
X163696084Y-102030651D01*
X163825265Y-102109208D01*
X163931683Y-102139025D01*
X163216150Y-102854556D01*
X163216151Y-102854557D01*
X163223209Y-102860050D01*
X163223215Y-102860055D01*
X163441831Y-102978363D01*
X163441842Y-102978368D01*
X163676952Y-103059082D01*
X163922153Y-103099999D01*
X164170739Y-103099999D01*
X164415939Y-103059082D01*
X164651049Y-102978368D01*
X164651060Y-102978363D01*
X164869677Y-102860054D01*
X164869681Y-102860052D01*
X164876739Y-102854557D01*
X164876739Y-102854556D01*
X164161534Y-102139351D01*
X164196229Y-102134583D01*
X164334904Y-102074348D01*
X164452185Y-101978933D01*
X164539374Y-101855414D01*
X164588342Y-101717631D01*
X165297823Y-102427113D01*
X165370179Y-102316363D01*
X165470033Y-102088716D01*
X165531058Y-101847737D01*
X165531060Y-101847728D01*
X165551587Y-101600004D01*
X165551587Y-101599993D01*
X165531060Y-101352269D01*
X165531058Y-101352260D01*
X165470033Y-101111281D01*
X165370178Y-100883631D01*
X165297823Y-100772883D01*
X164584541Y-101486166D01*
X164569562Y-101414084D01*
X164500004Y-101279843D01*
X164396808Y-101169347D01*
X164267627Y-101090790D01*
X164161208Y-101060972D01*
X164876739Y-100345440D01*
X164876739Y-100345439D01*
X164869682Y-100339946D01*
X164869677Y-100339943D01*
X164651060Y-100221634D01*
X164651049Y-100221629D01*
X164415939Y-100140915D01*
X164170739Y-100099999D01*
X163922153Y-100099999D01*
X163676952Y-100140915D01*
X163441842Y-100221629D01*
X163441831Y-100221634D01*
X163223216Y-100339942D01*
X163223208Y-100339947D01*
X163216150Y-100345439D01*
X163931357Y-101060646D01*
X163896663Y-101065415D01*
X163757988Y-101125650D01*
X163640707Y-101221065D01*
X163553518Y-101344584D01*
X163504549Y-101482366D01*
X162795067Y-100772884D01*
X162722713Y-100883633D01*
X162622857Y-101111281D01*
X162561833Y-101352260D01*
X162561831Y-101352269D01*
X162541305Y-101599993D01*
X162541305Y-101600004D01*
X161151895Y-101600004D01*
X161151895Y-101599999D01*
X161132129Y-101348851D01*
X161073319Y-101103888D01*
X160976912Y-100871140D01*
X160976912Y-100871139D01*
X160845285Y-100656345D01*
X160845284Y-100656342D01*
X160808321Y-100613065D01*
X160681670Y-100464775D01*
X160535511Y-100339943D01*
X160490102Y-100301160D01*
X160490099Y-100301159D01*
X160275305Y-100169532D01*
X160042556Y-100073125D01*
X159797597Y-100014316D01*
X159546446Y-99994550D01*
X159295294Y-100014316D01*
X159050335Y-100073125D01*
X158817586Y-100169532D01*
X158602792Y-100301159D01*
X158602789Y-100301160D01*
X158411222Y-100464775D01*
X158247607Y-100656342D01*
X158247606Y-100656345D01*
X158115979Y-100871139D01*
X158019572Y-101103888D01*
X157960763Y-101348847D01*
X157940997Y-101599999D01*
X111600000Y-101599999D01*
X111600000Y-98600000D01*
X120891347Y-98600000D01*
X120909698Y-98786331D01*
X120909699Y-98786333D01*
X120964050Y-98965502D01*
X121052308Y-99130623D01*
X121052310Y-99130626D01*
X121171088Y-99275357D01*
X121315819Y-99394135D01*
X121315822Y-99394137D01*
X121480943Y-99482395D01*
X121480945Y-99482396D01*
X121660112Y-99536746D01*
X121660114Y-99536747D01*
X121676820Y-99538392D01*
X121846446Y-99555099D01*
X122032777Y-99536747D01*
X122211947Y-99482396D01*
X122377071Y-99394136D01*
X122521803Y-99275357D01*
X122640582Y-99130625D01*
X122728842Y-98965501D01*
X122766705Y-98840683D01*
X122783193Y-98786332D01*
X122789448Y-98722815D01*
X122815608Y-98658027D01*
X122825161Y-98647295D01*
X126372458Y-95099999D01*
X157940997Y-95099999D01*
X157960763Y-95351150D01*
X158019572Y-95596109D01*
X158115979Y-95828858D01*
X158247606Y-96043652D01*
X158247607Y-96043655D01*
X158247610Y-96043658D01*
X158411222Y-96235223D01*
X158550943Y-96354556D01*
X158602789Y-96398837D01*
X158602792Y-96398838D01*
X158817586Y-96530465D01*
X159050335Y-96626872D01*
X159295298Y-96685682D01*
X159546446Y-96705448D01*
X159797594Y-96685682D01*
X160042557Y-96626872D01*
X160275305Y-96530465D01*
X160490105Y-96398835D01*
X160681670Y-96235223D01*
X160845282Y-96043658D01*
X160976912Y-95828858D01*
X161073319Y-95596110D01*
X161132129Y-95351147D01*
X161151895Y-95099999D01*
X162541305Y-95099999D01*
X162561831Y-95347728D01*
X162561833Y-95347737D01*
X162622858Y-95588716D01*
X162722711Y-95816361D01*
X162722713Y-95816365D01*
X162795067Y-95927112D01*
X163508350Y-95213830D01*
X163523330Y-95285914D01*
X163592888Y-95420155D01*
X163696084Y-95530651D01*
X163825265Y-95609208D01*
X163931683Y-95639025D01*
X163216150Y-96354556D01*
X163216151Y-96354557D01*
X163223209Y-96360050D01*
X163223215Y-96360055D01*
X163441831Y-96478363D01*
X163441842Y-96478368D01*
X163676952Y-96559082D01*
X163922153Y-96599999D01*
X164170739Y-96599999D01*
X164415939Y-96559082D01*
X164651049Y-96478368D01*
X164651060Y-96478363D01*
X164869677Y-96360054D01*
X164869681Y-96360052D01*
X164876739Y-96354557D01*
X164876739Y-96354556D01*
X164161534Y-95639351D01*
X164196229Y-95634583D01*
X164334904Y-95574348D01*
X164452185Y-95478933D01*
X164539374Y-95355414D01*
X164588342Y-95217631D01*
X165297823Y-95927113D01*
X165370179Y-95816363D01*
X165470033Y-95588716D01*
X165531058Y-95347737D01*
X165531060Y-95347728D01*
X165551587Y-95099999D01*
X165551587Y-95099993D01*
X165531060Y-94852269D01*
X165531058Y-94852260D01*
X165470033Y-94611281D01*
X165370178Y-94383631D01*
X165297823Y-94272883D01*
X164584541Y-94986166D01*
X164569562Y-94914084D01*
X164500004Y-94779843D01*
X164396808Y-94669347D01*
X164267627Y-94590790D01*
X164161208Y-94560972D01*
X164876739Y-93845440D01*
X164876739Y-93845439D01*
X164869682Y-93839946D01*
X164869677Y-93839943D01*
X164651060Y-93721634D01*
X164651049Y-93721629D01*
X164415939Y-93640915D01*
X164170739Y-93599999D01*
X163922153Y-93599999D01*
X163676952Y-93640915D01*
X163441842Y-93721629D01*
X163441831Y-93721634D01*
X163223216Y-93839942D01*
X163223208Y-93839947D01*
X163216150Y-93845439D01*
X163931357Y-94560646D01*
X163896663Y-94565415D01*
X163757988Y-94625650D01*
X163640707Y-94721065D01*
X163553518Y-94844584D01*
X163504549Y-94982366D01*
X162795067Y-94272884D01*
X162722713Y-94383633D01*
X162622857Y-94611281D01*
X162561833Y-94852260D01*
X162561831Y-94852269D01*
X162541305Y-95099993D01*
X162541305Y-95099999D01*
X161151895Y-95099999D01*
X161132129Y-94848851D01*
X161073319Y-94603888D01*
X161030279Y-94499980D01*
X160976912Y-94371139D01*
X160845285Y-94156345D01*
X160845284Y-94156342D01*
X160808321Y-94113065D01*
X160681670Y-93964775D01*
X160535511Y-93839943D01*
X160490102Y-93801160D01*
X160490099Y-93801159D01*
X160275305Y-93669532D01*
X160042556Y-93573125D01*
X159797597Y-93514316D01*
X159546446Y-93494550D01*
X159295294Y-93514316D01*
X159050335Y-93573125D01*
X158817586Y-93669532D01*
X158602792Y-93801159D01*
X158602789Y-93801160D01*
X158411222Y-93964775D01*
X158247607Y-94156342D01*
X158247606Y-94156345D01*
X158115979Y-94371139D01*
X158019572Y-94603888D01*
X157960763Y-94848847D01*
X157940997Y-95099999D01*
X126372458Y-95099999D01*
X129515696Y-91956762D01*
X129529319Y-91944988D01*
X129547705Y-91931302D01*
X129578380Y-91894743D01*
X129585688Y-91886770D01*
X129589332Y-91883127D01*
X129607929Y-91859606D01*
X129610110Y-91856928D01*
X129656720Y-91801383D01*
X129656724Y-91801374D01*
X129660693Y-91795342D01*
X129660776Y-91795396D01*
X129664427Y-91789665D01*
X129664343Y-91789613D01*
X129668134Y-91783467D01*
X129668134Y-91783465D01*
X129668136Y-91783464D01*
X129698772Y-91717762D01*
X129700298Y-91714609D01*
X129732835Y-91649825D01*
X129732837Y-91649814D01*
X129735306Y-91643035D01*
X129735397Y-91643068D01*
X129737632Y-91636638D01*
X129737539Y-91636607D01*
X129739805Y-91629765D01*
X129739810Y-91629756D01*
X129754467Y-91558765D01*
X129755222Y-91555360D01*
X129771947Y-91484799D01*
X129771947Y-91484796D01*
X129772786Y-91477623D01*
X129772884Y-91477634D01*
X129773575Y-91470864D01*
X129773476Y-91470856D01*
X129774104Y-91463670D01*
X129774106Y-91463663D01*
X129771998Y-91391237D01*
X129771946Y-91387630D01*
X129771946Y-65026873D01*
X129791631Y-64959834D01*
X129808265Y-64939192D01*
X131337457Y-63410000D01*
X132922204Y-61825252D01*
X132983525Y-61791769D01*
X133053217Y-61796753D01*
X133109150Y-61838625D01*
X133113667Y-61845078D01*
X133197876Y-61973968D01*
X133360683Y-62150824D01*
X133360686Y-62150826D01*
X133360689Y-62150829D01*
X133550371Y-62298465D01*
X133550381Y-62298472D01*
X133556304Y-62301676D01*
X133559871Y-62303607D01*
X133609464Y-62352825D01*
X133624575Y-62421041D01*
X133600406Y-62486597D01*
X133571982Y-62514238D01*
X133475376Y-62581882D01*
X133475367Y-62581890D01*
X133308338Y-62748919D01*
X133308333Y-62748925D01*
X133172847Y-62942419D01*
X133172846Y-62942421D01*
X133073017Y-63156506D01*
X133073013Y-63156515D01*
X133029208Y-63319998D01*
X133029209Y-63319999D01*
X133944893Y-63319999D01*
X133886954Y-63410155D01*
X133846447Y-63548110D01*
X133846447Y-63691888D01*
X133886954Y-63829843D01*
X133944893Y-63919999D01*
X133029209Y-63919999D01*
X133073013Y-64083482D01*
X133073017Y-64083491D01*
X133172846Y-64297577D01*
X133308341Y-64491081D01*
X133475364Y-64658104D01*
X133571982Y-64725757D01*
X133615606Y-64780334D01*
X133622799Y-64849833D01*
X133591277Y-64912187D01*
X133559883Y-64936382D01*
X133550395Y-64941517D01*
X133550383Y-64941524D01*
X133360684Y-65089173D01*
X133197877Y-65266028D01*
X133197874Y-65266032D01*
X133066398Y-65467269D01*
X132969836Y-65687409D01*
X132910826Y-65920439D01*
X132890976Y-66159993D01*
X132890976Y-66160004D01*
X132910826Y-66399558D01*
X132969836Y-66632588D01*
X133066398Y-66852728D01*
X133197874Y-67053965D01*
X133197877Y-67053969D01*
X133257399Y-67118627D01*
X133288321Y-67181282D01*
X133280461Y-67250708D01*
X133236314Y-67304863D01*
X133213626Y-67317169D01*
X133193609Y-67325461D01*
X133068165Y-67421717D01*
X132971910Y-67547159D01*
X132911403Y-67693236D01*
X132911402Y-67693238D01*
X132895948Y-67810628D01*
X132895948Y-67810635D01*
X132895947Y-67810644D01*
X132895947Y-69589362D01*
X132911400Y-69706752D01*
X132911404Y-69706764D01*
X132922902Y-69734523D01*
X132930371Y-69803993D01*
X132899095Y-69866472D01*
X132839006Y-69902123D01*
X132769181Y-69899629D01*
X132749888Y-69891333D01*
X132611948Y-69817603D01*
X132432779Y-69763252D01*
X132432777Y-69763251D01*
X132246446Y-69744900D01*
X132060114Y-69763251D01*
X132060112Y-69763252D01*
X131880943Y-69817603D01*
X131715822Y-69905861D01*
X131715819Y-69905863D01*
X131571088Y-70024641D01*
X131452310Y-70169372D01*
X131452308Y-70169375D01*
X131364050Y-70334496D01*
X131309699Y-70513665D01*
X131309698Y-70513667D01*
X131291347Y-70699999D01*
X131309698Y-70886330D01*
X131309699Y-70886332D01*
X131364050Y-71065501D01*
X131452308Y-71230622D01*
X131452310Y-71230625D01*
X131571088Y-71375356D01*
X131715819Y-71494134D01*
X131715822Y-71494136D01*
X131873190Y-71578250D01*
X131880945Y-71582395D01*
X132060115Y-71636746D01*
X132123631Y-71643001D01*
X132188417Y-71669161D01*
X132199158Y-71678723D01*
X132884627Y-72364191D01*
X132918112Y-72425514D01*
X132920946Y-72451872D01*
X132920946Y-82378866D01*
X132901261Y-82445905D01*
X132848457Y-82491660D01*
X132779299Y-82501604D01*
X132715743Y-82472579D01*
X132705721Y-82462853D01*
X132598230Y-82346087D01*
X132598225Y-82346083D01*
X132598223Y-82346081D01*
X132415080Y-82203535D01*
X132415074Y-82203531D01*
X132210950Y-82093064D01*
X132210941Y-82093061D01*
X131991430Y-82017702D01*
X131819728Y-81989050D01*
X131762495Y-81979500D01*
X131530397Y-81979500D01*
X131484610Y-81987140D01*
X131301461Y-82017702D01*
X131081950Y-82093061D01*
X131081941Y-82093064D01*
X130877817Y-82203531D01*
X130877811Y-82203535D01*
X130694668Y-82346081D01*
X130694665Y-82346084D01*
X130537462Y-82516852D01*
X130410521Y-82711151D01*
X130317288Y-82923699D01*
X130260312Y-83148691D01*
X130260310Y-83148702D01*
X130241146Y-83379993D01*
X130241146Y-83380006D01*
X130260310Y-83611297D01*
X130260312Y-83611308D01*
X130317288Y-83836300D01*
X130410521Y-84048848D01*
X130537462Y-84243147D01*
X130537465Y-84243151D01*
X130537467Y-84243153D01*
X130694662Y-84413913D01*
X130694665Y-84413915D01*
X130694668Y-84413918D01*
X130872264Y-84552147D01*
X130913077Y-84608857D01*
X130916752Y-84678630D01*
X130882120Y-84739313D01*
X130872264Y-84747853D01*
X130694668Y-84886081D01*
X130694665Y-84886084D01*
X130694662Y-84886086D01*
X130694662Y-84886087D01*
X130682651Y-84899135D01*
X130537462Y-85056852D01*
X130410521Y-85251151D01*
X130317288Y-85463699D01*
X130260312Y-85688691D01*
X130260310Y-85688702D01*
X130241146Y-85919993D01*
X130241146Y-85920006D01*
X130260310Y-86151297D01*
X130260312Y-86151308D01*
X130317288Y-86376300D01*
X130410521Y-86588848D01*
X130537462Y-86783147D01*
X130537465Y-86783151D01*
X130537467Y-86783153D01*
X130694662Y-86953913D01*
X130694665Y-86953915D01*
X130694668Y-86953918D01*
X130877811Y-87096464D01*
X130877817Y-87096468D01*
X130877820Y-87096470D01*
X130954842Y-87138152D01*
X131004432Y-87187372D01*
X131019540Y-87255588D01*
X130995370Y-87321144D01*
X130966948Y-87348781D01*
X130807629Y-87460338D01*
X130646788Y-87621179D01*
X130516311Y-87807517D01*
X130420180Y-88013673D01*
X130420177Y-88013679D01*
X130380971Y-88159999D01*
X130380971Y-88160000D01*
X131380760Y-88160000D01*
X131318805Y-88221955D01*
X131261281Y-88334852D01*
X131241460Y-88460000D01*
X131261281Y-88585148D01*
X131318805Y-88698045D01*
X131380760Y-88760000D01*
X130380971Y-88760000D01*
X130420177Y-88906320D01*
X130420180Y-88906326D01*
X130516311Y-89112482D01*
X130646788Y-89298820D01*
X130753335Y-89405367D01*
X130786820Y-89466690D01*
X130781836Y-89536382D01*
X130739964Y-89592315D01*
X130696783Y-89610028D01*
X130697540Y-89612851D01*
X130689683Y-89614956D01*
X130543606Y-89675463D01*
X130418164Y-89771718D01*
X130321909Y-89897160D01*
X130261402Y-90043237D01*
X130261401Y-90043239D01*
X130245947Y-90160629D01*
X130245947Y-90160636D01*
X130245946Y-90160645D01*
X130245946Y-91839363D01*
X130261399Y-91956753D01*
X130261402Y-91956762D01*
X130321910Y-92102841D01*
X130418164Y-92228282D01*
X130543605Y-92324536D01*
X130689684Y-92385044D01*
X130807085Y-92400500D01*
X132485806Y-92400499D01*
X132485809Y-92400499D01*
X132603199Y-92385046D01*
X132603203Y-92385044D01*
X132603208Y-92385044D01*
X132749287Y-92324536D01*
X132874728Y-92228282D01*
X132970982Y-92102841D01*
X133031490Y-91956762D01*
X133046946Y-91839361D01*
X133046945Y-90160640D01*
X133046945Y-90160639D01*
X133046945Y-90160636D01*
X133031492Y-90043246D01*
X133031490Y-90043239D01*
X133031490Y-90043238D01*
X132970982Y-89897159D01*
X132874728Y-89771718D01*
X132749287Y-89675464D01*
X132603208Y-89614956D01*
X132595358Y-89612853D01*
X132596254Y-89609508D01*
X132546854Y-89587467D01*
X132508568Y-89529021D01*
X132507959Y-89459154D01*
X132539555Y-89405367D01*
X132632269Y-89312653D01*
X136678694Y-89312653D01*
X136697045Y-89498984D01*
X136697046Y-89498986D01*
X136751397Y-89678155D01*
X136839655Y-89843276D01*
X136839657Y-89843279D01*
X136958435Y-89988010D01*
X137103166Y-90106788D01*
X137103169Y-90106790D01*
X137203926Y-90160645D01*
X137268292Y-90195049D01*
X137447459Y-90249399D01*
X137447461Y-90249400D01*
X137464167Y-90251045D01*
X137633793Y-90267752D01*
X137820124Y-90249400D01*
X137999294Y-90195049D01*
X138164418Y-90106789D01*
X138309150Y-89988010D01*
X138427929Y-89843278D01*
X138451062Y-89799999D01*
X149791347Y-89799999D01*
X149809698Y-89986330D01*
X149809699Y-89986332D01*
X149864050Y-90165501D01*
X149952308Y-90330622D01*
X149952310Y-90330625D01*
X150071088Y-90475356D01*
X150215819Y-90594134D01*
X150215822Y-90594136D01*
X150380943Y-90682394D01*
X150380945Y-90682395D01*
X150542472Y-90731394D01*
X150560112Y-90736745D01*
X150560114Y-90736746D01*
X150578466Y-90738553D01*
X150746446Y-90755098D01*
X150756006Y-90754156D01*
X150824651Y-90767171D01*
X150864018Y-90798893D01*
X150965518Y-90922572D01*
X151110249Y-91041350D01*
X151110252Y-91041352D01*
X151219924Y-91099972D01*
X151275375Y-91129611D01*
X151454542Y-91183961D01*
X151454544Y-91183962D01*
X151471250Y-91185607D01*
X151640876Y-91202314D01*
X151827207Y-91183962D01*
X152006377Y-91129611D01*
X152171501Y-91041351D01*
X152316233Y-90922572D01*
X152435012Y-90777840D01*
X152523272Y-90612716D01*
X152577623Y-90433546D01*
X152583878Y-90370028D01*
X152610038Y-90305242D01*
X152619591Y-90294510D01*
X154409266Y-88504835D01*
X154470588Y-88471352D01*
X154540280Y-88476336D01*
X154596213Y-88518208D01*
X154620630Y-88583672D01*
X154620946Y-88592518D01*
X154620946Y-91141373D01*
X154601261Y-91208412D01*
X154592800Y-91220037D01*
X154552310Y-91269374D01*
X154552308Y-91269376D01*
X154464050Y-91434497D01*
X154409699Y-91613666D01*
X154409698Y-91613668D01*
X154391347Y-91799998D01*
X154409698Y-91986331D01*
X154409699Y-91986333D01*
X154464050Y-92165502D01*
X154552308Y-92330623D01*
X154552310Y-92330626D01*
X154671088Y-92475357D01*
X154815819Y-92594135D01*
X154815822Y-92594137D01*
X154980943Y-92682395D01*
X154980945Y-92682396D01*
X155160112Y-92736746D01*
X155160114Y-92736747D01*
X155176820Y-92738392D01*
X155346446Y-92755099D01*
X155532777Y-92736747D01*
X155711947Y-92682396D01*
X155877071Y-92594136D01*
X156021803Y-92475357D01*
X156140582Y-92330625D01*
X156228842Y-92165501D01*
X156283193Y-91986331D01*
X156301545Y-91800000D01*
X156300741Y-91791841D01*
X156283193Y-91613668D01*
X156283192Y-91613666D01*
X156228842Y-91434499D01*
X156193898Y-91369123D01*
X156140583Y-91269376D01*
X156140581Y-91269374D01*
X156100092Y-91220037D01*
X156072780Y-91155727D01*
X156071946Y-91141373D01*
X156071946Y-90999999D01*
X162971447Y-90999999D01*
X162971447Y-91099985D01*
X162981940Y-91202696D01*
X163037087Y-91369118D01*
X163037089Y-91369123D01*
X163129130Y-91518344D01*
X163253100Y-91642314D01*
X163402321Y-91734355D01*
X163402326Y-91734357D01*
X163568748Y-91789504D01*
X163568755Y-91789505D01*
X163671465Y-91799998D01*
X164046445Y-91799998D01*
X164046446Y-91799997D01*
X164046446Y-90999999D01*
X162971447Y-90999999D01*
X156071946Y-90999999D01*
X156071946Y-88811242D01*
X162870946Y-88811242D01*
X162911828Y-89029939D01*
X162990334Y-89232586D01*
X162992198Y-89237397D01*
X162992200Y-89237403D01*
X163109320Y-89426559D01*
X163109322Y-89426561D01*
X163256028Y-89587491D01*
X163286645Y-89650295D01*
X163278447Y-89719682D01*
X163252073Y-89758710D01*
X163129128Y-89881656D01*
X163037089Y-90030874D01*
X163037087Y-90030879D01*
X162981940Y-90197301D01*
X162981939Y-90197308D01*
X162971446Y-90300012D01*
X162971446Y-90399999D01*
X164112915Y-90399999D01*
X164028168Y-90492058D01*
X163977895Y-90606669D01*
X163967560Y-90731394D01*
X163998283Y-90852718D01*
X164066735Y-90957491D01*
X164165498Y-91034362D01*
X164283870Y-91074999D01*
X164377519Y-91074999D01*
X164469892Y-91059585D01*
X164579960Y-91000018D01*
X164579977Y-90999999D01*
X164646446Y-90999999D01*
X164646446Y-91799998D01*
X165021418Y-91799998D01*
X165021432Y-91799997D01*
X165124143Y-91789504D01*
X165290565Y-91734357D01*
X165290570Y-91734355D01*
X165439791Y-91642314D01*
X165563761Y-91518344D01*
X165655802Y-91369123D01*
X165655804Y-91369118D01*
X165710951Y-91202696D01*
X165710952Y-91202689D01*
X165721445Y-91099985D01*
X165721446Y-91099972D01*
X165721446Y-90999999D01*
X164646446Y-90999999D01*
X164579977Y-90999999D01*
X164664724Y-90907940D01*
X164714997Y-90793329D01*
X164725332Y-90668604D01*
X164694609Y-90547280D01*
X164626157Y-90442507D01*
X164571543Y-90399999D01*
X165721445Y-90399999D01*
X165721445Y-90300027D01*
X165721444Y-90300012D01*
X165710951Y-90197301D01*
X165655804Y-90030879D01*
X165655802Y-90030874D01*
X165563761Y-89881653D01*
X165440818Y-89758710D01*
X165407333Y-89697387D01*
X165412317Y-89627695D01*
X165436858Y-89587495D01*
X165583570Y-89426561D01*
X165700693Y-89237400D01*
X165781064Y-89029939D01*
X165821946Y-88811242D01*
X165821946Y-88588756D01*
X165781064Y-88370059D01*
X165700693Y-88162598D01*
X165699084Y-88160000D01*
X165583571Y-87973438D01*
X165583569Y-87973436D01*
X165433688Y-87809024D01*
X165433685Y-87809021D01*
X165433682Y-87809018D01*
X165420352Y-87798952D01*
X165378717Y-87742846D01*
X165374024Y-87673134D01*
X165407765Y-87611952D01*
X165420352Y-87601046D01*
X165433682Y-87590980D01*
X165583570Y-87426561D01*
X165700693Y-87237400D01*
X165781064Y-87029939D01*
X165821946Y-86811242D01*
X165821946Y-86588756D01*
X165781064Y-86370059D01*
X165700693Y-86162598D01*
X165672173Y-86116537D01*
X165583571Y-85973438D01*
X165583569Y-85973436D01*
X165433684Y-85809019D01*
X165256137Y-85674942D01*
X165256129Y-85674937D01*
X165056984Y-85575774D01*
X165056969Y-85575768D01*
X164842983Y-85514884D01*
X164842981Y-85514883D01*
X164725099Y-85503960D01*
X164676949Y-85499499D01*
X164015943Y-85499499D01*
X163971047Y-85503659D01*
X163849910Y-85514883D01*
X163849908Y-85514884D01*
X163635922Y-85575768D01*
X163635907Y-85575774D01*
X163436762Y-85674937D01*
X163436754Y-85674942D01*
X163259207Y-85809019D01*
X163109322Y-85973436D01*
X163109320Y-85973438D01*
X162992200Y-86162594D01*
X162992199Y-86162598D01*
X162911828Y-86370059D01*
X162870946Y-86588756D01*
X162870946Y-86811242D01*
X162911828Y-87029939D01*
X162989775Y-87231143D01*
X162992198Y-87237397D01*
X162992200Y-87237403D01*
X163109320Y-87426559D01*
X163109322Y-87426561D01*
X163259208Y-87590979D01*
X163272539Y-87601046D01*
X163314174Y-87657155D01*
X163318865Y-87726867D01*
X163285122Y-87788049D01*
X163272539Y-87798952D01*
X163259208Y-87809018D01*
X163109322Y-87973436D01*
X163109320Y-87973438D01*
X162992200Y-88162594D01*
X162992198Y-88162600D01*
X162974344Y-88208687D01*
X162911828Y-88370059D01*
X162870946Y-88588756D01*
X162870946Y-88811242D01*
X156071946Y-88811242D01*
X156071946Y-83736577D01*
X156073255Y-83718607D01*
X156076576Y-83695935D01*
X156072418Y-83648407D01*
X156071946Y-83637599D01*
X156071946Y-83632441D01*
X156071946Y-83632435D01*
X156068468Y-83602686D01*
X156068111Y-83599191D01*
X156065023Y-83563887D01*
X156061796Y-83526988D01*
X156060335Y-83519914D01*
X156060431Y-83519894D01*
X156058958Y-83513250D01*
X156058863Y-83513273D01*
X156057196Y-83506242D01*
X156057196Y-83506240D01*
X156032416Y-83438157D01*
X156031232Y-83434752D01*
X156008448Y-83365994D01*
X156008445Y-83365990D01*
X156005396Y-83359450D01*
X156005484Y-83359408D01*
X156002516Y-83353277D01*
X156002429Y-83353322D01*
X155999192Y-83346878D01*
X155999190Y-83346871D01*
X155959348Y-83286294D01*
X155957458Y-83283325D01*
X155919414Y-83221647D01*
X155914936Y-83215984D01*
X155915012Y-83215923D01*
X155910713Y-83210645D01*
X155910639Y-83210708D01*
X155905996Y-83205175D01*
X155853296Y-83155455D01*
X155850709Y-83152942D01*
X153628528Y-80930762D01*
X153616746Y-80917128D01*
X153603058Y-80898742D01*
X153603055Y-80898738D01*
X153566496Y-80868063D01*
X153558519Y-80860753D01*
X153554883Y-80857117D01*
X153554873Y-80857108D01*
X153531431Y-80838571D01*
X153528640Y-80836297D01*
X153473143Y-80789731D01*
X153473138Y-80789727D01*
X153473136Y-80789726D01*
X153473133Y-80789724D01*
X153467105Y-80785760D01*
X153467158Y-80785678D01*
X153461414Y-80782019D01*
X153461364Y-80782101D01*
X153455222Y-80778312D01*
X153428037Y-80765636D01*
X153389558Y-80747693D01*
X153386339Y-80746134D01*
X153321576Y-80713609D01*
X153314793Y-80711141D01*
X153314825Y-80711051D01*
X153308388Y-80708813D01*
X153308358Y-80708906D01*
X153301512Y-80706637D01*
X153301510Y-80706636D01*
X153301507Y-80706635D01*
X153301503Y-80706634D01*
X153230580Y-80691989D01*
X153227061Y-80691209D01*
X153167265Y-80677038D01*
X153156552Y-80674499D01*
X153156551Y-80674499D01*
X153156547Y-80674498D01*
X153149378Y-80673660D01*
X153149389Y-80673563D01*
X153142613Y-80672871D01*
X153142605Y-80672968D01*
X153135420Y-80672338D01*
X153062969Y-80674447D01*
X153059363Y-80674499D01*
X152705071Y-80674499D01*
X152638032Y-80654814D01*
X152626406Y-80646352D01*
X152577072Y-80605864D01*
X152577069Y-80605862D01*
X152411948Y-80517604D01*
X152232779Y-80463253D01*
X152232777Y-80463252D01*
X152046446Y-80444901D01*
X151860114Y-80463252D01*
X151860112Y-80463253D01*
X151680943Y-80517604D01*
X151515822Y-80605862D01*
X151515819Y-80605864D01*
X151371088Y-80724642D01*
X151252310Y-80869373D01*
X151252308Y-80869376D01*
X151164050Y-81034497D01*
X151109699Y-81213666D01*
X151109698Y-81213668D01*
X151091347Y-81400000D01*
X151109698Y-81586331D01*
X151109699Y-81586333D01*
X151164050Y-81765502D01*
X151252308Y-81930623D01*
X151252310Y-81930626D01*
X151371088Y-82075357D01*
X151515819Y-82194135D01*
X151515822Y-82194137D01*
X151533405Y-82203535D01*
X151680945Y-82282396D01*
X151860112Y-82336746D01*
X151860114Y-82336747D01*
X151876820Y-82338392D01*
X152046446Y-82355099D01*
X152232777Y-82336747D01*
X152411947Y-82282396D01*
X152577064Y-82194140D01*
X152577066Y-82194139D01*
X152577067Y-82194138D01*
X152577071Y-82194136D01*
X152626409Y-82153645D01*
X152690719Y-82126333D01*
X152705073Y-82125499D01*
X152719880Y-82125499D01*
X152786919Y-82145184D01*
X152807561Y-82161818D01*
X153304783Y-82659040D01*
X153338268Y-82720363D01*
X153333284Y-82790055D01*
X153291412Y-82845988D01*
X153253098Y-82865381D01*
X153080944Y-82917604D01*
X152915823Y-83005862D01*
X152915820Y-83005864D01*
X152771089Y-83124642D01*
X152652311Y-83269373D01*
X152652309Y-83269376D01*
X152564051Y-83434497D01*
X152509700Y-83613666D01*
X152509700Y-83613667D01*
X152503443Y-83677187D01*
X152477281Y-83741974D01*
X152467721Y-83752712D01*
X150277202Y-85943230D01*
X150263575Y-85955008D01*
X150245184Y-85968700D01*
X150245183Y-85968701D01*
X150214515Y-86005250D01*
X150207222Y-86013210D01*
X150203564Y-86016868D01*
X150185015Y-86040326D01*
X150182742Y-86043116D01*
X150136172Y-86098618D01*
X150132206Y-86104648D01*
X150132127Y-86104596D01*
X150128462Y-86110348D01*
X150128544Y-86110398D01*
X150124755Y-86116539D01*
X150094145Y-86182183D01*
X150092575Y-86185426D01*
X150060055Y-86250180D01*
X150057588Y-86256960D01*
X150057498Y-86256927D01*
X150055262Y-86263362D01*
X150055353Y-86263393D01*
X150053081Y-86270249D01*
X150038431Y-86341189D01*
X150037652Y-86344703D01*
X150020945Y-86415201D01*
X150020107Y-86422376D01*
X150020010Y-86422364D01*
X150019318Y-86429135D01*
X150019415Y-86429144D01*
X150018785Y-86436333D01*
X150020894Y-86508779D01*
X150020946Y-86512386D01*
X150020946Y-89141372D01*
X150001261Y-89208411D01*
X149992800Y-89220036D01*
X149952310Y-89269373D01*
X149952308Y-89269375D01*
X149864050Y-89434496D01*
X149809699Y-89613665D01*
X149809698Y-89613667D01*
X149791347Y-89799999D01*
X138451062Y-89799999D01*
X138516189Y-89678154D01*
X138561428Y-89529021D01*
X138570540Y-89498985D01*
X138573720Y-89466690D01*
X138576795Y-89435466D01*
X138602955Y-89370680D01*
X138612508Y-89359948D01*
X138706387Y-89266069D01*
X138767708Y-89232586D01*
X138781907Y-89230350D01*
X138832518Y-89225365D01*
X138845431Y-89224094D01*
X138901939Y-89206952D01*
X139024600Y-89169743D01*
X139189724Y-89081483D01*
X139334456Y-88962704D01*
X139453235Y-88817972D01*
X139541495Y-88652848D01*
X139595846Y-88473678D01*
X139614198Y-88287347D01*
X139595846Y-88101016D01*
X139595845Y-88101014D01*
X139595845Y-88101013D01*
X139569352Y-88013679D01*
X139541495Y-87921846D01*
X139481188Y-87809018D01*
X139453236Y-87756723D01*
X139453234Y-87756720D01*
X139334456Y-87611989D01*
X139189725Y-87493211D01*
X139189722Y-87493209D01*
X139024601Y-87404951D01*
X138845432Y-87350600D01*
X138845430Y-87350599D01*
X138659099Y-87332248D01*
X138472767Y-87350599D01*
X138472765Y-87350600D01*
X138293596Y-87404951D01*
X138128475Y-87493209D01*
X138128472Y-87493211D01*
X137983741Y-87611989D01*
X137864963Y-87756720D01*
X137864961Y-87756723D01*
X137776703Y-87921844D01*
X137722352Y-88101013D01*
X137722352Y-88101014D01*
X137716095Y-88164535D01*
X137689933Y-88229322D01*
X137680373Y-88240060D01*
X137586506Y-88333927D01*
X137525183Y-88367412D01*
X137510981Y-88369649D01*
X137447460Y-88375906D01*
X137447459Y-88375906D01*
X137268290Y-88430257D01*
X137103169Y-88518515D01*
X137103166Y-88518517D01*
X136958435Y-88637295D01*
X136839657Y-88782026D01*
X136839655Y-88782029D01*
X136751397Y-88947150D01*
X136697046Y-89126319D01*
X136697045Y-89126321D01*
X136678694Y-89312653D01*
X132632269Y-89312653D01*
X132646106Y-89298816D01*
X132776580Y-89112482D01*
X132872711Y-88906326D01*
X132872714Y-88906320D01*
X132911921Y-88760000D01*
X131912132Y-88760000D01*
X131974087Y-88698045D01*
X132031611Y-88585148D01*
X132051432Y-88460000D01*
X132031611Y-88334852D01*
X131974087Y-88221955D01*
X131912132Y-88160000D01*
X132911921Y-88160000D01*
X132911920Y-88159999D01*
X132872714Y-88013679D01*
X132872711Y-88013673D01*
X132776580Y-87807517D01*
X132646103Y-87621179D01*
X132485266Y-87460342D01*
X132325943Y-87348782D01*
X132282318Y-87294205D01*
X132275126Y-87224706D01*
X132306648Y-87162352D01*
X132338048Y-87138152D01*
X132415072Y-87096470D01*
X132420628Y-87092146D01*
X132500555Y-87029936D01*
X132598230Y-86953913D01*
X132755425Y-86783153D01*
X132882370Y-86588849D01*
X132975603Y-86376300D01*
X133032580Y-86151305D01*
X133036446Y-86104648D01*
X133051746Y-85920006D01*
X133051746Y-85919993D01*
X133032581Y-85688702D01*
X133032579Y-85688691D01*
X132975603Y-85463699D01*
X132882370Y-85251151D01*
X132755429Y-85056852D01*
X132755426Y-85056849D01*
X132755425Y-85056847D01*
X132598230Y-84886087D01*
X132420626Y-84747853D01*
X132379814Y-84691143D01*
X132376139Y-84621370D01*
X132410770Y-84560687D01*
X132420627Y-84552147D01*
X132577830Y-84429791D01*
X132642824Y-84404148D01*
X132711364Y-84417714D01*
X132761688Y-84466183D01*
X132763350Y-84469191D01*
X132852308Y-84635622D01*
X132852310Y-84635625D01*
X132971088Y-84780356D01*
X133115819Y-84899134D01*
X133115822Y-84899136D01*
X133280943Y-84987394D01*
X133280945Y-84987395D01*
X133460112Y-85041745D01*
X133460114Y-85041746D01*
X133476820Y-85043391D01*
X133646446Y-85060098D01*
X133832777Y-85041746D01*
X134011947Y-84987395D01*
X134177071Y-84899135D01*
X134321803Y-84780356D01*
X134440582Y-84635624D01*
X134528842Y-84470500D01*
X134583193Y-84291330D01*
X134601545Y-84104999D01*
X134583193Y-83918668D01*
X134528842Y-83739498D01*
X134527281Y-83736577D01*
X134440583Y-83574375D01*
X134440581Y-83574373D01*
X134400092Y-83525036D01*
X134372780Y-83460726D01*
X134371946Y-83446372D01*
X134371946Y-80400000D01*
X163171447Y-80400000D01*
X163171447Y-80499986D01*
X163181940Y-80602697D01*
X163237087Y-80769119D01*
X163237089Y-80769124D01*
X163329130Y-80918345D01*
X163453100Y-81042315D01*
X163602321Y-81134356D01*
X163602326Y-81134358D01*
X163768748Y-81189505D01*
X163768755Y-81189506D01*
X163871465Y-81199999D01*
X164246445Y-81199999D01*
X164246446Y-81199998D01*
X164246446Y-80400000D01*
X163171447Y-80400000D01*
X134371946Y-80400000D01*
X134371946Y-75300000D01*
X157791347Y-75300000D01*
X157809698Y-75486331D01*
X157809699Y-75486333D01*
X157864050Y-75665502D01*
X157952306Y-75830619D01*
X157952311Y-75830627D01*
X157992798Y-75879959D01*
X158020112Y-75944269D01*
X158020946Y-75958625D01*
X158020946Y-77963111D01*
X158019637Y-77981083D01*
X158016316Y-78003755D01*
X158016315Y-78003759D01*
X158020474Y-78051281D01*
X158020946Y-78062090D01*
X158020946Y-78067258D01*
X158024417Y-78096955D01*
X158024783Y-78100543D01*
X158031096Y-78172706D01*
X158032556Y-78179774D01*
X158032462Y-78179793D01*
X158033939Y-78186452D01*
X158034032Y-78186431D01*
X158035694Y-78193448D01*
X158060465Y-78261503D01*
X158061641Y-78264887D01*
X158084443Y-78333697D01*
X158084444Y-78333700D01*
X158087496Y-78340244D01*
X158087408Y-78340284D01*
X158090375Y-78346411D01*
X158090461Y-78346368D01*
X158093700Y-78352817D01*
X158093702Y-78352820D01*
X158133521Y-78413363D01*
X158135431Y-78416362D01*
X158143806Y-78429940D01*
X158173480Y-78478047D01*
X158177960Y-78483713D01*
X158177882Y-78483773D01*
X158182179Y-78489048D01*
X158182255Y-78488985D01*
X158186900Y-78494520D01*
X158239592Y-78544232D01*
X158242180Y-78546746D01*
X158567720Y-78872286D01*
X158601205Y-78933609D01*
X158603442Y-78947811D01*
X158609699Y-79011332D01*
X158609699Y-79011333D01*
X158664050Y-79190502D01*
X158752308Y-79355623D01*
X158752310Y-79355626D01*
X158871088Y-79500357D01*
X159015819Y-79619135D01*
X159015822Y-79619137D01*
X159167132Y-79700013D01*
X159180945Y-79707396D01*
X159360112Y-79761746D01*
X159360114Y-79761747D01*
X159376820Y-79763392D01*
X159546446Y-79780099D01*
X159732777Y-79761747D01*
X159911947Y-79707396D01*
X160077071Y-79619136D01*
X160221803Y-79500357D01*
X160340582Y-79355625D01*
X160428842Y-79190501D01*
X160483193Y-79011331D01*
X160501545Y-78825000D01*
X160483193Y-78638669D01*
X160428842Y-78459499D01*
X160428841Y-78459497D01*
X160340583Y-78294376D01*
X160340581Y-78294373D01*
X160272358Y-78211243D01*
X163070946Y-78211243D01*
X163111828Y-78429940D01*
X163156105Y-78544232D01*
X163192198Y-78637398D01*
X163192200Y-78637404D01*
X163309320Y-78826560D01*
X163309322Y-78826562D01*
X163456028Y-78987492D01*
X163486645Y-79050296D01*
X163478447Y-79119683D01*
X163452073Y-79158711D01*
X163329128Y-79281657D01*
X163237089Y-79430875D01*
X163237087Y-79430880D01*
X163181940Y-79597302D01*
X163181939Y-79597309D01*
X163171446Y-79700013D01*
X163171446Y-79800000D01*
X164312915Y-79800000D01*
X164228168Y-79892059D01*
X164177895Y-80006670D01*
X164167560Y-80131395D01*
X164198283Y-80252719D01*
X164266735Y-80357492D01*
X164365498Y-80434363D01*
X164483870Y-80475000D01*
X164577519Y-80475000D01*
X164669892Y-80459586D01*
X164779960Y-80400019D01*
X164779977Y-80400000D01*
X164846446Y-80400000D01*
X164846446Y-81199999D01*
X165221418Y-81199999D01*
X165221432Y-81199998D01*
X165324143Y-81189505D01*
X165490565Y-81134358D01*
X165490570Y-81134356D01*
X165639791Y-81042315D01*
X165763761Y-80918345D01*
X165855802Y-80769124D01*
X165855804Y-80769119D01*
X165910951Y-80602697D01*
X165910952Y-80602690D01*
X165921445Y-80499986D01*
X165921446Y-80499973D01*
X165921446Y-80400000D01*
X164846446Y-80400000D01*
X164779977Y-80400000D01*
X164864724Y-80307941D01*
X164914997Y-80193330D01*
X164925332Y-80068605D01*
X164894609Y-79947281D01*
X164826157Y-79842508D01*
X164771543Y-79800000D01*
X165921445Y-79800000D01*
X165921445Y-79700028D01*
X165921444Y-79700013D01*
X165910951Y-79597302D01*
X165855804Y-79430880D01*
X165855802Y-79430875D01*
X165763761Y-79281654D01*
X165640818Y-79158711D01*
X165607333Y-79097388D01*
X165612317Y-79027696D01*
X165636858Y-78987496D01*
X165783570Y-78826562D01*
X165900693Y-78637401D01*
X165981064Y-78429940D01*
X166021946Y-78211243D01*
X166021946Y-77988757D01*
X165981064Y-77770060D01*
X165900693Y-77562599D01*
X165888253Y-77542508D01*
X165783571Y-77373439D01*
X165783569Y-77373437D01*
X165633688Y-77209025D01*
X165633685Y-77209022D01*
X165633682Y-77209019D01*
X165620352Y-77198953D01*
X165578717Y-77142847D01*
X165574024Y-77073135D01*
X165607765Y-77011953D01*
X165620352Y-77001047D01*
X165633682Y-76990981D01*
X165783570Y-76826562D01*
X165900693Y-76637401D01*
X165981064Y-76429940D01*
X166021946Y-76211243D01*
X166021946Y-75988757D01*
X165981064Y-75770060D01*
X165900693Y-75562599D01*
X165853471Y-75486333D01*
X165783571Y-75373439D01*
X165783569Y-75373437D01*
X165633684Y-75209020D01*
X165456137Y-75074943D01*
X165456129Y-75074938D01*
X165256984Y-74975775D01*
X165256969Y-74975769D01*
X165042983Y-74914885D01*
X165042981Y-74914884D01*
X164925099Y-74903961D01*
X164876949Y-74899500D01*
X164215943Y-74899500D01*
X164171047Y-74903660D01*
X164049910Y-74914884D01*
X164049908Y-74914885D01*
X163835922Y-74975769D01*
X163835907Y-74975775D01*
X163636762Y-75074938D01*
X163636754Y-75074943D01*
X163459207Y-75209020D01*
X163309322Y-75373437D01*
X163309320Y-75373439D01*
X163192200Y-75562595D01*
X163192199Y-75562599D01*
X163111828Y-75770060D01*
X163070946Y-75988757D01*
X163070946Y-76211243D01*
X163111828Y-76429940D01*
X163149259Y-76526560D01*
X163192198Y-76637398D01*
X163192200Y-76637404D01*
X163309320Y-76826560D01*
X163309322Y-76826562D01*
X163459208Y-76990980D01*
X163472539Y-77001047D01*
X163514174Y-77057156D01*
X163518865Y-77126868D01*
X163485122Y-77188050D01*
X163472539Y-77198953D01*
X163459208Y-77209019D01*
X163309322Y-77373437D01*
X163309320Y-77373439D01*
X163192200Y-77562595D01*
X163192199Y-77562599D01*
X163111828Y-77770060D01*
X163070946Y-77988757D01*
X163070946Y-78211243D01*
X160272358Y-78211243D01*
X160221803Y-78149642D01*
X160077072Y-78030864D01*
X160077069Y-78030862D01*
X159911948Y-77942604D01*
X159732779Y-77888253D01*
X159669258Y-77881996D01*
X159604471Y-77855834D01*
X159593733Y-77846274D01*
X159508265Y-77760806D01*
X159474780Y-77699483D01*
X159471946Y-77673125D01*
X159471946Y-75958625D01*
X159491631Y-75891586D01*
X159500094Y-75879959D01*
X159540580Y-75830627D01*
X159540582Y-75830625D01*
X159628842Y-75665501D01*
X159683193Y-75486331D01*
X159701545Y-75300000D01*
X159683193Y-75113669D01*
X159628842Y-74934499D01*
X159610135Y-74899500D01*
X159540583Y-74769376D01*
X159540581Y-74769373D01*
X159421803Y-74624642D01*
X159277072Y-74505864D01*
X159277069Y-74505862D01*
X159111948Y-74417604D01*
X158932779Y-74363253D01*
X158932777Y-74363252D01*
X158746446Y-74344901D01*
X158560114Y-74363252D01*
X158560112Y-74363253D01*
X158380943Y-74417604D01*
X158215822Y-74505862D01*
X158215819Y-74505864D01*
X158071088Y-74624642D01*
X157952310Y-74769373D01*
X157952308Y-74769376D01*
X157864050Y-74934497D01*
X157809699Y-75113666D01*
X157809698Y-75113668D01*
X157791347Y-75300000D01*
X134371946Y-75300000D01*
X134371946Y-72161885D01*
X134373255Y-72143915D01*
X134376576Y-72121243D01*
X134372418Y-72073715D01*
X134371946Y-72062907D01*
X134371946Y-72057749D01*
X134371946Y-72057743D01*
X134368468Y-72027994D01*
X134368111Y-72024499D01*
X134365023Y-71989195D01*
X134361796Y-71952296D01*
X134360335Y-71945222D01*
X134360431Y-71945202D01*
X134358958Y-71938558D01*
X134358863Y-71938581D01*
X134357197Y-71931553D01*
X134357196Y-71931551D01*
X134357196Y-71931548D01*
X134332402Y-71863428D01*
X134331250Y-71860112D01*
X134308449Y-71791302D01*
X134308445Y-71791296D01*
X134305395Y-71784754D01*
X134305483Y-71784712D01*
X134302520Y-71778592D01*
X134302433Y-71778636D01*
X134299189Y-71772178D01*
X134259383Y-71711654D01*
X134257446Y-71708613D01*
X134219416Y-71646958D01*
X134214936Y-71641292D01*
X134215012Y-71641231D01*
X134210713Y-71635953D01*
X134210639Y-71636016D01*
X134205996Y-71630483D01*
X134153296Y-71580763D01*
X134150709Y-71578250D01*
X133225170Y-70652712D01*
X133191685Y-70591389D01*
X133189448Y-70577183D01*
X133183193Y-70513666D01*
X133128841Y-70334496D01*
X133095326Y-70271793D01*
X133081084Y-70203391D01*
X133106084Y-70138147D01*
X133162389Y-70096776D01*
X133232122Y-70092414D01*
X133252133Y-70098777D01*
X133339685Y-70135043D01*
X133457086Y-70150499D01*
X135235807Y-70150498D01*
X135235810Y-70150498D01*
X135353200Y-70135045D01*
X135353204Y-70135043D01*
X135353209Y-70135043D01*
X135499288Y-70074535D01*
X135624729Y-69978281D01*
X135720983Y-69852840D01*
X135781491Y-69706761D01*
X135795546Y-69600000D01*
X163171447Y-69600000D01*
X163171447Y-69699986D01*
X163181940Y-69802697D01*
X163237087Y-69969119D01*
X163237089Y-69969124D01*
X163329130Y-70118345D01*
X163453100Y-70242315D01*
X163602321Y-70334356D01*
X163602326Y-70334358D01*
X163768748Y-70389505D01*
X163768755Y-70389506D01*
X163871465Y-70399999D01*
X164246445Y-70399999D01*
X164246446Y-70399998D01*
X164246446Y-69600000D01*
X163171447Y-69600000D01*
X135795546Y-69600000D01*
X135796947Y-69589360D01*
X135796946Y-67810639D01*
X135796946Y-67810638D01*
X135796946Y-67810635D01*
X135781493Y-67693245D01*
X135781491Y-67693238D01*
X135781491Y-67693237D01*
X135720983Y-67547158D01*
X135624729Y-67421717D01*
X135611079Y-67411243D01*
X163070946Y-67411243D01*
X163111828Y-67629940D01*
X163192198Y-67837398D01*
X163192200Y-67837404D01*
X163309320Y-68026560D01*
X163309322Y-68026562D01*
X163456028Y-68187492D01*
X163486645Y-68250296D01*
X163478447Y-68319683D01*
X163452073Y-68358711D01*
X163329128Y-68481657D01*
X163237089Y-68630875D01*
X163237087Y-68630880D01*
X163181940Y-68797302D01*
X163181939Y-68797309D01*
X163171446Y-68900013D01*
X163171446Y-69000000D01*
X164312915Y-69000000D01*
X164228168Y-69092059D01*
X164177895Y-69206670D01*
X164167560Y-69331395D01*
X164198283Y-69452719D01*
X164266735Y-69557492D01*
X164365498Y-69634363D01*
X164483870Y-69675000D01*
X164577519Y-69675000D01*
X164669892Y-69659586D01*
X164779960Y-69600019D01*
X164779977Y-69600000D01*
X164846446Y-69600000D01*
X164846446Y-70399999D01*
X165221418Y-70399999D01*
X165221432Y-70399998D01*
X165324143Y-70389505D01*
X165490565Y-70334358D01*
X165490570Y-70334356D01*
X165639791Y-70242315D01*
X165763761Y-70118345D01*
X165855802Y-69969124D01*
X165855804Y-69969119D01*
X165910951Y-69802697D01*
X165910952Y-69802690D01*
X165921445Y-69699986D01*
X165921446Y-69699973D01*
X165921446Y-69600000D01*
X164846446Y-69600000D01*
X164779977Y-69600000D01*
X164864724Y-69507941D01*
X164914997Y-69393330D01*
X164925332Y-69268605D01*
X164894609Y-69147281D01*
X164826157Y-69042508D01*
X164771543Y-69000000D01*
X165921445Y-69000000D01*
X165921445Y-68900028D01*
X165921444Y-68900013D01*
X165910951Y-68797302D01*
X165855804Y-68630880D01*
X165855802Y-68630875D01*
X165763761Y-68481654D01*
X165640818Y-68358711D01*
X165607333Y-68297388D01*
X165612317Y-68227696D01*
X165636858Y-68187496D01*
X165783570Y-68026562D01*
X165900693Y-67837401D01*
X165981064Y-67629940D01*
X166021946Y-67411243D01*
X166021946Y-67188757D01*
X165981064Y-66970060D01*
X165900693Y-66762599D01*
X165891288Y-66747410D01*
X165783571Y-66573439D01*
X165783569Y-66573437D01*
X165633688Y-66409025D01*
X165633685Y-66409022D01*
X165633682Y-66409019D01*
X165620352Y-66398953D01*
X165578717Y-66342847D01*
X165574024Y-66273135D01*
X165607765Y-66211953D01*
X165620352Y-66201047D01*
X165633682Y-66190981D01*
X165783570Y-66026562D01*
X165900693Y-65837401D01*
X165981064Y-65629940D01*
X166021946Y-65411243D01*
X166021946Y-65188757D01*
X165981064Y-64970060D01*
X165900693Y-64762599D01*
X165892313Y-64749065D01*
X165783571Y-64573439D01*
X165783569Y-64573437D01*
X165633684Y-64409020D01*
X165456137Y-64274943D01*
X165456129Y-64274938D01*
X165256984Y-64175775D01*
X165256969Y-64175769D01*
X165042983Y-64114885D01*
X165042981Y-64114884D01*
X164925099Y-64103961D01*
X164876949Y-64099500D01*
X164215943Y-64099500D01*
X164171047Y-64103660D01*
X164049910Y-64114884D01*
X164049908Y-64114885D01*
X163835922Y-64175769D01*
X163835907Y-64175775D01*
X163636762Y-64274938D01*
X163636754Y-64274943D01*
X163459207Y-64409020D01*
X163309322Y-64573437D01*
X163309320Y-64573439D01*
X163192200Y-64762595D01*
X163192199Y-64762599D01*
X163111828Y-64970060D01*
X163070946Y-65188757D01*
X163070946Y-65411243D01*
X163111828Y-65629940D01*
X163158660Y-65750826D01*
X163192198Y-65837398D01*
X163192200Y-65837404D01*
X163309320Y-66026560D01*
X163309322Y-66026562D01*
X163459208Y-66190980D01*
X163472539Y-66201047D01*
X163514174Y-66257156D01*
X163518865Y-66326868D01*
X163485122Y-66388050D01*
X163472539Y-66398953D01*
X163459208Y-66409019D01*
X163309322Y-66573437D01*
X163309320Y-66573439D01*
X163192200Y-66762595D01*
X163192199Y-66762599D01*
X163111828Y-66970060D01*
X163070946Y-67188757D01*
X163070946Y-67411243D01*
X135611079Y-67411243D01*
X135499288Y-67325463D01*
X135499287Y-67325462D01*
X135499285Y-67325461D01*
X135479269Y-67317170D01*
X135424866Y-67273328D01*
X135402803Y-67207033D01*
X135420084Y-67139334D01*
X135435489Y-67118633D01*
X135495018Y-67053968D01*
X135626496Y-66852727D01*
X135723057Y-66632590D01*
X135782067Y-66399562D01*
X135793867Y-66257156D01*
X135801918Y-66160004D01*
X135801918Y-66159993D01*
X135782067Y-65920439D01*
X135782067Y-65920436D01*
X135723057Y-65687408D01*
X135626496Y-65467271D01*
X135495018Y-65266030D01*
X135332211Y-65089174D01*
X135142514Y-64941527D01*
X135142513Y-64941526D01*
X135142510Y-64941524D01*
X135142503Y-64941520D01*
X135133013Y-64936384D01*
X135083424Y-64887163D01*
X135068319Y-64818945D01*
X135092493Y-64753391D01*
X135120912Y-64725757D01*
X135217527Y-64658106D01*
X135384552Y-64491081D01*
X135520047Y-64297577D01*
X135619876Y-64083491D01*
X135619880Y-64083482D01*
X135663685Y-63919999D01*
X134748001Y-63919999D01*
X134805940Y-63829843D01*
X134846447Y-63691888D01*
X134846447Y-63548110D01*
X134805940Y-63410155D01*
X134748001Y-63319999D01*
X135663685Y-63319999D01*
X135663685Y-63319998D01*
X135619880Y-63156515D01*
X135619876Y-63156506D01*
X135520047Y-62942421D01*
X135520046Y-62942419D01*
X135384560Y-62748925D01*
X135384555Y-62748919D01*
X135217525Y-62581889D01*
X135120911Y-62514238D01*
X135077286Y-62459661D01*
X135070094Y-62390162D01*
X135101617Y-62327808D01*
X135133019Y-62303609D01*
X135142514Y-62298471D01*
X135332211Y-62150824D01*
X135495018Y-61973968D01*
X135626496Y-61772727D01*
X135723057Y-61552590D01*
X135782067Y-61319562D01*
X135801918Y-61079999D01*
X135801021Y-61069175D01*
X135782067Y-60840439D01*
X135782067Y-60840436D01*
X135723057Y-60607408D01*
X135626496Y-60387271D01*
X135495018Y-60186030D01*
X135332211Y-60009174D01*
X135332206Y-60009170D01*
X135332204Y-60009168D01*
X135142522Y-59861532D01*
X135142507Y-59861522D01*
X135122277Y-59850574D01*
X135072688Y-59801354D01*
X135057581Y-59733137D01*
X135081753Y-59667582D01*
X135093609Y-59653847D01*
X135268734Y-59478722D01*
X135330055Y-59445239D01*
X135344254Y-59443003D01*
X135394865Y-59438018D01*
X135407778Y-59436747D01*
X135462129Y-59420259D01*
X135563980Y-59389363D01*
X139715946Y-59389363D01*
X139731399Y-59506753D01*
X139731402Y-59506762D01*
X139791910Y-59652841D01*
X139888164Y-59778282D01*
X140013605Y-59874536D01*
X140159684Y-59935044D01*
X140277085Y-59950500D01*
X142055806Y-59950499D01*
X142055809Y-59950499D01*
X142173199Y-59935046D01*
X142173203Y-59935044D01*
X142173208Y-59935044D01*
X142319287Y-59874536D01*
X142444728Y-59778282D01*
X142540982Y-59652841D01*
X142548197Y-59635420D01*
X142592036Y-59581019D01*
X142658330Y-59558953D01*
X142726030Y-59576231D01*
X142738920Y-59585021D01*
X142910370Y-59718466D01*
X142910376Y-59718470D01*
X142910379Y-59718472D01*
X143121790Y-59832882D01*
X143121793Y-59832883D01*
X143349145Y-59910933D01*
X143349147Y-59910933D01*
X143349149Y-59910934D01*
X143586254Y-59950500D01*
X143586255Y-59950500D01*
X143826637Y-59950500D01*
X143826638Y-59950500D01*
X144063743Y-59910934D01*
X144291102Y-59832882D01*
X144502513Y-59718472D01*
X144692210Y-59570825D01*
X144855017Y-59393969D01*
X144872639Y-59366995D01*
X144925783Y-59321641D01*
X144995014Y-59312217D01*
X145058350Y-59341718D01*
X145080250Y-59366992D01*
X145097875Y-59393969D01*
X145260682Y-59570825D01*
X145260685Y-59570827D01*
X145260688Y-59570830D01*
X145450370Y-59718466D01*
X145450376Y-59718470D01*
X145450379Y-59718472D01*
X145661790Y-59832882D01*
X145661793Y-59832883D01*
X145889145Y-59910933D01*
X145889147Y-59910933D01*
X145889149Y-59910934D01*
X146126254Y-59950500D01*
X146126255Y-59950500D01*
X146366637Y-59950500D01*
X146366638Y-59950500D01*
X146603743Y-59910934D01*
X146831102Y-59832882D01*
X147042513Y-59718472D01*
X147232210Y-59570825D01*
X147395017Y-59393969D01*
X147412639Y-59366995D01*
X147465783Y-59321641D01*
X147535014Y-59312217D01*
X147598350Y-59341718D01*
X147620250Y-59366992D01*
X147637875Y-59393969D01*
X147800682Y-59570825D01*
X147800685Y-59570827D01*
X147800688Y-59570830D01*
X147990370Y-59718466D01*
X147990376Y-59718470D01*
X147990379Y-59718472D01*
X148201790Y-59832882D01*
X148201793Y-59832883D01*
X148429145Y-59910933D01*
X148429147Y-59910933D01*
X148429149Y-59910934D01*
X148666254Y-59950500D01*
X148666255Y-59950500D01*
X148906637Y-59950500D01*
X148906638Y-59950500D01*
X149143743Y-59910934D01*
X149371102Y-59832882D01*
X149582513Y-59718472D01*
X149772210Y-59570825D01*
X149935017Y-59393969D01*
X149952639Y-59366995D01*
X150005783Y-59321641D01*
X150075014Y-59312217D01*
X150138350Y-59341718D01*
X150160250Y-59366992D01*
X150177875Y-59393969D01*
X150340682Y-59570825D01*
X150340685Y-59570827D01*
X150340688Y-59570830D01*
X150530370Y-59718466D01*
X150530376Y-59718470D01*
X150530379Y-59718472D01*
X150741790Y-59832882D01*
X150741793Y-59832883D01*
X150969145Y-59910933D01*
X150969147Y-59910933D01*
X150969149Y-59910934D01*
X151206254Y-59950500D01*
X151206255Y-59950500D01*
X151446637Y-59950500D01*
X151446638Y-59950500D01*
X151683743Y-59910934D01*
X151911102Y-59832882D01*
X152122513Y-59718472D01*
X152312210Y-59570825D01*
X152475017Y-59393969D01*
X152492639Y-59366995D01*
X152545783Y-59321641D01*
X152615014Y-59312217D01*
X152678350Y-59341718D01*
X152700250Y-59366992D01*
X152717875Y-59393969D01*
X152880682Y-59570825D01*
X152880685Y-59570827D01*
X152880688Y-59570830D01*
X153070370Y-59718466D01*
X153070376Y-59718470D01*
X153070379Y-59718472D01*
X153281790Y-59832882D01*
X153281793Y-59832883D01*
X153509145Y-59910933D01*
X153509147Y-59910933D01*
X153509149Y-59910934D01*
X153746254Y-59950500D01*
X153746255Y-59950500D01*
X153986637Y-59950500D01*
X153986638Y-59950500D01*
X154223743Y-59910934D01*
X154451102Y-59832882D01*
X154662513Y-59718472D01*
X154852210Y-59570825D01*
X155015017Y-59393969D01*
X155032639Y-59366995D01*
X155085783Y-59321641D01*
X155155014Y-59312217D01*
X155218350Y-59341718D01*
X155240250Y-59366992D01*
X155257875Y-59393969D01*
X155420682Y-59570825D01*
X155420685Y-59570827D01*
X155420688Y-59570830D01*
X155610370Y-59718466D01*
X155610376Y-59718470D01*
X155610379Y-59718472D01*
X155821790Y-59832882D01*
X155821793Y-59832883D01*
X156049145Y-59910933D01*
X156049147Y-59910933D01*
X156049149Y-59910934D01*
X156286254Y-59950500D01*
X156286255Y-59950500D01*
X156526637Y-59950500D01*
X156526638Y-59950500D01*
X156763743Y-59910934D01*
X156991102Y-59832882D01*
X157202513Y-59718472D01*
X157392210Y-59570825D01*
X157555017Y-59393969D01*
X157572639Y-59366995D01*
X157625783Y-59321641D01*
X157695014Y-59312217D01*
X157758350Y-59341718D01*
X157780250Y-59366992D01*
X157797875Y-59393969D01*
X157960682Y-59570825D01*
X157960685Y-59570827D01*
X157960688Y-59570830D01*
X158150370Y-59718466D01*
X158150376Y-59718470D01*
X158150379Y-59718472D01*
X158361790Y-59832882D01*
X158361793Y-59832883D01*
X158589145Y-59910933D01*
X158589147Y-59910933D01*
X158589149Y-59910934D01*
X158826254Y-59950500D01*
X158826255Y-59950500D01*
X159066637Y-59950500D01*
X159066638Y-59950500D01*
X159303743Y-59910934D01*
X159531102Y-59832882D01*
X159742513Y-59718472D01*
X159932210Y-59570825D01*
X160095017Y-59393969D01*
X160112639Y-59366995D01*
X160165783Y-59321641D01*
X160235014Y-59312217D01*
X160298350Y-59341718D01*
X160320250Y-59366992D01*
X160337875Y-59393969D01*
X160500682Y-59570825D01*
X160500685Y-59570827D01*
X160500688Y-59570830D01*
X160690370Y-59718466D01*
X160690376Y-59718470D01*
X160690379Y-59718472D01*
X160901790Y-59832882D01*
X160901793Y-59832883D01*
X161129145Y-59910933D01*
X161129147Y-59910933D01*
X161129149Y-59910934D01*
X161366254Y-59950500D01*
X161366255Y-59950500D01*
X161606637Y-59950500D01*
X161606638Y-59950500D01*
X161843743Y-59910934D01*
X162071102Y-59832882D01*
X162282513Y-59718472D01*
X162472210Y-59570825D01*
X162635017Y-59393969D01*
X162652639Y-59366995D01*
X162705783Y-59321641D01*
X162775014Y-59312217D01*
X162838350Y-59341718D01*
X162860250Y-59366992D01*
X162877875Y-59393969D01*
X163040682Y-59570825D01*
X163040685Y-59570827D01*
X163040688Y-59570830D01*
X163230370Y-59718466D01*
X163230376Y-59718470D01*
X163230379Y-59718472D01*
X163441790Y-59832882D01*
X163441793Y-59832883D01*
X163669145Y-59910933D01*
X163669147Y-59910933D01*
X163669149Y-59910934D01*
X163906254Y-59950500D01*
X163906255Y-59950500D01*
X164146637Y-59950500D01*
X164146638Y-59950500D01*
X164383743Y-59910934D01*
X164611102Y-59832882D01*
X164822513Y-59718472D01*
X165012210Y-59570825D01*
X165175017Y-59393969D01*
X165253045Y-59274537D01*
X165306190Y-59229183D01*
X165375421Y-59219759D01*
X165438757Y-59249261D01*
X165458426Y-59271237D01*
X165528336Y-59371078D01*
X165695363Y-59538105D01*
X165888867Y-59673600D01*
X166102953Y-59773429D01*
X166102962Y-59773433D01*
X166266445Y-59817238D01*
X166266446Y-59817237D01*
X166266446Y-58901643D01*
X166293346Y-58924952D01*
X166424131Y-58984680D01*
X166530683Y-59000000D01*
X166602209Y-59000000D01*
X166708761Y-58984680D01*
X166839546Y-58924952D01*
X166866446Y-58901643D01*
X166866446Y-59817238D01*
X167029929Y-59773433D01*
X167029938Y-59773429D01*
X167244024Y-59673600D01*
X167437528Y-59538105D01*
X167604551Y-59371082D01*
X167740046Y-59177578D01*
X167839875Y-58963492D01*
X167839879Y-58963483D01*
X167883684Y-58800000D01*
X166968000Y-58800000D01*
X167025939Y-58709844D01*
X167066446Y-58571889D01*
X167066446Y-58428111D01*
X167025939Y-58290156D01*
X166968000Y-58200000D01*
X167883684Y-58200000D01*
X167883684Y-58199999D01*
X167839879Y-58036516D01*
X167839875Y-58036507D01*
X167740046Y-57822422D01*
X167740045Y-57822420D01*
X167604559Y-57628926D01*
X167604554Y-57628920D01*
X167437528Y-57461894D01*
X167244024Y-57326399D01*
X167029941Y-57226571D01*
X166866446Y-57182761D01*
X166866446Y-58098356D01*
X166839546Y-58075048D01*
X166708761Y-58015320D01*
X166602209Y-58000000D01*
X166530683Y-58000000D01*
X166424131Y-58015320D01*
X166293346Y-58075048D01*
X166266446Y-58098356D01*
X166266446Y-57182761D01*
X166102950Y-57226571D01*
X165888868Y-57326399D01*
X165888866Y-57326400D01*
X165695372Y-57461886D01*
X165695366Y-57461891D01*
X165528337Y-57628920D01*
X165528336Y-57628922D01*
X165458427Y-57728762D01*
X165403850Y-57772387D01*
X165334351Y-57779579D01*
X165271997Y-57748057D01*
X165253044Y-57725460D01*
X165240240Y-57705862D01*
X165175017Y-57606031D01*
X165012210Y-57429175D01*
X165012205Y-57429171D01*
X165012203Y-57429169D01*
X164822521Y-57281533D01*
X164822515Y-57281529D01*
X164611103Y-57167118D01*
X164611098Y-57167116D01*
X164383746Y-57089066D01*
X164205914Y-57059391D01*
X164146638Y-57049500D01*
X163906254Y-57049500D01*
X163858833Y-57057413D01*
X163669145Y-57089066D01*
X163441793Y-57167116D01*
X163441788Y-57167118D01*
X163230376Y-57281529D01*
X163230370Y-57281533D01*
X163040688Y-57429169D01*
X163040685Y-57429172D01*
X163040682Y-57429174D01*
X163040682Y-57429175D01*
X163010565Y-57461891D01*
X162877876Y-57606029D01*
X162877875Y-57606031D01*
X162860253Y-57633003D01*
X162807106Y-57678358D01*
X162737875Y-57687780D01*
X162674539Y-57658277D01*
X162652639Y-57633003D01*
X162642578Y-57617604D01*
X162635017Y-57606031D01*
X162472210Y-57429175D01*
X162472205Y-57429171D01*
X162472203Y-57429169D01*
X162282521Y-57281533D01*
X162282515Y-57281529D01*
X162071103Y-57167118D01*
X162071098Y-57167116D01*
X161843746Y-57089066D01*
X161665914Y-57059391D01*
X161606638Y-57049500D01*
X161366254Y-57049500D01*
X161318833Y-57057413D01*
X161129145Y-57089066D01*
X160901793Y-57167116D01*
X160901788Y-57167118D01*
X160690376Y-57281529D01*
X160690370Y-57281533D01*
X160500688Y-57429169D01*
X160500685Y-57429172D01*
X160500682Y-57429174D01*
X160500682Y-57429175D01*
X160470565Y-57461891D01*
X160337876Y-57606029D01*
X160337875Y-57606031D01*
X160320253Y-57633003D01*
X160267106Y-57678358D01*
X160197875Y-57687780D01*
X160134539Y-57658277D01*
X160112639Y-57633003D01*
X160102578Y-57617604D01*
X160095017Y-57606031D01*
X159932210Y-57429175D01*
X159932205Y-57429171D01*
X159932203Y-57429169D01*
X159742521Y-57281533D01*
X159742515Y-57281529D01*
X159531103Y-57167118D01*
X159531098Y-57167116D01*
X159303746Y-57089066D01*
X159125914Y-57059391D01*
X159066638Y-57049500D01*
X158826254Y-57049500D01*
X158778833Y-57057413D01*
X158589145Y-57089066D01*
X158361793Y-57167116D01*
X158361788Y-57167118D01*
X158150376Y-57281529D01*
X158150370Y-57281533D01*
X157960688Y-57429169D01*
X157960685Y-57429172D01*
X157960682Y-57429174D01*
X157960682Y-57429175D01*
X157930565Y-57461891D01*
X157797876Y-57606029D01*
X157797875Y-57606031D01*
X157780253Y-57633003D01*
X157727106Y-57678358D01*
X157657875Y-57687780D01*
X157594539Y-57658277D01*
X157572639Y-57633003D01*
X157562578Y-57617604D01*
X157555017Y-57606031D01*
X157392210Y-57429175D01*
X157392205Y-57429171D01*
X157392203Y-57429169D01*
X157202521Y-57281533D01*
X157202515Y-57281529D01*
X156991103Y-57167118D01*
X156991098Y-57167116D01*
X156763746Y-57089066D01*
X156585914Y-57059391D01*
X156526638Y-57049500D01*
X156286254Y-57049500D01*
X156238833Y-57057413D01*
X156049145Y-57089066D01*
X155821793Y-57167116D01*
X155821788Y-57167118D01*
X155610376Y-57281529D01*
X155610370Y-57281533D01*
X155420688Y-57429169D01*
X155420685Y-57429172D01*
X155420682Y-57429174D01*
X155420682Y-57429175D01*
X155390565Y-57461891D01*
X155257876Y-57606029D01*
X155257875Y-57606031D01*
X155240253Y-57633003D01*
X155187106Y-57678358D01*
X155117875Y-57687780D01*
X155054539Y-57658277D01*
X155032639Y-57633003D01*
X155022578Y-57617604D01*
X155015017Y-57606031D01*
X154852210Y-57429175D01*
X154852205Y-57429171D01*
X154852203Y-57429169D01*
X154662521Y-57281533D01*
X154662515Y-57281529D01*
X154451103Y-57167118D01*
X154451098Y-57167116D01*
X154223746Y-57089066D01*
X154045914Y-57059391D01*
X153986638Y-57049500D01*
X153746254Y-57049500D01*
X153698833Y-57057413D01*
X153509145Y-57089066D01*
X153281793Y-57167116D01*
X153281788Y-57167118D01*
X153070376Y-57281529D01*
X153070370Y-57281533D01*
X152880688Y-57429169D01*
X152880685Y-57429172D01*
X152880682Y-57429174D01*
X152880682Y-57429175D01*
X152850565Y-57461891D01*
X152717876Y-57606029D01*
X152717875Y-57606031D01*
X152700253Y-57633003D01*
X152647106Y-57678358D01*
X152577875Y-57687780D01*
X152514539Y-57658277D01*
X152492639Y-57633003D01*
X152482578Y-57617604D01*
X152475017Y-57606031D01*
X152312210Y-57429175D01*
X152312205Y-57429171D01*
X152312203Y-57429169D01*
X152122521Y-57281533D01*
X152122515Y-57281529D01*
X151911103Y-57167118D01*
X151911098Y-57167116D01*
X151683746Y-57089066D01*
X151505914Y-57059391D01*
X151446638Y-57049500D01*
X151206254Y-57049500D01*
X151158833Y-57057413D01*
X150969145Y-57089066D01*
X150741793Y-57167116D01*
X150741788Y-57167118D01*
X150530376Y-57281529D01*
X150530370Y-57281533D01*
X150340688Y-57429169D01*
X150340685Y-57429172D01*
X150340682Y-57429174D01*
X150340682Y-57429175D01*
X150310565Y-57461891D01*
X150177876Y-57606029D01*
X150177875Y-57606031D01*
X150160253Y-57633003D01*
X150107106Y-57678358D01*
X150037875Y-57687780D01*
X149974539Y-57658277D01*
X149952639Y-57633003D01*
X149942578Y-57617604D01*
X149935017Y-57606031D01*
X149772210Y-57429175D01*
X149772205Y-57429171D01*
X149772203Y-57429169D01*
X149582521Y-57281533D01*
X149582515Y-57281529D01*
X149371103Y-57167118D01*
X149371098Y-57167116D01*
X149143746Y-57089066D01*
X148965914Y-57059391D01*
X148906638Y-57049500D01*
X148666254Y-57049500D01*
X148618833Y-57057413D01*
X148429145Y-57089066D01*
X148201793Y-57167116D01*
X148201788Y-57167118D01*
X147990376Y-57281529D01*
X147990370Y-57281533D01*
X147800688Y-57429169D01*
X147800685Y-57429172D01*
X147800682Y-57429174D01*
X147800682Y-57429175D01*
X147770565Y-57461891D01*
X147637876Y-57606029D01*
X147637875Y-57606031D01*
X147620253Y-57633003D01*
X147567106Y-57678358D01*
X147497875Y-57687780D01*
X147434539Y-57658277D01*
X147412639Y-57633003D01*
X147402578Y-57617604D01*
X147395017Y-57606031D01*
X147232210Y-57429175D01*
X147232205Y-57429171D01*
X147232203Y-57429169D01*
X147042521Y-57281533D01*
X147042515Y-57281529D01*
X146831103Y-57167118D01*
X146831098Y-57167116D01*
X146603746Y-57089066D01*
X146425914Y-57059391D01*
X146366638Y-57049500D01*
X146126254Y-57049500D01*
X146078833Y-57057413D01*
X145889145Y-57089066D01*
X145661793Y-57167116D01*
X145661788Y-57167118D01*
X145450376Y-57281529D01*
X145450370Y-57281533D01*
X145260688Y-57429169D01*
X145260685Y-57429172D01*
X145260682Y-57429174D01*
X145260682Y-57429175D01*
X145230565Y-57461891D01*
X145097876Y-57606029D01*
X145097875Y-57606031D01*
X145080253Y-57633003D01*
X145027106Y-57678358D01*
X144957875Y-57687780D01*
X144894539Y-57658277D01*
X144872639Y-57633003D01*
X144862578Y-57617604D01*
X144855017Y-57606031D01*
X144692210Y-57429175D01*
X144692205Y-57429171D01*
X144692203Y-57429169D01*
X144502521Y-57281533D01*
X144502515Y-57281529D01*
X144291103Y-57167118D01*
X144291098Y-57167116D01*
X144063746Y-57089066D01*
X143885914Y-57059391D01*
X143826638Y-57049500D01*
X143586254Y-57049500D01*
X143538833Y-57057413D01*
X143349145Y-57089066D01*
X143121793Y-57167116D01*
X143121788Y-57167118D01*
X142910376Y-57281529D01*
X142910370Y-57281533D01*
X142738920Y-57414979D01*
X142673926Y-57440622D01*
X142605386Y-57427056D01*
X142555062Y-57378587D01*
X142548201Y-57364587D01*
X142540982Y-57347159D01*
X142444728Y-57221718D01*
X142319287Y-57125464D01*
X142173208Y-57064956D01*
X142173206Y-57064955D01*
X142055816Y-57049501D01*
X142055813Y-57049500D01*
X142055807Y-57049500D01*
X142055800Y-57049500D01*
X140277082Y-57049500D01*
X140159692Y-57064953D01*
X140159683Y-57064956D01*
X140013606Y-57125463D01*
X139888164Y-57221718D01*
X139791909Y-57347160D01*
X139731402Y-57493237D01*
X139731401Y-57493239D01*
X139715947Y-57610629D01*
X139715946Y-57610645D01*
X139715946Y-59389363D01*
X135563980Y-59389363D01*
X135586947Y-59382396D01*
X135752071Y-59294136D01*
X135896803Y-59175357D01*
X136015582Y-59030625D01*
X136103842Y-58865501D01*
X136158193Y-58686331D01*
X136176545Y-58500000D01*
X136158193Y-58313669D01*
X136158192Y-58313667D01*
X136158192Y-58313666D01*
X136131436Y-58225463D01*
X136103842Y-58134499D01*
X136072065Y-58075048D01*
X136015583Y-57969376D01*
X136015581Y-57969373D01*
X135896803Y-57824642D01*
X135752072Y-57705864D01*
X135752069Y-57705862D01*
X135586948Y-57617604D01*
X135407779Y-57563253D01*
X135407777Y-57563252D01*
X135221446Y-57544901D01*
X135035114Y-57563252D01*
X135035112Y-57563253D01*
X134855943Y-57617604D01*
X134690822Y-57705862D01*
X134690819Y-57705864D01*
X134546088Y-57824642D01*
X134427310Y-57969373D01*
X134427308Y-57969376D01*
X134339050Y-58134497D01*
X134284699Y-58313666D01*
X134284699Y-58313667D01*
X134278442Y-58377187D01*
X134252280Y-58441974D01*
X134242720Y-58452712D01*
X128706255Y-63989178D01*
X128644932Y-64022663D01*
X128575240Y-64017679D01*
X128519307Y-63975807D01*
X128514766Y-63969319D01*
X128395018Y-63786033D01*
X128395017Y-63786031D01*
X128232210Y-63609175D01*
X128102031Y-63507852D01*
X128061219Y-63451143D01*
X128057544Y-63381370D01*
X128092176Y-63320687D01*
X128102031Y-63312147D01*
X128232210Y-63210825D01*
X128395017Y-63033969D01*
X128526495Y-62832728D01*
X128623056Y-62612591D01*
X128682066Y-62379563D01*
X128701917Y-62140000D01*
X128682066Y-61900437D01*
X128623056Y-61667409D01*
X128526495Y-61447272D01*
X128395017Y-61246031D01*
X128335492Y-61181369D01*
X128304571Y-61118716D01*
X128312431Y-61049290D01*
X128356578Y-60995135D01*
X128379271Y-60982827D01*
X128384599Y-60980619D01*
X128399287Y-60974536D01*
X128524728Y-60878282D01*
X128620982Y-60752841D01*
X128681490Y-60606762D01*
X128696946Y-60489361D01*
X128696945Y-58710640D01*
X128696945Y-58710639D01*
X128696945Y-58710636D01*
X128681492Y-58593246D01*
X128681490Y-58593239D01*
X128681490Y-58593238D01*
X128620982Y-58447159D01*
X128524728Y-58321718D01*
X128399287Y-58225464D01*
X128253208Y-58164956D01*
X128253206Y-58164955D01*
X128135816Y-58149501D01*
X128135813Y-58149500D01*
X128135807Y-58149500D01*
X128135800Y-58149500D01*
X126357082Y-58149500D01*
X126239692Y-58164953D01*
X126239683Y-58164956D01*
X126093606Y-58225463D01*
X125968164Y-58321718D01*
X125871909Y-58447160D01*
X125811402Y-58593237D01*
X125811401Y-58593239D01*
X125795947Y-58710629D01*
X125795947Y-58710636D01*
X125795946Y-58710645D01*
X125795946Y-60489363D01*
X125811399Y-60606753D01*
X125811402Y-60606762D01*
X125871910Y-60752841D01*
X125968164Y-60878282D01*
X126093605Y-60974536D01*
X126110112Y-60981373D01*
X126113621Y-60982827D01*
X126168025Y-61026669D01*
X126190089Y-61092963D01*
X126172809Y-61160662D01*
X126157398Y-61181370D01*
X126097881Y-61246022D01*
X126097873Y-61246033D01*
X125966397Y-61447270D01*
X125869835Y-61667410D01*
X125810825Y-61900440D01*
X125790975Y-62139994D01*
X125790975Y-62140005D01*
X125810825Y-62379559D01*
X125869835Y-62612589D01*
X125966397Y-62832729D01*
X126038062Y-62942419D01*
X126097875Y-63033969D01*
X126260682Y-63210825D01*
X126331590Y-63266014D01*
X126390860Y-63312147D01*
X126431673Y-63368857D01*
X126435347Y-63438630D01*
X126400715Y-63499313D01*
X126390860Y-63507853D01*
X126260684Y-63609173D01*
X126097876Y-63786029D01*
X126097873Y-63786033D01*
X125966397Y-63987270D01*
X125869835Y-64207410D01*
X125810825Y-64440440D01*
X125790975Y-64679994D01*
X125790975Y-64680005D01*
X125810825Y-64919559D01*
X125869835Y-65152589D01*
X125966397Y-65372729D01*
X125991558Y-65411240D01*
X126097875Y-65573969D01*
X126260682Y-65750825D01*
X126331590Y-65806014D01*
X126390860Y-65852147D01*
X126431673Y-65908857D01*
X126435347Y-65978630D01*
X126400715Y-66039313D01*
X126390860Y-66047853D01*
X126260684Y-66149173D01*
X126097876Y-66326029D01*
X126097873Y-66326033D01*
X125966397Y-66527270D01*
X125869835Y-66747410D01*
X125810825Y-66980440D01*
X125790975Y-67219994D01*
X125790975Y-67220005D01*
X125810825Y-67459559D01*
X125869835Y-67692589D01*
X125966397Y-67912729D01*
X126040769Y-68026562D01*
X126097875Y-68113969D01*
X126260682Y-68290825D01*
X126260685Y-68290827D01*
X126260688Y-68290830D01*
X126450370Y-68438466D01*
X126450380Y-68438473D01*
X126456303Y-68441677D01*
X126459870Y-68443608D01*
X126509463Y-68492826D01*
X126524574Y-68561042D01*
X126500405Y-68626598D01*
X126471981Y-68654239D01*
X126375375Y-68721883D01*
X126375366Y-68721891D01*
X126208337Y-68888920D01*
X126208332Y-68888926D01*
X126072846Y-69082420D01*
X126072845Y-69082422D01*
X125973016Y-69296507D01*
X125973012Y-69296516D01*
X125929207Y-69459999D01*
X125929208Y-69460000D01*
X126844892Y-69460000D01*
X126786953Y-69550156D01*
X126746446Y-69688111D01*
X126746446Y-69831889D01*
X126786953Y-69969844D01*
X126844892Y-70060000D01*
X125929208Y-70060000D01*
X125973012Y-70223483D01*
X125973016Y-70223492D01*
X126072845Y-70437578D01*
X126208340Y-70631082D01*
X126375363Y-70798105D01*
X126568867Y-70933600D01*
X126782953Y-71033429D01*
X126782962Y-71033433D01*
X126946445Y-71077238D01*
X126946446Y-71077237D01*
X126946446Y-70161643D01*
X126973346Y-70184952D01*
X127104131Y-70244680D01*
X127210683Y-70260000D01*
X127282209Y-70260000D01*
X127388761Y-70244680D01*
X127519546Y-70184952D01*
X127546446Y-70161643D01*
X127546446Y-71077238D01*
X127709929Y-71033433D01*
X127709938Y-71033429D01*
X127924024Y-70933600D01*
X128121958Y-70795004D01*
X128122644Y-70795984D01*
X128181235Y-70770335D01*
X128250228Y-70781367D01*
X128302305Y-70827949D01*
X128320946Y-70893336D01*
X128320946Y-91048125D01*
X128301261Y-91115164D01*
X128284627Y-91135806D01*
X121799158Y-97621274D01*
X121737835Y-97654759D01*
X121723633Y-97656996D01*
X121660113Y-97663253D01*
X121660112Y-97663253D01*
X121480943Y-97717604D01*
X121315822Y-97805862D01*
X121315819Y-97805864D01*
X121171088Y-97924642D01*
X121052310Y-98069373D01*
X121052308Y-98069376D01*
X120964050Y-98234497D01*
X120909699Y-98413666D01*
X120909698Y-98413668D01*
X120891347Y-98600000D01*
X111600000Y-98600000D01*
X111600000Y-95099999D01*
X114771447Y-95099999D01*
X114771447Y-95199985D01*
X114781940Y-95302696D01*
X114837087Y-95469118D01*
X114837089Y-95469123D01*
X114929130Y-95618344D01*
X115053100Y-95742314D01*
X115202321Y-95834355D01*
X115202326Y-95834357D01*
X115368748Y-95889504D01*
X115368755Y-95889505D01*
X115471465Y-95899998D01*
X115846445Y-95899998D01*
X115846446Y-95899997D01*
X115846446Y-95099999D01*
X114771447Y-95099999D01*
X111600000Y-95099999D01*
X111600000Y-92911242D01*
X114670946Y-92911242D01*
X114711828Y-93129939D01*
X114792198Y-93337397D01*
X114792200Y-93337403D01*
X114909320Y-93526559D01*
X114909322Y-93526561D01*
X115056028Y-93687491D01*
X115086645Y-93750295D01*
X115078447Y-93819682D01*
X115052073Y-93858710D01*
X114929128Y-93981656D01*
X114837089Y-94130874D01*
X114837087Y-94130879D01*
X114781940Y-94297301D01*
X114781939Y-94297308D01*
X114771446Y-94400012D01*
X114771446Y-94499999D01*
X115912915Y-94499999D01*
X115828168Y-94592058D01*
X115777895Y-94706669D01*
X115767560Y-94831394D01*
X115798283Y-94952718D01*
X115866735Y-95057491D01*
X115965498Y-95134362D01*
X116083870Y-95174999D01*
X116177519Y-95174999D01*
X116269892Y-95159585D01*
X116379960Y-95100018D01*
X116379977Y-95099999D01*
X116446446Y-95099999D01*
X116446446Y-95899998D01*
X116821418Y-95899998D01*
X116821432Y-95899997D01*
X116924143Y-95889504D01*
X117090565Y-95834357D01*
X117090570Y-95834355D01*
X117239791Y-95742314D01*
X117363761Y-95618344D01*
X117455802Y-95469123D01*
X117455804Y-95469118D01*
X117510951Y-95302696D01*
X117510952Y-95302689D01*
X117521445Y-95199985D01*
X117521446Y-95199972D01*
X117521446Y-95099999D01*
X116446446Y-95099999D01*
X116379977Y-95099999D01*
X116464724Y-95007940D01*
X116514997Y-94893329D01*
X116525332Y-94768604D01*
X116494609Y-94647280D01*
X116426157Y-94542507D01*
X116371543Y-94499999D01*
X117521445Y-94499999D01*
X117521445Y-94400027D01*
X117521444Y-94400012D01*
X117510951Y-94297301D01*
X117455804Y-94130879D01*
X117455802Y-94130874D01*
X117363761Y-93981653D01*
X117240818Y-93858710D01*
X117207333Y-93797387D01*
X117212317Y-93727695D01*
X117236858Y-93687495D01*
X117383570Y-93526561D01*
X117500693Y-93337400D01*
X117581064Y-93129939D01*
X117621946Y-92911242D01*
X117621946Y-92688756D01*
X117581064Y-92470059D01*
X117500693Y-92262598D01*
X117447361Y-92176464D01*
X117383571Y-92073438D01*
X117383569Y-92073436D01*
X117233684Y-91909019D01*
X117056137Y-91774942D01*
X117056129Y-91774937D01*
X116856984Y-91675774D01*
X116856969Y-91675768D01*
X116642983Y-91614884D01*
X116642981Y-91614883D01*
X116525099Y-91603960D01*
X116476949Y-91599499D01*
X115815943Y-91599499D01*
X115771047Y-91603659D01*
X115649910Y-91614883D01*
X115649908Y-91614884D01*
X115435922Y-91675768D01*
X115435907Y-91675774D01*
X115236762Y-91774937D01*
X115236754Y-91774942D01*
X115059207Y-91909019D01*
X114909322Y-92073436D01*
X114909320Y-92073438D01*
X114792200Y-92262594D01*
X114792198Y-92262600D01*
X114768204Y-92324536D01*
X114711828Y-92470059D01*
X114670946Y-92688756D01*
X114670946Y-92911242D01*
X111600000Y-92911242D01*
X111600000Y-91000006D01*
X122621146Y-91000006D01*
X122640310Y-91231297D01*
X122640312Y-91231308D01*
X122697288Y-91456300D01*
X122790521Y-91668848D01*
X122917462Y-91863147D01*
X122917465Y-91863151D01*
X122917467Y-91863153D01*
X123074662Y-92033913D01*
X123074665Y-92033915D01*
X123074668Y-92033918D01*
X123257811Y-92176464D01*
X123257817Y-92176468D01*
X123257820Y-92176470D01*
X123461943Y-92286936D01*
X123571468Y-92324536D01*
X123681461Y-92362297D01*
X123681463Y-92362297D01*
X123681465Y-92362298D01*
X123910397Y-92400500D01*
X123910398Y-92400500D01*
X124142494Y-92400500D01*
X124142495Y-92400500D01*
X124371427Y-92362298D01*
X124590949Y-92286936D01*
X124795072Y-92176470D01*
X124978230Y-92033913D01*
X125135425Y-91863153D01*
X125262370Y-91668849D01*
X125355603Y-91456300D01*
X125412580Y-91231305D01*
X125414951Y-91202689D01*
X125431746Y-91000006D01*
X125431746Y-90999993D01*
X125412581Y-90768702D01*
X125412579Y-90768691D01*
X125355603Y-90543699D01*
X125262370Y-90331151D01*
X125135429Y-90136852D01*
X125135426Y-90136849D01*
X125135425Y-90136847D01*
X124978230Y-89966087D01*
X124800626Y-89827853D01*
X124759814Y-89771143D01*
X124756139Y-89701370D01*
X124790770Y-89640687D01*
X124800627Y-89632146D01*
X124822713Y-89614956D01*
X124978230Y-89493913D01*
X125135425Y-89323153D01*
X125262370Y-89128849D01*
X125355603Y-88916300D01*
X125412580Y-88691305D01*
X125412581Y-88691297D01*
X125431746Y-88460006D01*
X125431746Y-88459993D01*
X125412581Y-88228702D01*
X125412579Y-88228691D01*
X125355603Y-88003699D01*
X125262370Y-87791151D01*
X125135429Y-87596852D01*
X125135426Y-87596849D01*
X125135425Y-87596847D01*
X124978230Y-87426087D01*
X124800626Y-87287853D01*
X124759814Y-87231143D01*
X124756139Y-87161370D01*
X124790770Y-87100687D01*
X124800627Y-87092146D01*
X124978230Y-86953913D01*
X125135425Y-86783153D01*
X125262370Y-86588849D01*
X125355603Y-86376300D01*
X125412580Y-86151305D01*
X125416446Y-86104648D01*
X125431746Y-85920006D01*
X125431746Y-85919993D01*
X125412581Y-85688702D01*
X125412579Y-85688691D01*
X125355603Y-85463699D01*
X125262370Y-85251151D01*
X125135429Y-85056852D01*
X125135426Y-85056849D01*
X125135425Y-85056847D01*
X124978230Y-84886087D01*
X124800626Y-84747853D01*
X124759814Y-84691143D01*
X124756139Y-84621370D01*
X124790770Y-84560687D01*
X124800627Y-84552146D01*
X124978230Y-84413913D01*
X125135425Y-84243153D01*
X125262370Y-84048849D01*
X125355603Y-83836300D01*
X125412580Y-83611305D01*
X125415640Y-83574374D01*
X125431746Y-83380006D01*
X125431746Y-83379993D01*
X125412581Y-83148702D01*
X125412579Y-83148691D01*
X125355603Y-82923699D01*
X125262370Y-82711151D01*
X125135429Y-82516852D01*
X125135426Y-82516849D01*
X125135425Y-82516847D01*
X124978230Y-82346087D01*
X124978225Y-82346083D01*
X124978223Y-82346081D01*
X124795080Y-82203535D01*
X124795074Y-82203531D01*
X124590950Y-82093064D01*
X124590941Y-82093061D01*
X124371430Y-82017702D01*
X124199728Y-81989050D01*
X124142495Y-81979500D01*
X123910397Y-81979500D01*
X123864610Y-81987140D01*
X123681461Y-82017702D01*
X123461950Y-82093061D01*
X123461941Y-82093064D01*
X123257817Y-82203531D01*
X123257811Y-82203535D01*
X123074668Y-82346081D01*
X123074665Y-82346084D01*
X122917462Y-82516852D01*
X122790521Y-82711151D01*
X122697288Y-82923699D01*
X122640312Y-83148691D01*
X122640310Y-83148702D01*
X122621146Y-83379993D01*
X122621146Y-83380006D01*
X122640310Y-83611297D01*
X122640312Y-83611308D01*
X122697288Y-83836300D01*
X122790521Y-84048848D01*
X122917462Y-84243147D01*
X122917465Y-84243151D01*
X122917467Y-84243153D01*
X123074662Y-84413913D01*
X123074665Y-84413915D01*
X123074668Y-84413918D01*
X123252264Y-84552147D01*
X123293077Y-84608857D01*
X123296752Y-84678630D01*
X123262120Y-84739313D01*
X123252264Y-84747853D01*
X123074668Y-84886081D01*
X123074665Y-84886084D01*
X123074662Y-84886086D01*
X123074662Y-84886087D01*
X123062651Y-84899135D01*
X122917462Y-85056852D01*
X122790521Y-85251151D01*
X122697288Y-85463699D01*
X122640312Y-85688691D01*
X122640310Y-85688702D01*
X122621146Y-85919993D01*
X122621146Y-85920006D01*
X122640310Y-86151297D01*
X122640312Y-86151308D01*
X122697288Y-86376300D01*
X122790521Y-86588848D01*
X122917462Y-86783147D01*
X122917465Y-86783151D01*
X122917467Y-86783153D01*
X123074662Y-86953913D01*
X123074665Y-86953915D01*
X123074668Y-86953918D01*
X123252264Y-87092147D01*
X123293077Y-87148857D01*
X123296752Y-87218630D01*
X123262120Y-87279313D01*
X123252264Y-87287853D01*
X123074668Y-87426081D01*
X123074665Y-87426084D01*
X123074662Y-87426086D01*
X123074662Y-87426087D01*
X123074226Y-87426561D01*
X122917462Y-87596852D01*
X122790521Y-87791151D01*
X122697288Y-88003699D01*
X122640312Y-88228691D01*
X122640310Y-88228702D01*
X122621146Y-88459993D01*
X122621146Y-88460006D01*
X122640310Y-88691297D01*
X122640312Y-88691308D01*
X122697288Y-88916300D01*
X122790521Y-89128848D01*
X122917462Y-89323147D01*
X122917465Y-89323151D01*
X122917467Y-89323153D01*
X123074662Y-89493913D01*
X123074665Y-89493915D01*
X123074668Y-89493918D01*
X123252264Y-89632147D01*
X123293077Y-89688857D01*
X123296752Y-89758630D01*
X123262120Y-89819313D01*
X123252264Y-89827853D01*
X123074668Y-89966081D01*
X123074665Y-89966084D01*
X122917462Y-90136852D01*
X122790521Y-90331151D01*
X122697288Y-90543699D01*
X122640312Y-90768691D01*
X122640310Y-90768702D01*
X122621146Y-90999993D01*
X122621146Y-91000006D01*
X111600000Y-91000006D01*
X111600000Y-78100000D01*
X115471447Y-78100000D01*
X115471447Y-78199986D01*
X115481940Y-78302697D01*
X115537087Y-78469119D01*
X115537089Y-78469124D01*
X115629130Y-78618345D01*
X115753100Y-78742315D01*
X115902321Y-78834356D01*
X115902326Y-78834358D01*
X116068748Y-78889505D01*
X116068755Y-78889506D01*
X116171465Y-78899999D01*
X116546445Y-78899999D01*
X116546446Y-78899998D01*
X116546446Y-78100000D01*
X115471447Y-78100000D01*
X111600000Y-78100000D01*
X111600000Y-75911243D01*
X115370946Y-75911243D01*
X115411828Y-76129940D01*
X115492198Y-76337398D01*
X115492200Y-76337404D01*
X115609320Y-76526560D01*
X115609322Y-76526562D01*
X115756028Y-76687492D01*
X115786645Y-76750296D01*
X115778447Y-76819683D01*
X115752073Y-76858711D01*
X115629128Y-76981657D01*
X115537089Y-77130875D01*
X115537087Y-77130880D01*
X115481940Y-77297302D01*
X115481939Y-77297309D01*
X115471446Y-77400013D01*
X115471446Y-77500000D01*
X116612915Y-77500000D01*
X116528168Y-77592059D01*
X116477895Y-77706670D01*
X116467560Y-77831395D01*
X116498283Y-77952719D01*
X116566735Y-78057492D01*
X116665498Y-78134363D01*
X116783870Y-78175000D01*
X116877519Y-78175000D01*
X116969892Y-78159586D01*
X117079960Y-78100019D01*
X117079977Y-78100000D01*
X117146446Y-78100000D01*
X117146446Y-78899999D01*
X117521418Y-78899999D01*
X117521432Y-78899998D01*
X117624143Y-78889505D01*
X117790565Y-78834358D01*
X117790570Y-78834356D01*
X117939791Y-78742315D01*
X118063761Y-78618345D01*
X118155802Y-78469124D01*
X118155804Y-78469119D01*
X118210951Y-78302697D01*
X118210952Y-78302690D01*
X118221445Y-78199986D01*
X118221446Y-78199973D01*
X118221446Y-78100000D01*
X117146446Y-78100000D01*
X117079977Y-78100000D01*
X117164724Y-78007941D01*
X117214997Y-77893330D01*
X117225332Y-77768605D01*
X117194609Y-77647281D01*
X117126157Y-77542508D01*
X117071543Y-77500000D01*
X118221445Y-77500000D01*
X118221445Y-77400028D01*
X118221444Y-77400013D01*
X118210951Y-77297302D01*
X118155804Y-77130880D01*
X118155802Y-77130875D01*
X118063761Y-76981654D01*
X117940818Y-76858711D01*
X117907333Y-76797388D01*
X117912317Y-76727696D01*
X117936858Y-76687496D01*
X118083570Y-76526562D01*
X118200693Y-76337401D01*
X118281064Y-76129940D01*
X118321946Y-75911243D01*
X118321946Y-75688757D01*
X118281064Y-75470060D01*
X118200693Y-75262599D01*
X118167518Y-75209020D01*
X118083571Y-75073439D01*
X118083569Y-75073437D01*
X117933688Y-74909025D01*
X117933685Y-74909022D01*
X117933682Y-74909019D01*
X117920352Y-74898953D01*
X117878717Y-74842847D01*
X117874024Y-74773135D01*
X117907765Y-74711953D01*
X117920352Y-74701047D01*
X117933682Y-74690981D01*
X118083570Y-74526562D01*
X118200693Y-74337401D01*
X118281064Y-74129940D01*
X118321946Y-73911243D01*
X118321946Y-73688757D01*
X118281064Y-73470060D01*
X118200693Y-73262599D01*
X118083570Y-73073438D01*
X118072312Y-73061088D01*
X117933684Y-72909020D01*
X117756137Y-72774943D01*
X117756129Y-72774938D01*
X117556984Y-72675775D01*
X117556969Y-72675769D01*
X117342983Y-72614885D01*
X117342981Y-72614884D01*
X117225099Y-72603961D01*
X117176949Y-72599500D01*
X116515943Y-72599500D01*
X116471047Y-72603660D01*
X116349910Y-72614884D01*
X116349908Y-72614885D01*
X116135922Y-72675769D01*
X116135907Y-72675775D01*
X115936762Y-72774938D01*
X115936754Y-72774943D01*
X115759207Y-72909020D01*
X115609322Y-73073437D01*
X115609320Y-73073439D01*
X115492200Y-73262595D01*
X115492199Y-73262599D01*
X115411828Y-73470060D01*
X115370946Y-73688757D01*
X115370946Y-73911243D01*
X115411828Y-74129940D01*
X115492198Y-74337398D01*
X115492200Y-74337404D01*
X115609320Y-74526560D01*
X115609322Y-74526562D01*
X115759208Y-74690980D01*
X115772539Y-74701047D01*
X115814174Y-74757156D01*
X115818865Y-74826868D01*
X115785122Y-74888050D01*
X115772539Y-74898953D01*
X115759208Y-74909019D01*
X115609322Y-75073437D01*
X115609320Y-75073439D01*
X115492200Y-75262595D01*
X115492199Y-75262599D01*
X115411828Y-75470060D01*
X115370946Y-75688757D01*
X115370946Y-75911243D01*
X111600000Y-75911243D01*
X111600000Y-52600000D01*
X129271446Y-52600000D01*
X129271446Y-52775357D01*
X129286275Y-52925932D01*
X129344889Y-53119154D01*
X129440061Y-53297209D01*
X129440066Y-53297215D01*
X129568153Y-53453292D01*
X129724230Y-53581379D01*
X129724236Y-53581384D01*
X129902289Y-53676555D01*
X129902292Y-53676556D01*
X129996446Y-53705117D01*
X129996446Y-52600000D01*
X129271446Y-52600000D01*
X111600000Y-52600000D01*
X111600000Y-51624000D01*
X111619685Y-51556961D01*
X111672489Y-51511206D01*
X111724000Y-51500000D01*
X129171883Y-51500000D01*
X129238922Y-51519685D01*
G37*
%TD.AperFunction*%
%TD*%
M02*
