%TF.GenerationSoftware,KiCad,Pcbnew,7.0.10*%
%TF.CreationDate,2024-07-04T11:23:38+05:30*%
%TF.ProjectId,Drive_Node,44726976-655f-44e6-9f64-652e6b696361,rev?*%
%TF.SameCoordinates,Original*%
%TF.FileFunction,Paste,Top*%
%TF.FilePolarity,Positive*%
%FSLAX46Y46*%
G04 Gerber Fmt 4.6, Leading zero omitted, Abs format (unit mm)*
G04 Created by KiCad (PCBNEW 7.0.10) date 2024-07-04 11:23:38*
%MOMM*%
%LPD*%
G01*
G04 APERTURE LIST*
G04 Aperture macros list*
%AMRoundRect*
0 Rectangle with rounded corners*
0 $1 Rounding radius*
0 $2 $3 $4 $5 $6 $7 $8 $9 X,Y pos of 4 corners*
0 Add a 4 corners polygon primitive as box body*
4,1,4,$2,$3,$4,$5,$6,$7,$8,$9,$2,$3,0*
0 Add four circle primitives for the rounded corners*
1,1,$1+$1,$2,$3*
1,1,$1+$1,$4,$5*
1,1,$1+$1,$6,$7*
1,1,$1+$1,$8,$9*
0 Add four rect primitives between the rounded corners*
20,1,$1+$1,$2,$3,$4,$5,0*
20,1,$1+$1,$4,$5,$6,$7,0*
20,1,$1+$1,$6,$7,$8,$9,0*
20,1,$1+$1,$8,$9,$2,$3,0*%
G04 Aperture macros list end*
%ADD10RoundRect,0.067500X0.067500X-0.067500X0.067500X0.067500X-0.067500X0.067500X-0.067500X-0.067500X0*%
%ADD11RoundRect,0.067500X0.000000X0.095459X-0.095459X0.000000X0.000000X-0.095459X0.095459X0.000000X0*%
%ADD12RoundRect,0.067500X0.095459X0.000000X0.000000X0.095459X-0.095459X0.000000X0.000000X-0.095459X0*%
%ADD13RoundRect,0.067500X0.000000X-0.095459X0.095459X0.000000X0.000000X0.095459X-0.095459X0.000000X0*%
%ADD14RoundRect,0.067500X-0.067500X-0.067500X0.067500X-0.067500X0.067500X0.067500X-0.067500X0.067500X0*%
%ADD15RoundRect,0.067500X-0.095459X0.000000X0.000000X-0.095459X0.095459X0.000000X0.000000X0.095459X0*%
%ADD16RoundRect,0.218750X-0.256250X0.218750X-0.256250X-0.218750X0.256250X-0.218750X0.256250X0.218750X0*%
%ADD17RoundRect,0.500000X3.881500X0.500000X-3.881500X0.500000X-3.881500X-0.500000X3.881500X-0.500000X0*%
%ADD18R,0.400000X1.400000*%
%ADD19R,1.150000X1.450000*%
%ADD20R,1.750000X1.900000*%
%ADD21RoundRect,0.075000X0.521491X-0.415425X-0.415425X0.521491X-0.521491X0.415425X0.415425X-0.521491X0*%
%ADD22RoundRect,0.075000X0.521491X0.415425X0.415425X0.521491X-0.521491X-0.415425X-0.415425X-0.521491X0*%
%ADD23R,2.000000X1.500000*%
%ADD24R,2.000000X3.800000*%
G04 APERTURE END LIST*
D10*
%TO.C,C1*%
X121846446Y-87574999D03*
X121846446Y-87024999D03*
%TD*%
D11*
%TO.C,C2*%
X154340900Y-85705546D03*
X153951992Y-86094454D03*
%TD*%
D12*
%TO.C,C3*%
X143635354Y-87588908D03*
X143246446Y-87200000D03*
%TD*%
D13*
%TO.C,C4*%
X151251993Y-88794453D03*
X151640901Y-88405545D03*
%TD*%
D11*
%TO.C,C5*%
X150940900Y-84105546D03*
X150551992Y-84494454D03*
%TD*%
%TO.C,C6*%
X152940900Y-87105546D03*
X152551992Y-87494454D03*
%TD*%
D13*
%TO.C,C7*%
X140251992Y-79094453D03*
X140640900Y-78705545D03*
%TD*%
D12*
%TO.C,C8*%
X144140900Y-86994453D03*
X143751992Y-86605545D03*
%TD*%
D11*
%TO.C,C9*%
X148117677Y-86928769D03*
X147728769Y-87317677D03*
%TD*%
D14*
%TO.C,C10*%
X132621446Y-99099999D03*
X133171446Y-99099999D03*
%TD*%
D10*
%TO.C,C11*%
X143046447Y-94250000D03*
X143046447Y-93700000D03*
%TD*%
D15*
%TO.C,C12*%
X148157539Y-75111092D03*
X148546447Y-75500000D03*
%TD*%
D16*
%TO.C,D1*%
X129746446Y-94000000D03*
X129746446Y-95575000D03*
%TD*%
%TO.C,D3*%
X158946446Y-52312500D03*
X158946446Y-53887500D03*
%TD*%
%TO.C,D4*%
X156346446Y-52324999D03*
X156346446Y-53899999D03*
%TD*%
%TO.C,D5*%
X153646446Y-52325000D03*
X153646446Y-53900000D03*
%TD*%
%TO.C,D6*%
X151246446Y-53912500D03*
X151246446Y-52337500D03*
%TD*%
%TO.C,D7*%
X158746446Y-72012500D03*
X158746446Y-73587500D03*
%TD*%
%TO.C,D8*%
X148646446Y-53900000D03*
X148646446Y-52325000D03*
%TD*%
D10*
%TO.C,R1*%
X133346446Y-57675000D03*
X133346446Y-57125000D03*
%TD*%
%TO.C,R2*%
X122146446Y-91525000D03*
X122146446Y-90975000D03*
%TD*%
%TO.C,R3*%
X127246446Y-96025000D03*
X127246446Y-95475000D03*
%TD*%
%TO.C,R4*%
X122546446Y-87624999D03*
X122546446Y-87074999D03*
%TD*%
D14*
%TO.C,R5*%
X158121446Y-78900000D03*
X158671446Y-78900000D03*
%TD*%
D10*
%TO.C,R6*%
X158906446Y-56060000D03*
X158906446Y-55510000D03*
%TD*%
%TO.C,R7*%
X156306446Y-56059999D03*
X156306446Y-55509999D03*
%TD*%
%TO.C,R8*%
X153706446Y-55535000D03*
X153706446Y-56085000D03*
%TD*%
%TO.C,R9*%
X151306446Y-55534999D03*
X151306446Y-56084999D03*
%TD*%
%TO.C,R10*%
X148706446Y-56060000D03*
X148706446Y-55510000D03*
%TD*%
D17*
%TO.C,J12*%
X116846446Y-101900000D03*
X116846446Y-99360000D03*
%TD*%
D18*
%TO.C,J13*%
X135171446Y-54950000D03*
X134521446Y-54950000D03*
X133871446Y-54950000D03*
X133221446Y-54950000D03*
X132571446Y-54950000D03*
D19*
X136191446Y-54530000D03*
D20*
X134996446Y-52300000D03*
X132746446Y-52300000D03*
D19*
X131551446Y-54530000D03*
%TD*%
D17*
%TO.C,J1*%
X116946446Y-88540000D03*
X116946446Y-86000000D03*
%TD*%
D21*
%TO.C,U1*%
X147145234Y-85987876D03*
X147498788Y-85634322D03*
X147852341Y-85280769D03*
X148205895Y-84927215D03*
X148559448Y-84573662D03*
X148913001Y-84220109D03*
X149266555Y-83866555D03*
X149620108Y-83513002D03*
X149973661Y-83159449D03*
X150327215Y-82805895D03*
X150680768Y-82452342D03*
X151034322Y-82098788D03*
D22*
X151034322Y-80101212D03*
X150680768Y-79747658D03*
X150327215Y-79394105D03*
X149973661Y-79040551D03*
X149620108Y-78686998D03*
X149266555Y-78333445D03*
X148913001Y-77979891D03*
X148559448Y-77626338D03*
X148205895Y-77272785D03*
X147852341Y-76919231D03*
X147498788Y-76565678D03*
X147145234Y-76212124D03*
D21*
X145147658Y-76212124D03*
X144794104Y-76565678D03*
X144440551Y-76919231D03*
X144086997Y-77272785D03*
X143733444Y-77626338D03*
X143379891Y-77979891D03*
X143026337Y-78333445D03*
X142672784Y-78686998D03*
X142319231Y-79040551D03*
X141965677Y-79394105D03*
X141612124Y-79747658D03*
X141258570Y-80101212D03*
D22*
X141258570Y-82098788D03*
X141612124Y-82452342D03*
X141965677Y-82805895D03*
X142319231Y-83159449D03*
X142672784Y-83513002D03*
X143026337Y-83866555D03*
X143379891Y-84220109D03*
X143733444Y-84573662D03*
X144086997Y-84927215D03*
X144440551Y-85280769D03*
X144794104Y-85634322D03*
X145147658Y-85987876D03*
%TD*%
D23*
%TO.C,U2*%
X135046446Y-94499999D03*
X135046446Y-96799999D03*
D24*
X141346446Y-96799999D03*
D23*
X135046446Y-99099999D03*
%TD*%
M02*
