%TF.GenerationSoftware,KiCad,Pcbnew,7.0.10*%
%TF.CreationDate,2024-07-04T11:23:38+05:30*%
%TF.ProjectId,Drive_Node,44726976-655f-44e6-9f64-652e6b696361,rev?*%
%TF.SameCoordinates,Original*%
%TF.FileFunction,Legend,Top*%
%TF.FilePolarity,Positive*%
%FSLAX46Y46*%
G04 Gerber Fmt 4.6, Leading zero omitted, Abs format (unit mm)*
G04 Created by KiCad (PCBNEW 7.0.10) date 2024-07-04 11:23:38*
%MOMM*%
%LPD*%
G01*
G04 APERTURE LIST*
%ADD10C,0.250000*%
%ADD11C,0.150000*%
%ADD12C,0.100000*%
%ADD13C,0.120000*%
G04 APERTURE END LIST*
D10*
X112602568Y-106588428D02*
X112602568Y-105088428D01*
X112602568Y-105088428D02*
X112840663Y-105088428D01*
X112840663Y-105088428D02*
X112983520Y-105159857D01*
X112983520Y-105159857D02*
X113078758Y-105302714D01*
X113078758Y-105302714D02*
X113126377Y-105445571D01*
X113126377Y-105445571D02*
X113173996Y-105731285D01*
X113173996Y-105731285D02*
X113173996Y-105945571D01*
X113173996Y-105945571D02*
X113126377Y-106231285D01*
X113126377Y-106231285D02*
X113078758Y-106374142D01*
X113078758Y-106374142D02*
X112983520Y-106517000D01*
X112983520Y-106517000D02*
X112840663Y-106588428D01*
X112840663Y-106588428D02*
X112602568Y-106588428D01*
X113602568Y-106588428D02*
X113602568Y-105588428D01*
X113602568Y-105874142D02*
X113650187Y-105731285D01*
X113650187Y-105731285D02*
X113697806Y-105659857D01*
X113697806Y-105659857D02*
X113793044Y-105588428D01*
X113793044Y-105588428D02*
X113888282Y-105588428D01*
X114221616Y-106588428D02*
X114221616Y-105588428D01*
X114221616Y-105088428D02*
X114173997Y-105159857D01*
X114173997Y-105159857D02*
X114221616Y-105231285D01*
X114221616Y-105231285D02*
X114269235Y-105159857D01*
X114269235Y-105159857D02*
X114221616Y-105088428D01*
X114221616Y-105088428D02*
X114221616Y-105231285D01*
X114602568Y-105588428D02*
X114840663Y-106588428D01*
X114840663Y-106588428D02*
X115078758Y-105588428D01*
X115840663Y-106517000D02*
X115745425Y-106588428D01*
X115745425Y-106588428D02*
X115554949Y-106588428D01*
X115554949Y-106588428D02*
X115459711Y-106517000D01*
X115459711Y-106517000D02*
X115412092Y-106374142D01*
X115412092Y-106374142D02*
X115412092Y-105802714D01*
X115412092Y-105802714D02*
X115459711Y-105659857D01*
X115459711Y-105659857D02*
X115554949Y-105588428D01*
X115554949Y-105588428D02*
X115745425Y-105588428D01*
X115745425Y-105588428D02*
X115840663Y-105659857D01*
X115840663Y-105659857D02*
X115888282Y-105802714D01*
X115888282Y-105802714D02*
X115888282Y-105945571D01*
X115888282Y-105945571D02*
X115412092Y-106088428D01*
X117078759Y-106588428D02*
X117078759Y-105088428D01*
X117078759Y-105088428D02*
X117650187Y-106588428D01*
X117650187Y-106588428D02*
X117650187Y-105088428D01*
X118269235Y-106588428D02*
X118173997Y-106517000D01*
X118173997Y-106517000D02*
X118126378Y-106445571D01*
X118126378Y-106445571D02*
X118078759Y-106302714D01*
X118078759Y-106302714D02*
X118078759Y-105874142D01*
X118078759Y-105874142D02*
X118126378Y-105731285D01*
X118126378Y-105731285D02*
X118173997Y-105659857D01*
X118173997Y-105659857D02*
X118269235Y-105588428D01*
X118269235Y-105588428D02*
X118412092Y-105588428D01*
X118412092Y-105588428D02*
X118507330Y-105659857D01*
X118507330Y-105659857D02*
X118554949Y-105731285D01*
X118554949Y-105731285D02*
X118602568Y-105874142D01*
X118602568Y-105874142D02*
X118602568Y-106302714D01*
X118602568Y-106302714D02*
X118554949Y-106445571D01*
X118554949Y-106445571D02*
X118507330Y-106517000D01*
X118507330Y-106517000D02*
X118412092Y-106588428D01*
X118412092Y-106588428D02*
X118269235Y-106588428D01*
X119459711Y-106588428D02*
X119459711Y-105088428D01*
X119459711Y-106517000D02*
X119364473Y-106588428D01*
X119364473Y-106588428D02*
X119173997Y-106588428D01*
X119173997Y-106588428D02*
X119078759Y-106517000D01*
X119078759Y-106517000D02*
X119031140Y-106445571D01*
X119031140Y-106445571D02*
X118983521Y-106302714D01*
X118983521Y-106302714D02*
X118983521Y-105874142D01*
X118983521Y-105874142D02*
X119031140Y-105731285D01*
X119031140Y-105731285D02*
X119078759Y-105659857D01*
X119078759Y-105659857D02*
X119173997Y-105588428D01*
X119173997Y-105588428D02*
X119364473Y-105588428D01*
X119364473Y-105588428D02*
X119459711Y-105659857D01*
X120316854Y-106517000D02*
X120221616Y-106588428D01*
X120221616Y-106588428D02*
X120031140Y-106588428D01*
X120031140Y-106588428D02*
X119935902Y-106517000D01*
X119935902Y-106517000D02*
X119888283Y-106374142D01*
X119888283Y-106374142D02*
X119888283Y-105802714D01*
X119888283Y-105802714D02*
X119935902Y-105659857D01*
X119935902Y-105659857D02*
X120031140Y-105588428D01*
X120031140Y-105588428D02*
X120221616Y-105588428D01*
X120221616Y-105588428D02*
X120316854Y-105659857D01*
X120316854Y-105659857D02*
X120364473Y-105802714D01*
X120364473Y-105802714D02*
X120364473Y-105945571D01*
X120364473Y-105945571D02*
X119888283Y-106088428D01*
X121507331Y-105231285D02*
X121554950Y-105159857D01*
X121554950Y-105159857D02*
X121650188Y-105088428D01*
X121650188Y-105088428D02*
X121888283Y-105088428D01*
X121888283Y-105088428D02*
X121983521Y-105159857D01*
X121983521Y-105159857D02*
X122031140Y-105231285D01*
X122031140Y-105231285D02*
X122078759Y-105374142D01*
X122078759Y-105374142D02*
X122078759Y-105517000D01*
X122078759Y-105517000D02*
X122031140Y-105731285D01*
X122031140Y-105731285D02*
X121459712Y-106588428D01*
X121459712Y-106588428D02*
X122078759Y-106588428D01*
X122697807Y-105088428D02*
X122793045Y-105088428D01*
X122793045Y-105088428D02*
X122888283Y-105159857D01*
X122888283Y-105159857D02*
X122935902Y-105231285D01*
X122935902Y-105231285D02*
X122983521Y-105374142D01*
X122983521Y-105374142D02*
X123031140Y-105659857D01*
X123031140Y-105659857D02*
X123031140Y-106017000D01*
X123031140Y-106017000D02*
X122983521Y-106302714D01*
X122983521Y-106302714D02*
X122935902Y-106445571D01*
X122935902Y-106445571D02*
X122888283Y-106517000D01*
X122888283Y-106517000D02*
X122793045Y-106588428D01*
X122793045Y-106588428D02*
X122697807Y-106588428D01*
X122697807Y-106588428D02*
X122602569Y-106517000D01*
X122602569Y-106517000D02*
X122554950Y-106445571D01*
X122554950Y-106445571D02*
X122507331Y-106302714D01*
X122507331Y-106302714D02*
X122459712Y-106017000D01*
X122459712Y-106017000D02*
X122459712Y-105659857D01*
X122459712Y-105659857D02*
X122507331Y-105374142D01*
X122507331Y-105374142D02*
X122554950Y-105231285D01*
X122554950Y-105231285D02*
X122602569Y-105159857D01*
X122602569Y-105159857D02*
X122697807Y-105088428D01*
X123412093Y-105231285D02*
X123459712Y-105159857D01*
X123459712Y-105159857D02*
X123554950Y-105088428D01*
X123554950Y-105088428D02*
X123793045Y-105088428D01*
X123793045Y-105088428D02*
X123888283Y-105159857D01*
X123888283Y-105159857D02*
X123935902Y-105231285D01*
X123935902Y-105231285D02*
X123983521Y-105374142D01*
X123983521Y-105374142D02*
X123983521Y-105517000D01*
X123983521Y-105517000D02*
X123935902Y-105731285D01*
X123935902Y-105731285D02*
X123364474Y-106588428D01*
X123364474Y-106588428D02*
X123983521Y-106588428D01*
X124888283Y-105088428D02*
X124412093Y-105088428D01*
X124412093Y-105088428D02*
X124364474Y-105802714D01*
X124364474Y-105802714D02*
X124412093Y-105731285D01*
X124412093Y-105731285D02*
X124507331Y-105659857D01*
X124507331Y-105659857D02*
X124745426Y-105659857D01*
X124745426Y-105659857D02*
X124840664Y-105731285D01*
X124840664Y-105731285D02*
X124888283Y-105802714D01*
X124888283Y-105802714D02*
X124935902Y-105945571D01*
X124935902Y-105945571D02*
X124935902Y-106302714D01*
X124935902Y-106302714D02*
X124888283Y-106445571D01*
X124888283Y-106445571D02*
X124840664Y-106517000D01*
X124840664Y-106517000D02*
X124745426Y-106588428D01*
X124745426Y-106588428D02*
X124507331Y-106588428D01*
X124507331Y-106588428D02*
X124412093Y-106517000D01*
X124412093Y-106517000D02*
X124364474Y-106445571D01*
X112888282Y-107503428D02*
X112888282Y-108574857D01*
X112888282Y-108574857D02*
X112840663Y-108789142D01*
X112840663Y-108789142D02*
X112745425Y-108932000D01*
X112745425Y-108932000D02*
X112602568Y-109003428D01*
X112602568Y-109003428D02*
X112507330Y-109003428D01*
X113793044Y-108003428D02*
X113793044Y-109003428D01*
X113364473Y-108003428D02*
X113364473Y-108789142D01*
X113364473Y-108789142D02*
X113412092Y-108932000D01*
X113412092Y-108932000D02*
X113507330Y-109003428D01*
X113507330Y-109003428D02*
X113650187Y-109003428D01*
X113650187Y-109003428D02*
X113745425Y-108932000D01*
X113745425Y-108932000D02*
X113793044Y-108860571D01*
X114412092Y-109003428D02*
X114316854Y-108932000D01*
X114316854Y-108932000D02*
X114269235Y-108789142D01*
X114269235Y-108789142D02*
X114269235Y-107503428D01*
X114697807Y-108003428D02*
X114935902Y-109003428D01*
X115173997Y-108003428D02*
X114935902Y-109003428D01*
X114935902Y-109003428D02*
X114840664Y-109360571D01*
X114840664Y-109360571D02*
X114793045Y-109432000D01*
X114793045Y-109432000D02*
X114697807Y-109503428D01*
X116269236Y-107646285D02*
X116316855Y-107574857D01*
X116316855Y-107574857D02*
X116412093Y-107503428D01*
X116412093Y-107503428D02*
X116650188Y-107503428D01*
X116650188Y-107503428D02*
X116745426Y-107574857D01*
X116745426Y-107574857D02*
X116793045Y-107646285D01*
X116793045Y-107646285D02*
X116840664Y-107789142D01*
X116840664Y-107789142D02*
X116840664Y-107932000D01*
X116840664Y-107932000D02*
X116793045Y-108146285D01*
X116793045Y-108146285D02*
X116221617Y-109003428D01*
X116221617Y-109003428D02*
X116840664Y-109003428D01*
X117459712Y-107503428D02*
X117554950Y-107503428D01*
X117554950Y-107503428D02*
X117650188Y-107574857D01*
X117650188Y-107574857D02*
X117697807Y-107646285D01*
X117697807Y-107646285D02*
X117745426Y-107789142D01*
X117745426Y-107789142D02*
X117793045Y-108074857D01*
X117793045Y-108074857D02*
X117793045Y-108432000D01*
X117793045Y-108432000D02*
X117745426Y-108717714D01*
X117745426Y-108717714D02*
X117697807Y-108860571D01*
X117697807Y-108860571D02*
X117650188Y-108932000D01*
X117650188Y-108932000D02*
X117554950Y-109003428D01*
X117554950Y-109003428D02*
X117459712Y-109003428D01*
X117459712Y-109003428D02*
X117364474Y-108932000D01*
X117364474Y-108932000D02*
X117316855Y-108860571D01*
X117316855Y-108860571D02*
X117269236Y-108717714D01*
X117269236Y-108717714D02*
X117221617Y-108432000D01*
X117221617Y-108432000D02*
X117221617Y-108074857D01*
X117221617Y-108074857D02*
X117269236Y-107789142D01*
X117269236Y-107789142D02*
X117316855Y-107646285D01*
X117316855Y-107646285D02*
X117364474Y-107574857D01*
X117364474Y-107574857D02*
X117459712Y-107503428D01*
X118173998Y-107646285D02*
X118221617Y-107574857D01*
X118221617Y-107574857D02*
X118316855Y-107503428D01*
X118316855Y-107503428D02*
X118554950Y-107503428D01*
X118554950Y-107503428D02*
X118650188Y-107574857D01*
X118650188Y-107574857D02*
X118697807Y-107646285D01*
X118697807Y-107646285D02*
X118745426Y-107789142D01*
X118745426Y-107789142D02*
X118745426Y-107932000D01*
X118745426Y-107932000D02*
X118697807Y-108146285D01*
X118697807Y-108146285D02*
X118126379Y-109003428D01*
X118126379Y-109003428D02*
X118745426Y-109003428D01*
X119602569Y-108003428D02*
X119602569Y-109003428D01*
X119364474Y-107432000D02*
X119126379Y-108503428D01*
X119126379Y-108503428D02*
X119745426Y-108503428D01*
D11*
X121206026Y-87466665D02*
X121253646Y-87514284D01*
X121253646Y-87514284D02*
X121301265Y-87657141D01*
X121301265Y-87657141D02*
X121301265Y-87752379D01*
X121301265Y-87752379D02*
X121253646Y-87895236D01*
X121253646Y-87895236D02*
X121158407Y-87990474D01*
X121158407Y-87990474D02*
X121063169Y-88038093D01*
X121063169Y-88038093D02*
X120872693Y-88085712D01*
X120872693Y-88085712D02*
X120729836Y-88085712D01*
X120729836Y-88085712D02*
X120539360Y-88038093D01*
X120539360Y-88038093D02*
X120444122Y-87990474D01*
X120444122Y-87990474D02*
X120348884Y-87895236D01*
X120348884Y-87895236D02*
X120301265Y-87752379D01*
X120301265Y-87752379D02*
X120301265Y-87657141D01*
X120301265Y-87657141D02*
X120348884Y-87514284D01*
X120348884Y-87514284D02*
X120396503Y-87466665D01*
X121301265Y-86514284D02*
X121301265Y-87085712D01*
X121301265Y-86799998D02*
X120301265Y-86799998D01*
X120301265Y-86799998D02*
X120444122Y-86895236D01*
X120444122Y-86895236D02*
X120539360Y-86990474D01*
X120539360Y-86990474D02*
X120586979Y-87085712D01*
X154989964Y-86979219D02*
X154989964Y-87046563D01*
X154989964Y-87046563D02*
X154922620Y-87181250D01*
X154922620Y-87181250D02*
X154855277Y-87248593D01*
X154855277Y-87248593D02*
X154720590Y-87315937D01*
X154720590Y-87315937D02*
X154585903Y-87315937D01*
X154585903Y-87315937D02*
X154484888Y-87282265D01*
X154484888Y-87282265D02*
X154316529Y-87181250D01*
X154316529Y-87181250D02*
X154215514Y-87080235D01*
X154215514Y-87080235D02*
X154114498Y-86911876D01*
X154114498Y-86911876D02*
X154080827Y-86810861D01*
X154080827Y-86810861D02*
X154080827Y-86676174D01*
X154080827Y-86676174D02*
X154148170Y-86541487D01*
X154148170Y-86541487D02*
X154215514Y-86474143D01*
X154215514Y-86474143D02*
X154350201Y-86406800D01*
X154350201Y-86406800D02*
X154417544Y-86406800D01*
X154686918Y-86137426D02*
X154686918Y-86070082D01*
X154686918Y-86070082D02*
X154720590Y-85969067D01*
X154720590Y-85969067D02*
X154888949Y-85800708D01*
X154888949Y-85800708D02*
X154989964Y-85767036D01*
X154989964Y-85767036D02*
X155057307Y-85767036D01*
X155057307Y-85767036D02*
X155158323Y-85800708D01*
X155158323Y-85800708D02*
X155225666Y-85868052D01*
X155225666Y-85868052D02*
X155293010Y-86002739D01*
X155293010Y-86002739D02*
X155293010Y-86810861D01*
X155293010Y-86810861D02*
X155730742Y-86373128D01*
X142361680Y-88237972D02*
X142294336Y-88237972D01*
X142294336Y-88237972D02*
X142159649Y-88170628D01*
X142159649Y-88170628D02*
X142092306Y-88103285D01*
X142092306Y-88103285D02*
X142024962Y-87968598D01*
X142024962Y-87968598D02*
X142024962Y-87833911D01*
X142024962Y-87833911D02*
X142058634Y-87732896D01*
X142058634Y-87732896D02*
X142159649Y-87564537D01*
X142159649Y-87564537D02*
X142260664Y-87463522D01*
X142260664Y-87463522D02*
X142429023Y-87362506D01*
X142429023Y-87362506D02*
X142530038Y-87328835D01*
X142530038Y-87328835D02*
X142664725Y-87328835D01*
X142664725Y-87328835D02*
X142799412Y-87396178D01*
X142799412Y-87396178D02*
X142866756Y-87463522D01*
X142866756Y-87463522D02*
X142934099Y-87598209D01*
X142934099Y-87598209D02*
X142934099Y-87665552D01*
X143237145Y-87833911D02*
X143674878Y-88271644D01*
X143674878Y-88271644D02*
X143169802Y-88305315D01*
X143169802Y-88305315D02*
X143270817Y-88406331D01*
X143270817Y-88406331D02*
X143304489Y-88507346D01*
X143304489Y-88507346D02*
X143304489Y-88574689D01*
X143304489Y-88574689D02*
X143270817Y-88675705D01*
X143270817Y-88675705D02*
X143102458Y-88844063D01*
X143102458Y-88844063D02*
X143001443Y-88877735D01*
X143001443Y-88877735D02*
X142934099Y-88877735D01*
X142934099Y-88877735D02*
X142833084Y-88844063D01*
X142833084Y-88844063D02*
X142631054Y-88642033D01*
X142631054Y-88642033D02*
X142597382Y-88541018D01*
X142597382Y-88541018D02*
X142597382Y-88473674D01*
X150875751Y-88265004D02*
X150875751Y-88332348D01*
X150875751Y-88332348D02*
X150808407Y-88467035D01*
X150808407Y-88467035D02*
X150741064Y-88534378D01*
X150741064Y-88534378D02*
X150606377Y-88601722D01*
X150606377Y-88601722D02*
X150471690Y-88601722D01*
X150471690Y-88601722D02*
X150370675Y-88568050D01*
X150370675Y-88568050D02*
X150202316Y-88467035D01*
X150202316Y-88467035D02*
X150101301Y-88366020D01*
X150101301Y-88366020D02*
X150000285Y-88197661D01*
X150000285Y-88197661D02*
X149966614Y-88096646D01*
X149966614Y-88096646D02*
X149966614Y-87961959D01*
X149966614Y-87961959D02*
X150033957Y-87827272D01*
X150033957Y-87827272D02*
X150101301Y-87759928D01*
X150101301Y-87759928D02*
X150235988Y-87692585D01*
X150235988Y-87692585D02*
X150303331Y-87692585D01*
X151077781Y-87254852D02*
X151549186Y-87726256D01*
X150640049Y-87153837D02*
X150976766Y-87827272D01*
X150976766Y-87827272D02*
X151414499Y-87389539D01*
X151589964Y-85379219D02*
X151589964Y-85446563D01*
X151589964Y-85446563D02*
X151522620Y-85581250D01*
X151522620Y-85581250D02*
X151455277Y-85648593D01*
X151455277Y-85648593D02*
X151320590Y-85715937D01*
X151320590Y-85715937D02*
X151185903Y-85715937D01*
X151185903Y-85715937D02*
X151084888Y-85682265D01*
X151084888Y-85682265D02*
X150916529Y-85581250D01*
X150916529Y-85581250D02*
X150815514Y-85480235D01*
X150815514Y-85480235D02*
X150714498Y-85311876D01*
X150714498Y-85311876D02*
X150680827Y-85210861D01*
X150680827Y-85210861D02*
X150680827Y-85076174D01*
X150680827Y-85076174D02*
X150748170Y-84941487D01*
X150748170Y-84941487D02*
X150815514Y-84874143D01*
X150815514Y-84874143D02*
X150950201Y-84806800D01*
X150950201Y-84806800D02*
X151017544Y-84806800D01*
X151589964Y-84099693D02*
X151253246Y-84436410D01*
X151253246Y-84436410D02*
X151556292Y-84806800D01*
X151556292Y-84806800D02*
X151556292Y-84739456D01*
X151556292Y-84739456D02*
X151589964Y-84638441D01*
X151589964Y-84638441D02*
X151758323Y-84470082D01*
X151758323Y-84470082D02*
X151859338Y-84436410D01*
X151859338Y-84436410D02*
X151926681Y-84436410D01*
X151926681Y-84436410D02*
X152027697Y-84470082D01*
X152027697Y-84470082D02*
X152196055Y-84638441D01*
X152196055Y-84638441D02*
X152229727Y-84739456D01*
X152229727Y-84739456D02*
X152229727Y-84806800D01*
X152229727Y-84806800D02*
X152196055Y-84907815D01*
X152196055Y-84907815D02*
X152027697Y-85076174D01*
X152027697Y-85076174D02*
X151926681Y-85109845D01*
X151926681Y-85109845D02*
X151859338Y-85109845D01*
X153589964Y-88379219D02*
X153589964Y-88446563D01*
X153589964Y-88446563D02*
X153522620Y-88581250D01*
X153522620Y-88581250D02*
X153455277Y-88648593D01*
X153455277Y-88648593D02*
X153320590Y-88715937D01*
X153320590Y-88715937D02*
X153185903Y-88715937D01*
X153185903Y-88715937D02*
X153084888Y-88682265D01*
X153084888Y-88682265D02*
X152916529Y-88581250D01*
X152916529Y-88581250D02*
X152815514Y-88480235D01*
X152815514Y-88480235D02*
X152714498Y-88311876D01*
X152714498Y-88311876D02*
X152680827Y-88210861D01*
X152680827Y-88210861D02*
X152680827Y-88076174D01*
X152680827Y-88076174D02*
X152748170Y-87941487D01*
X152748170Y-87941487D02*
X152815514Y-87874143D01*
X152815514Y-87874143D02*
X152950201Y-87806800D01*
X152950201Y-87806800D02*
X153017544Y-87806800D01*
X153556292Y-87133365D02*
X153421605Y-87268052D01*
X153421605Y-87268052D02*
X153387933Y-87369067D01*
X153387933Y-87369067D02*
X153387933Y-87436410D01*
X153387933Y-87436410D02*
X153421605Y-87604769D01*
X153421605Y-87604769D02*
X153522620Y-87773128D01*
X153522620Y-87773128D02*
X153791994Y-88042502D01*
X153791994Y-88042502D02*
X153893010Y-88076174D01*
X153893010Y-88076174D02*
X153960353Y-88076174D01*
X153960353Y-88076174D02*
X154061368Y-88042502D01*
X154061368Y-88042502D02*
X154196055Y-87907815D01*
X154196055Y-87907815D02*
X154229727Y-87806800D01*
X154229727Y-87806800D02*
X154229727Y-87739456D01*
X154229727Y-87739456D02*
X154196055Y-87638441D01*
X154196055Y-87638441D02*
X154027697Y-87470082D01*
X154027697Y-87470082D02*
X153926681Y-87436410D01*
X153926681Y-87436410D02*
X153859338Y-87436410D01*
X153859338Y-87436410D02*
X153758323Y-87470082D01*
X153758323Y-87470082D02*
X153623636Y-87604769D01*
X153623636Y-87604769D02*
X153589964Y-87705784D01*
X153589964Y-87705784D02*
X153589964Y-87773128D01*
X153589964Y-87773128D02*
X153623636Y-87874143D01*
X139875750Y-78565004D02*
X139875750Y-78632348D01*
X139875750Y-78632348D02*
X139808406Y-78767035D01*
X139808406Y-78767035D02*
X139741063Y-78834378D01*
X139741063Y-78834378D02*
X139606376Y-78901722D01*
X139606376Y-78901722D02*
X139471689Y-78901722D01*
X139471689Y-78901722D02*
X139370674Y-78868050D01*
X139370674Y-78868050D02*
X139202315Y-78767035D01*
X139202315Y-78767035D02*
X139101300Y-78666020D01*
X139101300Y-78666020D02*
X139000284Y-78497661D01*
X139000284Y-78497661D02*
X138966613Y-78396646D01*
X138966613Y-78396646D02*
X138966613Y-78261959D01*
X138966613Y-78261959D02*
X139033956Y-78127272D01*
X139033956Y-78127272D02*
X139101300Y-78059928D01*
X139101300Y-78059928D02*
X139235987Y-77992585D01*
X139235987Y-77992585D02*
X139303330Y-77992585D01*
X139471689Y-77689539D02*
X139943093Y-77218134D01*
X139943093Y-77218134D02*
X140347154Y-78228287D01*
X142867226Y-87643517D02*
X142799882Y-87643517D01*
X142799882Y-87643517D02*
X142665195Y-87576173D01*
X142665195Y-87576173D02*
X142597852Y-87508830D01*
X142597852Y-87508830D02*
X142530508Y-87374143D01*
X142530508Y-87374143D02*
X142530508Y-87239456D01*
X142530508Y-87239456D02*
X142564180Y-87138441D01*
X142564180Y-87138441D02*
X142665195Y-86970082D01*
X142665195Y-86970082D02*
X142766210Y-86869067D01*
X142766210Y-86869067D02*
X142934569Y-86768051D01*
X142934569Y-86768051D02*
X143035584Y-86734380D01*
X143035584Y-86734380D02*
X143170271Y-86734380D01*
X143170271Y-86734380D02*
X143304958Y-86801723D01*
X143304958Y-86801723D02*
X143372302Y-86869067D01*
X143372302Y-86869067D02*
X143439645Y-87003754D01*
X143439645Y-87003754D02*
X143439645Y-87071097D01*
X143608004Y-87710860D02*
X143574332Y-87609845D01*
X143574332Y-87609845D02*
X143574332Y-87542502D01*
X143574332Y-87542502D02*
X143608004Y-87441486D01*
X143608004Y-87441486D02*
X143641676Y-87407815D01*
X143641676Y-87407815D02*
X143742691Y-87374143D01*
X143742691Y-87374143D02*
X143810035Y-87374143D01*
X143810035Y-87374143D02*
X143911050Y-87407815D01*
X143911050Y-87407815D02*
X144045737Y-87542502D01*
X144045737Y-87542502D02*
X144079409Y-87643517D01*
X144079409Y-87643517D02*
X144079409Y-87710860D01*
X144079409Y-87710860D02*
X144045737Y-87811876D01*
X144045737Y-87811876D02*
X144012065Y-87845547D01*
X144012065Y-87845547D02*
X143911050Y-87879219D01*
X143911050Y-87879219D02*
X143843706Y-87879219D01*
X143843706Y-87879219D02*
X143742691Y-87845547D01*
X143742691Y-87845547D02*
X143608004Y-87710860D01*
X143608004Y-87710860D02*
X143506989Y-87677189D01*
X143506989Y-87677189D02*
X143439645Y-87677189D01*
X143439645Y-87677189D02*
X143338630Y-87710860D01*
X143338630Y-87710860D02*
X143203943Y-87845547D01*
X143203943Y-87845547D02*
X143170271Y-87946563D01*
X143170271Y-87946563D02*
X143170271Y-88013906D01*
X143170271Y-88013906D02*
X143203943Y-88114921D01*
X143203943Y-88114921D02*
X143338630Y-88249608D01*
X143338630Y-88249608D02*
X143439645Y-88283280D01*
X143439645Y-88283280D02*
X143506989Y-88283280D01*
X143506989Y-88283280D02*
X143608004Y-88249608D01*
X143608004Y-88249608D02*
X143742691Y-88114921D01*
X143742691Y-88114921D02*
X143776363Y-88013906D01*
X143776363Y-88013906D02*
X143776363Y-87946563D01*
X143776363Y-87946563D02*
X143742691Y-87845547D01*
X148766741Y-88202442D02*
X148766741Y-88269786D01*
X148766741Y-88269786D02*
X148699397Y-88404473D01*
X148699397Y-88404473D02*
X148632054Y-88471816D01*
X148632054Y-88471816D02*
X148497367Y-88539160D01*
X148497367Y-88539160D02*
X148362680Y-88539160D01*
X148362680Y-88539160D02*
X148261665Y-88505488D01*
X148261665Y-88505488D02*
X148093306Y-88404473D01*
X148093306Y-88404473D02*
X147992291Y-88303458D01*
X147992291Y-88303458D02*
X147891275Y-88135099D01*
X147891275Y-88135099D02*
X147857604Y-88034084D01*
X147857604Y-88034084D02*
X147857604Y-87899397D01*
X147857604Y-87899397D02*
X147924947Y-87764710D01*
X147924947Y-87764710D02*
X147992291Y-87697366D01*
X147992291Y-87697366D02*
X148126978Y-87630023D01*
X148126978Y-87630023D02*
X148194321Y-87630023D01*
X149170802Y-87933068D02*
X149305489Y-87798381D01*
X149305489Y-87798381D02*
X149339161Y-87697366D01*
X149339161Y-87697366D02*
X149339161Y-87630023D01*
X149339161Y-87630023D02*
X149305489Y-87461664D01*
X149305489Y-87461664D02*
X149204474Y-87293305D01*
X149204474Y-87293305D02*
X148935100Y-87023931D01*
X148935100Y-87023931D02*
X148834084Y-86990259D01*
X148834084Y-86990259D02*
X148766741Y-86990259D01*
X148766741Y-86990259D02*
X148665726Y-87023931D01*
X148665726Y-87023931D02*
X148531039Y-87158618D01*
X148531039Y-87158618D02*
X148497367Y-87259633D01*
X148497367Y-87259633D02*
X148497367Y-87326977D01*
X148497367Y-87326977D02*
X148531039Y-87427992D01*
X148531039Y-87427992D02*
X148699397Y-87596351D01*
X148699397Y-87596351D02*
X148800413Y-87630023D01*
X148800413Y-87630023D02*
X148867756Y-87630023D01*
X148867756Y-87630023D02*
X148968771Y-87596351D01*
X148968771Y-87596351D02*
X149103458Y-87461664D01*
X149103458Y-87461664D02*
X149137130Y-87360649D01*
X149137130Y-87360649D02*
X149137130Y-87293305D01*
X149137130Y-87293305D02*
X149103458Y-87192290D01*
X132253588Y-98459579D02*
X132205969Y-98507199D01*
X132205969Y-98507199D02*
X132063112Y-98554818D01*
X132063112Y-98554818D02*
X131967874Y-98554818D01*
X131967874Y-98554818D02*
X131825017Y-98507199D01*
X131825017Y-98507199D02*
X131729779Y-98411960D01*
X131729779Y-98411960D02*
X131682160Y-98316722D01*
X131682160Y-98316722D02*
X131634541Y-98126246D01*
X131634541Y-98126246D02*
X131634541Y-97983389D01*
X131634541Y-97983389D02*
X131682160Y-97792913D01*
X131682160Y-97792913D02*
X131729779Y-97697675D01*
X131729779Y-97697675D02*
X131825017Y-97602437D01*
X131825017Y-97602437D02*
X131967874Y-97554818D01*
X131967874Y-97554818D02*
X132063112Y-97554818D01*
X132063112Y-97554818D02*
X132205969Y-97602437D01*
X132205969Y-97602437D02*
X132253588Y-97650056D01*
X133205969Y-98554818D02*
X132634541Y-98554818D01*
X132920255Y-98554818D02*
X132920255Y-97554818D01*
X132920255Y-97554818D02*
X132825017Y-97697675D01*
X132825017Y-97697675D02*
X132729779Y-97792913D01*
X132729779Y-97792913D02*
X132634541Y-97840532D01*
X133825017Y-97554818D02*
X133920255Y-97554818D01*
X133920255Y-97554818D02*
X134015493Y-97602437D01*
X134015493Y-97602437D02*
X134063112Y-97650056D01*
X134063112Y-97650056D02*
X134110731Y-97745294D01*
X134110731Y-97745294D02*
X134158350Y-97935770D01*
X134158350Y-97935770D02*
X134158350Y-98173865D01*
X134158350Y-98173865D02*
X134110731Y-98364341D01*
X134110731Y-98364341D02*
X134063112Y-98459579D01*
X134063112Y-98459579D02*
X134015493Y-98507199D01*
X134015493Y-98507199D02*
X133920255Y-98554818D01*
X133920255Y-98554818D02*
X133825017Y-98554818D01*
X133825017Y-98554818D02*
X133729779Y-98507199D01*
X133729779Y-98507199D02*
X133682160Y-98459579D01*
X133682160Y-98459579D02*
X133634541Y-98364341D01*
X133634541Y-98364341D02*
X133586922Y-98173865D01*
X133586922Y-98173865D02*
X133586922Y-97935770D01*
X133586922Y-97935770D02*
X133634541Y-97745294D01*
X133634541Y-97745294D02*
X133682160Y-97650056D01*
X133682160Y-97650056D02*
X133729779Y-97602437D01*
X133729779Y-97602437D02*
X133825017Y-97554818D01*
X142406027Y-94617857D02*
X142453647Y-94665476D01*
X142453647Y-94665476D02*
X142501266Y-94808333D01*
X142501266Y-94808333D02*
X142501266Y-94903571D01*
X142501266Y-94903571D02*
X142453647Y-95046428D01*
X142453647Y-95046428D02*
X142358408Y-95141666D01*
X142358408Y-95141666D02*
X142263170Y-95189285D01*
X142263170Y-95189285D02*
X142072694Y-95236904D01*
X142072694Y-95236904D02*
X141929837Y-95236904D01*
X141929837Y-95236904D02*
X141739361Y-95189285D01*
X141739361Y-95189285D02*
X141644123Y-95141666D01*
X141644123Y-95141666D02*
X141548885Y-95046428D01*
X141548885Y-95046428D02*
X141501266Y-94903571D01*
X141501266Y-94903571D02*
X141501266Y-94808333D01*
X141501266Y-94808333D02*
X141548885Y-94665476D01*
X141548885Y-94665476D02*
X141596504Y-94617857D01*
X142501266Y-93665476D02*
X142501266Y-94236904D01*
X142501266Y-93951190D02*
X141501266Y-93951190D01*
X141501266Y-93951190D02*
X141644123Y-94046428D01*
X141644123Y-94046428D02*
X141739361Y-94141666D01*
X141739361Y-94141666D02*
X141786980Y-94236904D01*
X142501266Y-92713095D02*
X142501266Y-93284523D01*
X142501266Y-92998809D02*
X141501266Y-92998809D01*
X141501266Y-92998809D02*
X141644123Y-93094047D01*
X141644123Y-93094047D02*
X141739361Y-93189285D01*
X141739361Y-93189285D02*
X141786980Y-93284523D01*
X148350269Y-74398132D02*
X148282925Y-74398132D01*
X148282925Y-74398132D02*
X148148238Y-74330788D01*
X148148238Y-74330788D02*
X148080895Y-74263445D01*
X148080895Y-74263445D02*
X148013551Y-74128758D01*
X148013551Y-74128758D02*
X148013551Y-73994071D01*
X148013551Y-73994071D02*
X148047223Y-73893056D01*
X148047223Y-73893056D02*
X148148238Y-73724697D01*
X148148238Y-73724697D02*
X148249253Y-73623682D01*
X148249253Y-73623682D02*
X148417612Y-73522666D01*
X148417612Y-73522666D02*
X148518627Y-73488995D01*
X148518627Y-73488995D02*
X148653314Y-73488995D01*
X148653314Y-73488995D02*
X148788001Y-73556338D01*
X148788001Y-73556338D02*
X148855345Y-73623682D01*
X148855345Y-73623682D02*
X148922688Y-73758369D01*
X148922688Y-73758369D02*
X148922688Y-73825712D01*
X148956360Y-75138910D02*
X148552299Y-74734849D01*
X148754330Y-74936880D02*
X149461436Y-74229773D01*
X149461436Y-74229773D02*
X149293078Y-74263445D01*
X149293078Y-74263445D02*
X149158391Y-74263445D01*
X149158391Y-74263445D02*
X149057375Y-74229773D01*
X149865498Y-74768521D02*
X149932841Y-74768521D01*
X149932841Y-74768521D02*
X150033856Y-74802193D01*
X150033856Y-74802193D02*
X150202215Y-74970552D01*
X150202215Y-74970552D02*
X150235887Y-75071567D01*
X150235887Y-75071567D02*
X150235887Y-75138911D01*
X150235887Y-75138911D02*
X150202215Y-75239926D01*
X150202215Y-75239926D02*
X150134872Y-75307269D01*
X150134872Y-75307269D02*
X150000185Y-75374613D01*
X150000185Y-75374613D02*
X149192063Y-75374613D01*
X149192063Y-75374613D02*
X149629795Y-75812346D01*
X131631265Y-95525594D02*
X130631265Y-95525594D01*
X130631265Y-95525594D02*
X130631265Y-95287499D01*
X130631265Y-95287499D02*
X130678884Y-95144642D01*
X130678884Y-95144642D02*
X130774122Y-95049404D01*
X130774122Y-95049404D02*
X130869360Y-95001785D01*
X130869360Y-95001785D02*
X131059836Y-94954166D01*
X131059836Y-94954166D02*
X131202693Y-94954166D01*
X131202693Y-94954166D02*
X131393169Y-95001785D01*
X131393169Y-95001785D02*
X131488407Y-95049404D01*
X131488407Y-95049404D02*
X131583646Y-95144642D01*
X131583646Y-95144642D02*
X131631265Y-95287499D01*
X131631265Y-95287499D02*
X131631265Y-95525594D01*
X131631265Y-94001785D02*
X131631265Y-94573213D01*
X131631265Y-94287499D02*
X130631265Y-94287499D01*
X130631265Y-94287499D02*
X130774122Y-94382737D01*
X130774122Y-94382737D02*
X130869360Y-94477975D01*
X130869360Y-94477975D02*
X130916979Y-94573213D01*
X160831265Y-53838094D02*
X159831265Y-53838094D01*
X159831265Y-53838094D02*
X159831265Y-53599999D01*
X159831265Y-53599999D02*
X159878884Y-53457142D01*
X159878884Y-53457142D02*
X159974122Y-53361904D01*
X159974122Y-53361904D02*
X160069360Y-53314285D01*
X160069360Y-53314285D02*
X160259836Y-53266666D01*
X160259836Y-53266666D02*
X160402693Y-53266666D01*
X160402693Y-53266666D02*
X160593169Y-53314285D01*
X160593169Y-53314285D02*
X160688407Y-53361904D01*
X160688407Y-53361904D02*
X160783646Y-53457142D01*
X160783646Y-53457142D02*
X160831265Y-53599999D01*
X160831265Y-53599999D02*
X160831265Y-53838094D01*
X159831265Y-52933332D02*
X159831265Y-52314285D01*
X159831265Y-52314285D02*
X160212217Y-52647618D01*
X160212217Y-52647618D02*
X160212217Y-52504761D01*
X160212217Y-52504761D02*
X160259836Y-52409523D01*
X160259836Y-52409523D02*
X160307455Y-52361904D01*
X160307455Y-52361904D02*
X160402693Y-52314285D01*
X160402693Y-52314285D02*
X160640788Y-52314285D01*
X160640788Y-52314285D02*
X160736026Y-52361904D01*
X160736026Y-52361904D02*
X160783646Y-52409523D01*
X160783646Y-52409523D02*
X160831265Y-52504761D01*
X160831265Y-52504761D02*
X160831265Y-52790475D01*
X160831265Y-52790475D02*
X160783646Y-52885713D01*
X160783646Y-52885713D02*
X160736026Y-52933332D01*
X158231265Y-53850593D02*
X157231265Y-53850593D01*
X157231265Y-53850593D02*
X157231265Y-53612498D01*
X157231265Y-53612498D02*
X157278884Y-53469641D01*
X157278884Y-53469641D02*
X157374122Y-53374403D01*
X157374122Y-53374403D02*
X157469360Y-53326784D01*
X157469360Y-53326784D02*
X157659836Y-53279165D01*
X157659836Y-53279165D02*
X157802693Y-53279165D01*
X157802693Y-53279165D02*
X157993169Y-53326784D01*
X157993169Y-53326784D02*
X158088407Y-53374403D01*
X158088407Y-53374403D02*
X158183646Y-53469641D01*
X158183646Y-53469641D02*
X158231265Y-53612498D01*
X158231265Y-53612498D02*
X158231265Y-53850593D01*
X157564598Y-52422022D02*
X158231265Y-52422022D01*
X157183646Y-52660117D02*
X157897931Y-52898212D01*
X157897931Y-52898212D02*
X157897931Y-52279165D01*
X155531265Y-53850594D02*
X154531265Y-53850594D01*
X154531265Y-53850594D02*
X154531265Y-53612499D01*
X154531265Y-53612499D02*
X154578884Y-53469642D01*
X154578884Y-53469642D02*
X154674122Y-53374404D01*
X154674122Y-53374404D02*
X154769360Y-53326785D01*
X154769360Y-53326785D02*
X154959836Y-53279166D01*
X154959836Y-53279166D02*
X155102693Y-53279166D01*
X155102693Y-53279166D02*
X155293169Y-53326785D01*
X155293169Y-53326785D02*
X155388407Y-53374404D01*
X155388407Y-53374404D02*
X155483646Y-53469642D01*
X155483646Y-53469642D02*
X155531265Y-53612499D01*
X155531265Y-53612499D02*
X155531265Y-53850594D01*
X154531265Y-52374404D02*
X154531265Y-52850594D01*
X154531265Y-52850594D02*
X155007455Y-52898213D01*
X155007455Y-52898213D02*
X154959836Y-52850594D01*
X154959836Y-52850594D02*
X154912217Y-52755356D01*
X154912217Y-52755356D02*
X154912217Y-52517261D01*
X154912217Y-52517261D02*
X154959836Y-52422023D01*
X154959836Y-52422023D02*
X155007455Y-52374404D01*
X155007455Y-52374404D02*
X155102693Y-52326785D01*
X155102693Y-52326785D02*
X155340788Y-52326785D01*
X155340788Y-52326785D02*
X155436026Y-52374404D01*
X155436026Y-52374404D02*
X155483646Y-52422023D01*
X155483646Y-52422023D02*
X155531265Y-52517261D01*
X155531265Y-52517261D02*
X155531265Y-52755356D01*
X155531265Y-52755356D02*
X155483646Y-52850594D01*
X155483646Y-52850594D02*
X155436026Y-52898213D01*
X153054819Y-53863094D02*
X152054819Y-53863094D01*
X152054819Y-53863094D02*
X152054819Y-53624999D01*
X152054819Y-53624999D02*
X152102438Y-53482142D01*
X152102438Y-53482142D02*
X152197676Y-53386904D01*
X152197676Y-53386904D02*
X152292914Y-53339285D01*
X152292914Y-53339285D02*
X152483390Y-53291666D01*
X152483390Y-53291666D02*
X152626247Y-53291666D01*
X152626247Y-53291666D02*
X152816723Y-53339285D01*
X152816723Y-53339285D02*
X152911961Y-53386904D01*
X152911961Y-53386904D02*
X153007200Y-53482142D01*
X153007200Y-53482142D02*
X153054819Y-53624999D01*
X153054819Y-53624999D02*
X153054819Y-53863094D01*
X152054819Y-52434523D02*
X152054819Y-52624999D01*
X152054819Y-52624999D02*
X152102438Y-52720237D01*
X152102438Y-52720237D02*
X152150057Y-52767856D01*
X152150057Y-52767856D02*
X152292914Y-52863094D01*
X152292914Y-52863094D02*
X152483390Y-52910713D01*
X152483390Y-52910713D02*
X152864342Y-52910713D01*
X152864342Y-52910713D02*
X152959580Y-52863094D01*
X152959580Y-52863094D02*
X153007200Y-52815475D01*
X153007200Y-52815475D02*
X153054819Y-52720237D01*
X153054819Y-52720237D02*
X153054819Y-52529761D01*
X153054819Y-52529761D02*
X153007200Y-52434523D01*
X153007200Y-52434523D02*
X152959580Y-52386904D01*
X152959580Y-52386904D02*
X152864342Y-52339285D01*
X152864342Y-52339285D02*
X152626247Y-52339285D01*
X152626247Y-52339285D02*
X152531009Y-52386904D01*
X152531009Y-52386904D02*
X152483390Y-52434523D01*
X152483390Y-52434523D02*
X152435771Y-52529761D01*
X152435771Y-52529761D02*
X152435771Y-52720237D01*
X152435771Y-52720237D02*
X152483390Y-52815475D01*
X152483390Y-52815475D02*
X152531009Y-52863094D01*
X152531009Y-52863094D02*
X152626247Y-52910713D01*
X160631265Y-73538094D02*
X159631265Y-73538094D01*
X159631265Y-73538094D02*
X159631265Y-73299999D01*
X159631265Y-73299999D02*
X159678884Y-73157142D01*
X159678884Y-73157142D02*
X159774122Y-73061904D01*
X159774122Y-73061904D02*
X159869360Y-73014285D01*
X159869360Y-73014285D02*
X160059836Y-72966666D01*
X160059836Y-72966666D02*
X160202693Y-72966666D01*
X160202693Y-72966666D02*
X160393169Y-73014285D01*
X160393169Y-73014285D02*
X160488407Y-73061904D01*
X160488407Y-73061904D02*
X160583646Y-73157142D01*
X160583646Y-73157142D02*
X160631265Y-73299999D01*
X160631265Y-73299999D02*
X160631265Y-73538094D01*
X159631265Y-72633332D02*
X159631265Y-71966666D01*
X159631265Y-71966666D02*
X160631265Y-72395237D01*
X150531265Y-53850594D02*
X149531265Y-53850594D01*
X149531265Y-53850594D02*
X149531265Y-53612499D01*
X149531265Y-53612499D02*
X149578884Y-53469642D01*
X149578884Y-53469642D02*
X149674122Y-53374404D01*
X149674122Y-53374404D02*
X149769360Y-53326785D01*
X149769360Y-53326785D02*
X149959836Y-53279166D01*
X149959836Y-53279166D02*
X150102693Y-53279166D01*
X150102693Y-53279166D02*
X150293169Y-53326785D01*
X150293169Y-53326785D02*
X150388407Y-53374404D01*
X150388407Y-53374404D02*
X150483646Y-53469642D01*
X150483646Y-53469642D02*
X150531265Y-53612499D01*
X150531265Y-53612499D02*
X150531265Y-53850594D01*
X149959836Y-52707737D02*
X149912217Y-52802975D01*
X149912217Y-52802975D02*
X149864598Y-52850594D01*
X149864598Y-52850594D02*
X149769360Y-52898213D01*
X149769360Y-52898213D02*
X149721741Y-52898213D01*
X149721741Y-52898213D02*
X149626503Y-52850594D01*
X149626503Y-52850594D02*
X149578884Y-52802975D01*
X149578884Y-52802975D02*
X149531265Y-52707737D01*
X149531265Y-52707737D02*
X149531265Y-52517261D01*
X149531265Y-52517261D02*
X149578884Y-52422023D01*
X149578884Y-52422023D02*
X149626503Y-52374404D01*
X149626503Y-52374404D02*
X149721741Y-52326785D01*
X149721741Y-52326785D02*
X149769360Y-52326785D01*
X149769360Y-52326785D02*
X149864598Y-52374404D01*
X149864598Y-52374404D02*
X149912217Y-52422023D01*
X149912217Y-52422023D02*
X149959836Y-52517261D01*
X149959836Y-52517261D02*
X149959836Y-52707737D01*
X149959836Y-52707737D02*
X150007455Y-52802975D01*
X150007455Y-52802975D02*
X150055074Y-52850594D01*
X150055074Y-52850594D02*
X150150312Y-52898213D01*
X150150312Y-52898213D02*
X150340788Y-52898213D01*
X150340788Y-52898213D02*
X150436026Y-52850594D01*
X150436026Y-52850594D02*
X150483646Y-52802975D01*
X150483646Y-52802975D02*
X150531265Y-52707737D01*
X150531265Y-52707737D02*
X150531265Y-52517261D01*
X150531265Y-52517261D02*
X150483646Y-52422023D01*
X150483646Y-52422023D02*
X150436026Y-52374404D01*
X150436026Y-52374404D02*
X150340788Y-52326785D01*
X150340788Y-52326785D02*
X150150312Y-52326785D01*
X150150312Y-52326785D02*
X150055074Y-52374404D01*
X150055074Y-52374404D02*
X150007455Y-52422023D01*
X150007455Y-52422023D02*
X149959836Y-52517261D01*
X132801265Y-57566666D02*
X132325074Y-57899999D01*
X132801265Y-58138094D02*
X131801265Y-58138094D01*
X131801265Y-58138094D02*
X131801265Y-57757142D01*
X131801265Y-57757142D02*
X131848884Y-57661904D01*
X131848884Y-57661904D02*
X131896503Y-57614285D01*
X131896503Y-57614285D02*
X131991741Y-57566666D01*
X131991741Y-57566666D02*
X132134598Y-57566666D01*
X132134598Y-57566666D02*
X132229836Y-57614285D01*
X132229836Y-57614285D02*
X132277455Y-57661904D01*
X132277455Y-57661904D02*
X132325074Y-57757142D01*
X132325074Y-57757142D02*
X132325074Y-58138094D01*
X132801265Y-56614285D02*
X132801265Y-57185713D01*
X132801265Y-56899999D02*
X131801265Y-56899999D01*
X131801265Y-56899999D02*
X131944122Y-56995237D01*
X131944122Y-56995237D02*
X132039360Y-57090475D01*
X132039360Y-57090475D02*
X132086979Y-57185713D01*
X121601265Y-91416666D02*
X121125074Y-91749999D01*
X121601265Y-91988094D02*
X120601265Y-91988094D01*
X120601265Y-91988094D02*
X120601265Y-91607142D01*
X120601265Y-91607142D02*
X120648884Y-91511904D01*
X120648884Y-91511904D02*
X120696503Y-91464285D01*
X120696503Y-91464285D02*
X120791741Y-91416666D01*
X120791741Y-91416666D02*
X120934598Y-91416666D01*
X120934598Y-91416666D02*
X121029836Y-91464285D01*
X121029836Y-91464285D02*
X121077455Y-91511904D01*
X121077455Y-91511904D02*
X121125074Y-91607142D01*
X121125074Y-91607142D02*
X121125074Y-91988094D01*
X120696503Y-91035713D02*
X120648884Y-90988094D01*
X120648884Y-90988094D02*
X120601265Y-90892856D01*
X120601265Y-90892856D02*
X120601265Y-90654761D01*
X120601265Y-90654761D02*
X120648884Y-90559523D01*
X120648884Y-90559523D02*
X120696503Y-90511904D01*
X120696503Y-90511904D02*
X120791741Y-90464285D01*
X120791741Y-90464285D02*
X120886979Y-90464285D01*
X120886979Y-90464285D02*
X121029836Y-90511904D01*
X121029836Y-90511904D02*
X121601265Y-91083332D01*
X121601265Y-91083332D02*
X121601265Y-90464285D01*
X126701265Y-95916666D02*
X126225074Y-96249999D01*
X126701265Y-96488094D02*
X125701265Y-96488094D01*
X125701265Y-96488094D02*
X125701265Y-96107142D01*
X125701265Y-96107142D02*
X125748884Y-96011904D01*
X125748884Y-96011904D02*
X125796503Y-95964285D01*
X125796503Y-95964285D02*
X125891741Y-95916666D01*
X125891741Y-95916666D02*
X126034598Y-95916666D01*
X126034598Y-95916666D02*
X126129836Y-95964285D01*
X126129836Y-95964285D02*
X126177455Y-96011904D01*
X126177455Y-96011904D02*
X126225074Y-96107142D01*
X126225074Y-96107142D02*
X126225074Y-96488094D01*
X125701265Y-95583332D02*
X125701265Y-94964285D01*
X125701265Y-94964285D02*
X126082217Y-95297618D01*
X126082217Y-95297618D02*
X126082217Y-95154761D01*
X126082217Y-95154761D02*
X126129836Y-95059523D01*
X126129836Y-95059523D02*
X126177455Y-95011904D01*
X126177455Y-95011904D02*
X126272693Y-94964285D01*
X126272693Y-94964285D02*
X126510788Y-94964285D01*
X126510788Y-94964285D02*
X126606026Y-95011904D01*
X126606026Y-95011904D02*
X126653646Y-95059523D01*
X126653646Y-95059523D02*
X126701265Y-95154761D01*
X126701265Y-95154761D02*
X126701265Y-95440475D01*
X126701265Y-95440475D02*
X126653646Y-95535713D01*
X126653646Y-95535713D02*
X126606026Y-95583332D01*
X122001265Y-87516665D02*
X121525074Y-87849998D01*
X122001265Y-88088093D02*
X121001265Y-88088093D01*
X121001265Y-88088093D02*
X121001265Y-87707141D01*
X121001265Y-87707141D02*
X121048884Y-87611903D01*
X121048884Y-87611903D02*
X121096503Y-87564284D01*
X121096503Y-87564284D02*
X121191741Y-87516665D01*
X121191741Y-87516665D02*
X121334598Y-87516665D01*
X121334598Y-87516665D02*
X121429836Y-87564284D01*
X121429836Y-87564284D02*
X121477455Y-87611903D01*
X121477455Y-87611903D02*
X121525074Y-87707141D01*
X121525074Y-87707141D02*
X121525074Y-88088093D01*
X121334598Y-86659522D02*
X122001265Y-86659522D01*
X120953646Y-86897617D02*
X121667931Y-87135712D01*
X121667931Y-87135712D02*
X121667931Y-86516665D01*
X158229779Y-78354819D02*
X157896446Y-77878628D01*
X157658351Y-78354819D02*
X157658351Y-77354819D01*
X157658351Y-77354819D02*
X158039303Y-77354819D01*
X158039303Y-77354819D02*
X158134541Y-77402438D01*
X158134541Y-77402438D02*
X158182160Y-77450057D01*
X158182160Y-77450057D02*
X158229779Y-77545295D01*
X158229779Y-77545295D02*
X158229779Y-77688152D01*
X158229779Y-77688152D02*
X158182160Y-77783390D01*
X158182160Y-77783390D02*
X158134541Y-77831009D01*
X158134541Y-77831009D02*
X158039303Y-77878628D01*
X158039303Y-77878628D02*
X157658351Y-77878628D01*
X159134541Y-77354819D02*
X158658351Y-77354819D01*
X158658351Y-77354819D02*
X158610732Y-77831009D01*
X158610732Y-77831009D02*
X158658351Y-77783390D01*
X158658351Y-77783390D02*
X158753589Y-77735771D01*
X158753589Y-77735771D02*
X158991684Y-77735771D01*
X158991684Y-77735771D02*
X159086922Y-77783390D01*
X159086922Y-77783390D02*
X159134541Y-77831009D01*
X159134541Y-77831009D02*
X159182160Y-77926247D01*
X159182160Y-77926247D02*
X159182160Y-78164342D01*
X159182160Y-78164342D02*
X159134541Y-78259580D01*
X159134541Y-78259580D02*
X159086922Y-78307200D01*
X159086922Y-78307200D02*
X158991684Y-78354819D01*
X158991684Y-78354819D02*
X158753589Y-78354819D01*
X158753589Y-78354819D02*
X158658351Y-78307200D01*
X158658351Y-78307200D02*
X158610732Y-78259580D01*
X158361265Y-55951666D02*
X157885074Y-56284999D01*
X158361265Y-56523094D02*
X157361265Y-56523094D01*
X157361265Y-56523094D02*
X157361265Y-56142142D01*
X157361265Y-56142142D02*
X157408884Y-56046904D01*
X157408884Y-56046904D02*
X157456503Y-55999285D01*
X157456503Y-55999285D02*
X157551741Y-55951666D01*
X157551741Y-55951666D02*
X157694598Y-55951666D01*
X157694598Y-55951666D02*
X157789836Y-55999285D01*
X157789836Y-55999285D02*
X157837455Y-56046904D01*
X157837455Y-56046904D02*
X157885074Y-56142142D01*
X157885074Y-56142142D02*
X157885074Y-56523094D01*
X157361265Y-55094523D02*
X157361265Y-55284999D01*
X157361265Y-55284999D02*
X157408884Y-55380237D01*
X157408884Y-55380237D02*
X157456503Y-55427856D01*
X157456503Y-55427856D02*
X157599360Y-55523094D01*
X157599360Y-55523094D02*
X157789836Y-55570713D01*
X157789836Y-55570713D02*
X158170788Y-55570713D01*
X158170788Y-55570713D02*
X158266026Y-55523094D01*
X158266026Y-55523094D02*
X158313646Y-55475475D01*
X158313646Y-55475475D02*
X158361265Y-55380237D01*
X158361265Y-55380237D02*
X158361265Y-55189761D01*
X158361265Y-55189761D02*
X158313646Y-55094523D01*
X158313646Y-55094523D02*
X158266026Y-55046904D01*
X158266026Y-55046904D02*
X158170788Y-54999285D01*
X158170788Y-54999285D02*
X157932693Y-54999285D01*
X157932693Y-54999285D02*
X157837455Y-55046904D01*
X157837455Y-55046904D02*
X157789836Y-55094523D01*
X157789836Y-55094523D02*
X157742217Y-55189761D01*
X157742217Y-55189761D02*
X157742217Y-55380237D01*
X157742217Y-55380237D02*
X157789836Y-55475475D01*
X157789836Y-55475475D02*
X157837455Y-55523094D01*
X157837455Y-55523094D02*
X157932693Y-55570713D01*
X155761265Y-55951665D02*
X155285074Y-56284998D01*
X155761265Y-56523093D02*
X154761265Y-56523093D01*
X154761265Y-56523093D02*
X154761265Y-56142141D01*
X154761265Y-56142141D02*
X154808884Y-56046903D01*
X154808884Y-56046903D02*
X154856503Y-55999284D01*
X154856503Y-55999284D02*
X154951741Y-55951665D01*
X154951741Y-55951665D02*
X155094598Y-55951665D01*
X155094598Y-55951665D02*
X155189836Y-55999284D01*
X155189836Y-55999284D02*
X155237455Y-56046903D01*
X155237455Y-56046903D02*
X155285074Y-56142141D01*
X155285074Y-56142141D02*
X155285074Y-56523093D01*
X154761265Y-55618331D02*
X154761265Y-54951665D01*
X154761265Y-54951665D02*
X155761265Y-55380236D01*
X153161265Y-55976666D02*
X152685074Y-56309999D01*
X153161265Y-56548094D02*
X152161265Y-56548094D01*
X152161265Y-56548094D02*
X152161265Y-56167142D01*
X152161265Y-56167142D02*
X152208884Y-56071904D01*
X152208884Y-56071904D02*
X152256503Y-56024285D01*
X152256503Y-56024285D02*
X152351741Y-55976666D01*
X152351741Y-55976666D02*
X152494598Y-55976666D01*
X152494598Y-55976666D02*
X152589836Y-56024285D01*
X152589836Y-56024285D02*
X152637455Y-56071904D01*
X152637455Y-56071904D02*
X152685074Y-56167142D01*
X152685074Y-56167142D02*
X152685074Y-56548094D01*
X152589836Y-55405237D02*
X152542217Y-55500475D01*
X152542217Y-55500475D02*
X152494598Y-55548094D01*
X152494598Y-55548094D02*
X152399360Y-55595713D01*
X152399360Y-55595713D02*
X152351741Y-55595713D01*
X152351741Y-55595713D02*
X152256503Y-55548094D01*
X152256503Y-55548094D02*
X152208884Y-55500475D01*
X152208884Y-55500475D02*
X152161265Y-55405237D01*
X152161265Y-55405237D02*
X152161265Y-55214761D01*
X152161265Y-55214761D02*
X152208884Y-55119523D01*
X152208884Y-55119523D02*
X152256503Y-55071904D01*
X152256503Y-55071904D02*
X152351741Y-55024285D01*
X152351741Y-55024285D02*
X152399360Y-55024285D01*
X152399360Y-55024285D02*
X152494598Y-55071904D01*
X152494598Y-55071904D02*
X152542217Y-55119523D01*
X152542217Y-55119523D02*
X152589836Y-55214761D01*
X152589836Y-55214761D02*
X152589836Y-55405237D01*
X152589836Y-55405237D02*
X152637455Y-55500475D01*
X152637455Y-55500475D02*
X152685074Y-55548094D01*
X152685074Y-55548094D02*
X152780312Y-55595713D01*
X152780312Y-55595713D02*
X152970788Y-55595713D01*
X152970788Y-55595713D02*
X153066026Y-55548094D01*
X153066026Y-55548094D02*
X153113646Y-55500475D01*
X153113646Y-55500475D02*
X153161265Y-55405237D01*
X153161265Y-55405237D02*
X153161265Y-55214761D01*
X153161265Y-55214761D02*
X153113646Y-55119523D01*
X153113646Y-55119523D02*
X153066026Y-55071904D01*
X153066026Y-55071904D02*
X152970788Y-55024285D01*
X152970788Y-55024285D02*
X152780312Y-55024285D01*
X152780312Y-55024285D02*
X152685074Y-55071904D01*
X152685074Y-55071904D02*
X152637455Y-55119523D01*
X152637455Y-55119523D02*
X152589836Y-55214761D01*
X150761265Y-55976665D02*
X150285074Y-56309998D01*
X150761265Y-56548093D02*
X149761265Y-56548093D01*
X149761265Y-56548093D02*
X149761265Y-56167141D01*
X149761265Y-56167141D02*
X149808884Y-56071903D01*
X149808884Y-56071903D02*
X149856503Y-56024284D01*
X149856503Y-56024284D02*
X149951741Y-55976665D01*
X149951741Y-55976665D02*
X150094598Y-55976665D01*
X150094598Y-55976665D02*
X150189836Y-56024284D01*
X150189836Y-56024284D02*
X150237455Y-56071903D01*
X150237455Y-56071903D02*
X150285074Y-56167141D01*
X150285074Y-56167141D02*
X150285074Y-56548093D01*
X150761265Y-55500474D02*
X150761265Y-55309998D01*
X150761265Y-55309998D02*
X150713646Y-55214760D01*
X150713646Y-55214760D02*
X150666026Y-55167141D01*
X150666026Y-55167141D02*
X150523169Y-55071903D01*
X150523169Y-55071903D02*
X150332693Y-55024284D01*
X150332693Y-55024284D02*
X149951741Y-55024284D01*
X149951741Y-55024284D02*
X149856503Y-55071903D01*
X149856503Y-55071903D02*
X149808884Y-55119522D01*
X149808884Y-55119522D02*
X149761265Y-55214760D01*
X149761265Y-55214760D02*
X149761265Y-55405236D01*
X149761265Y-55405236D02*
X149808884Y-55500474D01*
X149808884Y-55500474D02*
X149856503Y-55548093D01*
X149856503Y-55548093D02*
X149951741Y-55595712D01*
X149951741Y-55595712D02*
X150189836Y-55595712D01*
X150189836Y-55595712D02*
X150285074Y-55548093D01*
X150285074Y-55548093D02*
X150332693Y-55500474D01*
X150332693Y-55500474D02*
X150380312Y-55405236D01*
X150380312Y-55405236D02*
X150380312Y-55214760D01*
X150380312Y-55214760D02*
X150332693Y-55119522D01*
X150332693Y-55119522D02*
X150285074Y-55071903D01*
X150285074Y-55071903D02*
X150189836Y-55024284D01*
X148161265Y-56427857D02*
X147685074Y-56761190D01*
X148161265Y-56999285D02*
X147161265Y-56999285D01*
X147161265Y-56999285D02*
X147161265Y-56618333D01*
X147161265Y-56618333D02*
X147208884Y-56523095D01*
X147208884Y-56523095D02*
X147256503Y-56475476D01*
X147256503Y-56475476D02*
X147351741Y-56427857D01*
X147351741Y-56427857D02*
X147494598Y-56427857D01*
X147494598Y-56427857D02*
X147589836Y-56475476D01*
X147589836Y-56475476D02*
X147637455Y-56523095D01*
X147637455Y-56523095D02*
X147685074Y-56618333D01*
X147685074Y-56618333D02*
X147685074Y-56999285D01*
X148161265Y-55475476D02*
X148161265Y-56046904D01*
X148161265Y-55761190D02*
X147161265Y-55761190D01*
X147161265Y-55761190D02*
X147304122Y-55856428D01*
X147304122Y-55856428D02*
X147399360Y-55951666D01*
X147399360Y-55951666D02*
X147446979Y-56046904D01*
X147161265Y-54856428D02*
X147161265Y-54761190D01*
X147161265Y-54761190D02*
X147208884Y-54665952D01*
X147208884Y-54665952D02*
X147256503Y-54618333D01*
X147256503Y-54618333D02*
X147351741Y-54570714D01*
X147351741Y-54570714D02*
X147542217Y-54523095D01*
X147542217Y-54523095D02*
X147780312Y-54523095D01*
X147780312Y-54523095D02*
X147970788Y-54570714D01*
X147970788Y-54570714D02*
X148066026Y-54618333D01*
X148066026Y-54618333D02*
X148113646Y-54665952D01*
X148113646Y-54665952D02*
X148161265Y-54761190D01*
X148161265Y-54761190D02*
X148161265Y-54856428D01*
X148161265Y-54856428D02*
X148113646Y-54951666D01*
X148113646Y-54951666D02*
X148066026Y-54999285D01*
X148066026Y-54999285D02*
X147970788Y-55046904D01*
X147970788Y-55046904D02*
X147780312Y-55094523D01*
X147780312Y-55094523D02*
X147542217Y-55094523D01*
X147542217Y-55094523D02*
X147351741Y-55046904D01*
X147351741Y-55046904D02*
X147256503Y-54999285D01*
X147256503Y-54999285D02*
X147208884Y-54951666D01*
X147208884Y-54951666D02*
X147161265Y-54856428D01*
D12*
X117655969Y-97862580D02*
X117655969Y-97148295D01*
X117655969Y-97148295D02*
X117703588Y-97005438D01*
X117703588Y-97005438D02*
X117798826Y-96910200D01*
X117798826Y-96910200D02*
X117941683Y-96862580D01*
X117941683Y-96862580D02*
X118036921Y-96862580D01*
X116655969Y-96862580D02*
X117227397Y-96862580D01*
X116941683Y-96862580D02*
X116941683Y-97862580D01*
X116941683Y-97862580D02*
X117036921Y-97719723D01*
X117036921Y-97719723D02*
X117132159Y-97624485D01*
X117132159Y-97624485D02*
X117227397Y-97576866D01*
X116275016Y-97767342D02*
X116227397Y-97814961D01*
X116227397Y-97814961D02*
X116132159Y-97862580D01*
X116132159Y-97862580D02*
X115894064Y-97862580D01*
X115894064Y-97862580D02*
X115798826Y-97814961D01*
X115798826Y-97814961D02*
X115751207Y-97767342D01*
X115751207Y-97767342D02*
X115703588Y-97672104D01*
X115703588Y-97672104D02*
X115703588Y-97576866D01*
X115703588Y-97576866D02*
X115751207Y-97434009D01*
X115751207Y-97434009D02*
X116322635Y-96862580D01*
X116322635Y-96862580D02*
X115703588Y-96862580D01*
D11*
X126436922Y-56724819D02*
X126436922Y-57439104D01*
X126436922Y-57439104D02*
X126389303Y-57581961D01*
X126389303Y-57581961D02*
X126294065Y-57677200D01*
X126294065Y-57677200D02*
X126151208Y-57724819D01*
X126151208Y-57724819D02*
X126055970Y-57724819D01*
X127436922Y-57724819D02*
X126865494Y-57724819D01*
X127151208Y-57724819D02*
X127151208Y-56724819D01*
X127151208Y-56724819D02*
X127055970Y-56867676D01*
X127055970Y-56867676D02*
X126960732Y-56962914D01*
X126960732Y-56962914D02*
X126865494Y-57010533D01*
X128341684Y-56724819D02*
X127865494Y-56724819D01*
X127865494Y-56724819D02*
X127817875Y-57201009D01*
X127817875Y-57201009D02*
X127865494Y-57153390D01*
X127865494Y-57153390D02*
X127960732Y-57105771D01*
X127960732Y-57105771D02*
X128198827Y-57105771D01*
X128198827Y-57105771D02*
X128294065Y-57153390D01*
X128294065Y-57153390D02*
X128341684Y-57201009D01*
X128341684Y-57201009D02*
X128389303Y-57296247D01*
X128389303Y-57296247D02*
X128389303Y-57534342D01*
X128389303Y-57534342D02*
X128341684Y-57629580D01*
X128341684Y-57629580D02*
X128294065Y-57677200D01*
X128294065Y-57677200D02*
X128198827Y-57724819D01*
X128198827Y-57724819D02*
X127960732Y-57724819D01*
X127960732Y-57724819D02*
X127865494Y-57677200D01*
X127865494Y-57677200D02*
X127817875Y-57629580D01*
X134013113Y-70484818D02*
X134013113Y-71199103D01*
X134013113Y-71199103D02*
X133965494Y-71341960D01*
X133965494Y-71341960D02*
X133870256Y-71437199D01*
X133870256Y-71437199D02*
X133727399Y-71484818D01*
X133727399Y-71484818D02*
X133632161Y-71484818D01*
X134441685Y-70580056D02*
X134489304Y-70532437D01*
X134489304Y-70532437D02*
X134584542Y-70484818D01*
X134584542Y-70484818D02*
X134822637Y-70484818D01*
X134822637Y-70484818D02*
X134917875Y-70532437D01*
X134917875Y-70532437D02*
X134965494Y-70580056D01*
X134965494Y-70580056D02*
X135013113Y-70675294D01*
X135013113Y-70675294D02*
X135013113Y-70770532D01*
X135013113Y-70770532D02*
X134965494Y-70913389D01*
X134965494Y-70913389D02*
X134394066Y-71484818D01*
X134394066Y-71484818D02*
X135013113Y-71484818D01*
X133061922Y-56254819D02*
X133061922Y-56969104D01*
X133061922Y-56969104D02*
X133014303Y-57111961D01*
X133014303Y-57111961D02*
X132919065Y-57207200D01*
X132919065Y-57207200D02*
X132776208Y-57254819D01*
X132776208Y-57254819D02*
X132680970Y-57254819D01*
X134061922Y-57254819D02*
X133490494Y-57254819D01*
X133776208Y-57254819D02*
X133776208Y-56254819D01*
X133776208Y-56254819D02*
X133680970Y-56397676D01*
X133680970Y-56397676D02*
X133585732Y-56492914D01*
X133585732Y-56492914D02*
X133490494Y-56540533D01*
X134395256Y-56254819D02*
X135014303Y-56254819D01*
X135014303Y-56254819D02*
X134680970Y-56635771D01*
X134680970Y-56635771D02*
X134823827Y-56635771D01*
X134823827Y-56635771D02*
X134919065Y-56683390D01*
X134919065Y-56683390D02*
X134966684Y-56731009D01*
X134966684Y-56731009D02*
X135014303Y-56826247D01*
X135014303Y-56826247D02*
X135014303Y-57064342D01*
X135014303Y-57064342D02*
X134966684Y-57159580D01*
X134966684Y-57159580D02*
X134919065Y-57207200D01*
X134919065Y-57207200D02*
X134823827Y-57254819D01*
X134823827Y-57254819D02*
X134538113Y-57254819D01*
X134538113Y-57254819D02*
X134442875Y-57207200D01*
X134442875Y-57207200D02*
X134395256Y-57159580D01*
X127946265Y-107633333D02*
X128660550Y-107633333D01*
X128660550Y-107633333D02*
X128803407Y-107680952D01*
X128803407Y-107680952D02*
X128898646Y-107776190D01*
X128898646Y-107776190D02*
X128946265Y-107919047D01*
X128946265Y-107919047D02*
X128946265Y-108014285D01*
X128374836Y-107014285D02*
X128327217Y-107109523D01*
X128327217Y-107109523D02*
X128279598Y-107157142D01*
X128279598Y-107157142D02*
X128184360Y-107204761D01*
X128184360Y-107204761D02*
X128136741Y-107204761D01*
X128136741Y-107204761D02*
X128041503Y-107157142D01*
X128041503Y-107157142D02*
X127993884Y-107109523D01*
X127993884Y-107109523D02*
X127946265Y-107014285D01*
X127946265Y-107014285D02*
X127946265Y-106823809D01*
X127946265Y-106823809D02*
X127993884Y-106728571D01*
X127993884Y-106728571D02*
X128041503Y-106680952D01*
X128041503Y-106680952D02*
X128136741Y-106633333D01*
X128136741Y-106633333D02*
X128184360Y-106633333D01*
X128184360Y-106633333D02*
X128279598Y-106680952D01*
X128279598Y-106680952D02*
X128327217Y-106728571D01*
X128327217Y-106728571D02*
X128374836Y-106823809D01*
X128374836Y-106823809D02*
X128374836Y-107014285D01*
X128374836Y-107014285D02*
X128422455Y-107109523D01*
X128422455Y-107109523D02*
X128470074Y-107157142D01*
X128470074Y-107157142D02*
X128565312Y-107204761D01*
X128565312Y-107204761D02*
X128755788Y-107204761D01*
X128755788Y-107204761D02*
X128851026Y-107157142D01*
X128851026Y-107157142D02*
X128898646Y-107109523D01*
X128898646Y-107109523D02*
X128946265Y-107014285D01*
X128946265Y-107014285D02*
X128946265Y-106823809D01*
X128946265Y-106823809D02*
X128898646Y-106728571D01*
X128898646Y-106728571D02*
X128851026Y-106680952D01*
X128851026Y-106680952D02*
X128755788Y-106633333D01*
X128755788Y-106633333D02*
X128565312Y-106633333D01*
X128565312Y-106633333D02*
X128470074Y-106680952D01*
X128470074Y-106680952D02*
X128422455Y-106728571D01*
X128422455Y-106728571D02*
X128374836Y-106823809D01*
D12*
X117279779Y-84502580D02*
X117279779Y-83788295D01*
X117279779Y-83788295D02*
X117327398Y-83645438D01*
X117327398Y-83645438D02*
X117422636Y-83550200D01*
X117422636Y-83550200D02*
X117565493Y-83502580D01*
X117565493Y-83502580D02*
X117660731Y-83502580D01*
X116279779Y-83502580D02*
X116851207Y-83502580D01*
X116565493Y-83502580D02*
X116565493Y-84502580D01*
X116565493Y-84502580D02*
X116660731Y-84359723D01*
X116660731Y-84359723D02*
X116755969Y-84264485D01*
X116755969Y-84264485D02*
X116851207Y-84216866D01*
D11*
X161101265Y-78433333D02*
X161815550Y-78433333D01*
X161815550Y-78433333D02*
X161958407Y-78480952D01*
X161958407Y-78480952D02*
X162053646Y-78576190D01*
X162053646Y-78576190D02*
X162101265Y-78719047D01*
X162101265Y-78719047D02*
X162101265Y-78814285D01*
X161101265Y-77528571D02*
X161101265Y-77719047D01*
X161101265Y-77719047D02*
X161148884Y-77814285D01*
X161148884Y-77814285D02*
X161196503Y-77861904D01*
X161196503Y-77861904D02*
X161339360Y-77957142D01*
X161339360Y-77957142D02*
X161529836Y-78004761D01*
X161529836Y-78004761D02*
X161910788Y-78004761D01*
X161910788Y-78004761D02*
X162006026Y-77957142D01*
X162006026Y-77957142D02*
X162053646Y-77909523D01*
X162053646Y-77909523D02*
X162101265Y-77814285D01*
X162101265Y-77814285D02*
X162101265Y-77623809D01*
X162101265Y-77623809D02*
X162053646Y-77528571D01*
X162053646Y-77528571D02*
X162006026Y-77480952D01*
X162006026Y-77480952D02*
X161910788Y-77433333D01*
X161910788Y-77433333D02*
X161672693Y-77433333D01*
X161672693Y-77433333D02*
X161577455Y-77480952D01*
X161577455Y-77480952D02*
X161529836Y-77528571D01*
X161529836Y-77528571D02*
X161482217Y-77623809D01*
X161482217Y-77623809D02*
X161482217Y-77814285D01*
X161482217Y-77814285D02*
X161529836Y-77909523D01*
X161529836Y-77909523D02*
X161577455Y-77957142D01*
X161577455Y-77957142D02*
X161672693Y-78004761D01*
X141856624Y-84312325D02*
X141284204Y-84884745D01*
X141284204Y-84884745D02*
X141250532Y-84985760D01*
X141250532Y-84985760D02*
X141250532Y-85053104D01*
X141250532Y-85053104D02*
X141284204Y-85154119D01*
X141284204Y-85154119D02*
X141418891Y-85288806D01*
X141418891Y-85288806D02*
X141519906Y-85322478D01*
X141519906Y-85322478D02*
X141587250Y-85322478D01*
X141587250Y-85322478D02*
X141688265Y-85288806D01*
X141688265Y-85288806D02*
X142260685Y-84716386D01*
X142260685Y-86130600D02*
X141856624Y-85726539D01*
X142058654Y-85928569D02*
X142765761Y-85221463D01*
X142765761Y-85221463D02*
X142597402Y-85255134D01*
X142597402Y-85255134D02*
X142462715Y-85255134D01*
X142462715Y-85255134D02*
X142361700Y-85221463D01*
X137434541Y-91754818D02*
X137434541Y-92564341D01*
X137434541Y-92564341D02*
X137482160Y-92659579D01*
X137482160Y-92659579D02*
X137529779Y-92707199D01*
X137529779Y-92707199D02*
X137625017Y-92754818D01*
X137625017Y-92754818D02*
X137815493Y-92754818D01*
X137815493Y-92754818D02*
X137910731Y-92707199D01*
X137910731Y-92707199D02*
X137958350Y-92659579D01*
X137958350Y-92659579D02*
X138005969Y-92564341D01*
X138005969Y-92564341D02*
X138005969Y-91754818D01*
X138434541Y-91850056D02*
X138482160Y-91802437D01*
X138482160Y-91802437D02*
X138577398Y-91754818D01*
X138577398Y-91754818D02*
X138815493Y-91754818D01*
X138815493Y-91754818D02*
X138910731Y-91802437D01*
X138910731Y-91802437D02*
X138958350Y-91850056D01*
X138958350Y-91850056D02*
X139005969Y-91945294D01*
X139005969Y-91945294D02*
X139005969Y-92040532D01*
X139005969Y-92040532D02*
X138958350Y-92183389D01*
X138958350Y-92183389D02*
X138386922Y-92754818D01*
X138386922Y-92754818D02*
X139005969Y-92754818D01*
X138291265Y-59309523D02*
X139005550Y-59309523D01*
X139005550Y-59309523D02*
X139148407Y-59357142D01*
X139148407Y-59357142D02*
X139243646Y-59452380D01*
X139243646Y-59452380D02*
X139291265Y-59595237D01*
X139291265Y-59595237D02*
X139291265Y-59690475D01*
X139291265Y-58309523D02*
X139291265Y-58880951D01*
X139291265Y-58595237D02*
X138291265Y-58595237D01*
X138291265Y-58595237D02*
X138434122Y-58690475D01*
X138434122Y-58690475D02*
X138529360Y-58785713D01*
X138529360Y-58785713D02*
X138576979Y-58880951D01*
X138624598Y-57452380D02*
X139291265Y-57452380D01*
X138243646Y-57690475D02*
X138957931Y-57928570D01*
X138957931Y-57928570D02*
X138957931Y-57309523D01*
X113401265Y-76133333D02*
X114115550Y-76133333D01*
X114115550Y-76133333D02*
X114258407Y-76180952D01*
X114258407Y-76180952D02*
X114353646Y-76276190D01*
X114353646Y-76276190D02*
X114401265Y-76419047D01*
X114401265Y-76419047D02*
X114401265Y-76514285D01*
X113401265Y-75752380D02*
X113401265Y-75133333D01*
X113401265Y-75133333D02*
X113782217Y-75466666D01*
X113782217Y-75466666D02*
X113782217Y-75323809D01*
X113782217Y-75323809D02*
X113829836Y-75228571D01*
X113829836Y-75228571D02*
X113877455Y-75180952D01*
X113877455Y-75180952D02*
X113972693Y-75133333D01*
X113972693Y-75133333D02*
X114210788Y-75133333D01*
X114210788Y-75133333D02*
X114306026Y-75180952D01*
X114306026Y-75180952D02*
X114353646Y-75228571D01*
X114353646Y-75228571D02*
X114401265Y-75323809D01*
X114401265Y-75323809D02*
X114401265Y-75609523D01*
X114401265Y-75609523D02*
X114353646Y-75704761D01*
X114353646Y-75704761D02*
X114306026Y-75752380D01*
X166453646Y-99683331D02*
X166501265Y-99540474D01*
X166501265Y-99540474D02*
X166501265Y-99302379D01*
X166501265Y-99302379D02*
X166453646Y-99207141D01*
X166453646Y-99207141D02*
X166406026Y-99159522D01*
X166406026Y-99159522D02*
X166310788Y-99111903D01*
X166310788Y-99111903D02*
X166215550Y-99111903D01*
X166215550Y-99111903D02*
X166120312Y-99159522D01*
X166120312Y-99159522D02*
X166072693Y-99207141D01*
X166072693Y-99207141D02*
X166025074Y-99302379D01*
X166025074Y-99302379D02*
X165977455Y-99492855D01*
X165977455Y-99492855D02*
X165929836Y-99588093D01*
X165929836Y-99588093D02*
X165882217Y-99635712D01*
X165882217Y-99635712D02*
X165786979Y-99683331D01*
X165786979Y-99683331D02*
X165691741Y-99683331D01*
X165691741Y-99683331D02*
X165596503Y-99635712D01*
X165596503Y-99635712D02*
X165548884Y-99588093D01*
X165548884Y-99588093D02*
X165501265Y-99492855D01*
X165501265Y-99492855D02*
X165501265Y-99254760D01*
X165501265Y-99254760D02*
X165548884Y-99111903D01*
X165501265Y-98778569D02*
X166501265Y-98540474D01*
X166501265Y-98540474D02*
X165786979Y-98349998D01*
X165786979Y-98349998D02*
X166501265Y-98159522D01*
X166501265Y-98159522D02*
X165501265Y-97921427D01*
X166501265Y-97016665D02*
X166501265Y-97588093D01*
X166501265Y-97302379D02*
X165501265Y-97302379D01*
X165501265Y-97302379D02*
X165644122Y-97397617D01*
X165644122Y-97397617D02*
X165739360Y-97492855D01*
X165739360Y-97492855D02*
X165786979Y-97588093D01*
X154660255Y-103453628D02*
X154660255Y-103929819D01*
X154326922Y-102929819D02*
X154660255Y-103453628D01*
X154660255Y-103453628D02*
X154993588Y-102929819D01*
X155850731Y-103929819D02*
X155279303Y-103929819D01*
X155565017Y-103929819D02*
X155565017Y-102929819D01*
X155565017Y-102929819D02*
X155469779Y-103072676D01*
X155469779Y-103072676D02*
X155374541Y-103167914D01*
X155374541Y-103167914D02*
X155279303Y-103215533D01*
X127074541Y-92784819D02*
X127074541Y-93594342D01*
X127074541Y-93594342D02*
X127122160Y-93689580D01*
X127122160Y-93689580D02*
X127169779Y-93737200D01*
X127169779Y-93737200D02*
X127265017Y-93784819D01*
X127265017Y-93784819D02*
X127455493Y-93784819D01*
X127455493Y-93784819D02*
X127550731Y-93737200D01*
X127550731Y-93737200D02*
X127598350Y-93689580D01*
X127598350Y-93689580D02*
X127645969Y-93594342D01*
X127645969Y-93594342D02*
X127645969Y-92784819D01*
X128026922Y-92784819D02*
X128645969Y-92784819D01*
X128645969Y-92784819D02*
X128312636Y-93165771D01*
X128312636Y-93165771D02*
X128455493Y-93165771D01*
X128455493Y-93165771D02*
X128550731Y-93213390D01*
X128550731Y-93213390D02*
X128598350Y-93261009D01*
X128598350Y-93261009D02*
X128645969Y-93356247D01*
X128645969Y-93356247D02*
X128645969Y-93594342D01*
X128645969Y-93594342D02*
X128598350Y-93689580D01*
X128598350Y-93689580D02*
X128550731Y-93737200D01*
X128550731Y-93737200D02*
X128455493Y-93784819D01*
X128455493Y-93784819D02*
X128169779Y-93784819D01*
X128169779Y-93784819D02*
X128074541Y-93737200D01*
X128074541Y-93737200D02*
X128026922Y-93689580D01*
X160901265Y-89033332D02*
X161615550Y-89033332D01*
X161615550Y-89033332D02*
X161758407Y-89080951D01*
X161758407Y-89080951D02*
X161853646Y-89176189D01*
X161853646Y-89176189D02*
X161901265Y-89319046D01*
X161901265Y-89319046D02*
X161901265Y-89414284D01*
X160901265Y-88080951D02*
X160901265Y-88557141D01*
X160901265Y-88557141D02*
X161377455Y-88604760D01*
X161377455Y-88604760D02*
X161329836Y-88557141D01*
X161329836Y-88557141D02*
X161282217Y-88461903D01*
X161282217Y-88461903D02*
X161282217Y-88223808D01*
X161282217Y-88223808D02*
X161329836Y-88128570D01*
X161329836Y-88128570D02*
X161377455Y-88080951D01*
X161377455Y-88080951D02*
X161472693Y-88033332D01*
X161472693Y-88033332D02*
X161710788Y-88033332D01*
X161710788Y-88033332D02*
X161806026Y-88080951D01*
X161806026Y-88080951D02*
X161853646Y-88128570D01*
X161853646Y-88128570D02*
X161901265Y-88223808D01*
X161901265Y-88223808D02*
X161901265Y-88461903D01*
X161901265Y-88461903D02*
X161853646Y-88557141D01*
X161853646Y-88557141D02*
X161806026Y-88604760D01*
X112701265Y-94133332D02*
X113415550Y-94133332D01*
X113415550Y-94133332D02*
X113558407Y-94180951D01*
X113558407Y-94180951D02*
X113653646Y-94276189D01*
X113653646Y-94276189D02*
X113701265Y-94419046D01*
X113701265Y-94419046D02*
X113701265Y-94514284D01*
X113034598Y-93228570D02*
X113701265Y-93228570D01*
X112653646Y-93466665D02*
X113367931Y-93704760D01*
X113367931Y-93704760D02*
X113367931Y-93085713D01*
X161101265Y-67633333D02*
X161815550Y-67633333D01*
X161815550Y-67633333D02*
X161958407Y-67680952D01*
X161958407Y-67680952D02*
X162053646Y-67776190D01*
X162053646Y-67776190D02*
X162101265Y-67919047D01*
X162101265Y-67919047D02*
X162101265Y-68014285D01*
X161101265Y-67252380D02*
X161101265Y-66585714D01*
X161101265Y-66585714D02*
X162101265Y-67014285D01*
D13*
%TO.C,D1*%
X130481446Y-93302500D02*
X129011446Y-93302500D01*
X129011446Y-93302500D02*
X129011446Y-95587500D01*
X130481446Y-95587500D02*
X130481446Y-93302500D01*
%TO.C,D3*%
X159681446Y-51615000D02*
X158211446Y-51615000D01*
X158211446Y-51615000D02*
X158211446Y-53900000D01*
X159681446Y-53900000D02*
X159681446Y-51615000D01*
%TO.C,D4*%
X157081446Y-51627499D02*
X155611446Y-51627499D01*
X155611446Y-51627499D02*
X155611446Y-53912499D01*
X157081446Y-53912499D02*
X157081446Y-51627499D01*
%TO.C,D5*%
X154381446Y-51627500D02*
X152911446Y-51627500D01*
X152911446Y-51627500D02*
X152911446Y-53912500D01*
X154381446Y-53912500D02*
X154381446Y-51627500D01*
%TO.C,D6*%
X151981446Y-53925000D02*
X151981446Y-51640000D01*
X150511446Y-51640000D02*
X150511446Y-53925000D01*
X151981446Y-51640000D02*
X150511446Y-51640000D01*
%TO.C,D7*%
X159481446Y-71315000D02*
X158011446Y-71315000D01*
X158011446Y-71315000D02*
X158011446Y-73600000D01*
X159481446Y-73600000D02*
X159481446Y-71315000D01*
%TO.C,D8*%
X149381446Y-53912500D02*
X149381446Y-51627500D01*
X147911446Y-51627500D02*
X147911446Y-53912500D01*
X149381446Y-51627500D02*
X147911446Y-51627500D01*
%TO.C,J15*%
X125916446Y-58270000D02*
X127246446Y-58270000D01*
X125916446Y-59600000D02*
X125916446Y-58270000D01*
X125916446Y-60870000D02*
X125916446Y-71090000D01*
X125916446Y-60870000D02*
X128576446Y-60870000D01*
X125916446Y-71090000D02*
X128576446Y-71090000D01*
X128576446Y-60870000D02*
X128576446Y-71090000D01*
%TO.C,J2*%
X135676447Y-70029999D02*
X134346447Y-70029999D01*
X135676447Y-68699999D02*
X135676447Y-70029999D01*
X135676447Y-67429999D02*
X135676447Y-59749999D01*
X135676447Y-67429999D02*
X133016447Y-67429999D01*
X135676447Y-59749999D02*
X133016447Y-59749999D01*
X133016447Y-67429999D02*
X133016447Y-59749999D01*
%TO.C,J13*%
X137681446Y-55210000D02*
X137021446Y-55210000D01*
X137681446Y-53480000D02*
X137681446Y-55210000D01*
X137681446Y-50910000D02*
X137681446Y-51120000D01*
X135631446Y-55910000D02*
X135631446Y-55520000D01*
X135631446Y-55910000D02*
X135181446Y-55910000D01*
X130061446Y-55210000D02*
X130711446Y-55210000D01*
X130061446Y-53480000D02*
X130061446Y-55210000D01*
X130061446Y-50910000D02*
X130061446Y-51120000D01*
%TO.C,J8*%
X129491446Y-108630000D02*
X129491446Y-107300000D01*
X130821446Y-108630000D02*
X129491446Y-108630000D01*
X132091446Y-108630000D02*
X147391446Y-108630000D01*
X132091446Y-108630000D02*
X132091446Y-105970000D01*
X147391446Y-108630000D02*
X147391446Y-105970000D01*
X132091446Y-105970000D02*
X147391446Y-105970000D01*
%TO.C,J6*%
X162436446Y-82460000D02*
X163686446Y-82460000D01*
X162736446Y-82160000D02*
X167456446Y-82160000D01*
X164046446Y-82160000D02*
X164046446Y-81550000D01*
X165346446Y-82160000D02*
X165346446Y-81550000D01*
X167456446Y-82160000D02*
X167456446Y-74040000D01*
X163346446Y-81550000D02*
X166846446Y-81550000D01*
X166846446Y-81550000D02*
X166846446Y-74650000D01*
X162436446Y-81210000D02*
X162436446Y-82460000D01*
X162536446Y-80700000D02*
X162736446Y-80700000D01*
X162536446Y-80400000D02*
X162536446Y-80700000D01*
X162636446Y-80400000D02*
X162636446Y-80700000D01*
X162736446Y-80400000D02*
X162536446Y-80400000D01*
X162736446Y-79600000D02*
X163346446Y-79600000D01*
X163346446Y-79600000D02*
X163346446Y-81550000D01*
X166346446Y-79200000D02*
X166346446Y-79000000D01*
X166846446Y-79200000D02*
X166346446Y-79200000D01*
X166846446Y-79100000D02*
X166346446Y-79100000D01*
X166346446Y-79000000D02*
X166846446Y-79000000D01*
X166346446Y-77200000D02*
X166346446Y-77000000D01*
X166846446Y-77200000D02*
X166346446Y-77200000D01*
X166846446Y-77100000D02*
X166346446Y-77100000D01*
X166346446Y-77000000D02*
X166846446Y-77000000D01*
X163346446Y-76600000D02*
X162736446Y-76600000D01*
X163346446Y-74650000D02*
X163346446Y-76600000D01*
X166846446Y-74650000D02*
X163346446Y-74650000D01*
X162736446Y-74040000D02*
X162736446Y-82160000D01*
X164046446Y-74040000D02*
X164046446Y-74650000D01*
X165346446Y-74040000D02*
X165346446Y-74650000D01*
X167456446Y-74040000D02*
X162736446Y-74040000D01*
%TO.C,U1*%
X146146446Y-86205311D02*
X146464644Y-85887113D01*
X146464644Y-85887113D02*
X147376812Y-86799281D01*
X151251757Y-81100000D02*
X150933559Y-81418198D01*
X145828248Y-85887113D02*
X146146446Y-86205311D01*
X150933559Y-80781802D02*
X151251757Y-81100000D01*
X141359333Y-81418198D02*
X141041135Y-81100000D01*
X146464644Y-76312887D02*
X146146446Y-75994689D01*
X141041135Y-81100000D02*
X141359333Y-80781802D01*
X146146446Y-75994689D02*
X145828248Y-76312887D01*
%TO.C,U2*%
X134096446Y-93389999D02*
X140106446Y-93389999D01*
X136346446Y-100209999D02*
X140106446Y-100209999D01*
X140106446Y-93389999D02*
X140106446Y-94649999D01*
X140106446Y-100209999D02*
X140106446Y-98949999D01*
%TO.C,J14*%
X139836446Y-59830000D02*
X139836446Y-58500000D01*
X141166446Y-59830000D02*
X139836446Y-59830000D01*
X142436446Y-59830000D02*
X167896446Y-59830000D01*
X142436446Y-59830000D02*
X142436446Y-57170000D01*
X167896446Y-59830000D02*
X167896446Y-57170000D01*
X142436446Y-57170000D02*
X167896446Y-57170000D01*
%TO.C,J3*%
X114736446Y-80160000D02*
X115986446Y-80160000D01*
X115036446Y-79860000D02*
X119756446Y-79860000D01*
X116346446Y-79860000D02*
X116346446Y-79250000D01*
X117646446Y-79860000D02*
X117646446Y-79250000D01*
X119756446Y-79860000D02*
X119756446Y-71740000D01*
X115646446Y-79250000D02*
X119146446Y-79250000D01*
X119146446Y-79250000D02*
X119146446Y-72350000D01*
X114736446Y-78910000D02*
X114736446Y-80160000D01*
X114836446Y-78400000D02*
X115036446Y-78400000D01*
X114836446Y-78100000D02*
X114836446Y-78400000D01*
X114936446Y-78100000D02*
X114936446Y-78400000D01*
X115036446Y-78100000D02*
X114836446Y-78100000D01*
X115036446Y-77300000D02*
X115646446Y-77300000D01*
X115646446Y-77300000D02*
X115646446Y-79250000D01*
X118646446Y-76900000D02*
X118646446Y-76700000D01*
X119146446Y-76900000D02*
X118646446Y-76900000D01*
X119146446Y-76800000D02*
X118646446Y-76800000D01*
X118646446Y-76700000D02*
X119146446Y-76700000D01*
X118646446Y-74900000D02*
X118646446Y-74700000D01*
X119146446Y-74900000D02*
X118646446Y-74900000D01*
X119146446Y-74800000D02*
X118646446Y-74800000D01*
X118646446Y-74700000D02*
X119146446Y-74700000D01*
X115646446Y-74300000D02*
X115036446Y-74300000D01*
X115646446Y-72350000D02*
X115646446Y-74300000D01*
X119146446Y-72350000D02*
X115646446Y-72350000D01*
X115036446Y-71740000D02*
X115036446Y-79860000D01*
X116346446Y-71740000D02*
X116346446Y-72350000D01*
X117646446Y-71740000D02*
X117646446Y-72350000D01*
X119756446Y-71740000D02*
X115036446Y-71740000D01*
%TO.C,SW1*%
X162546446Y-94849999D02*
X161046446Y-94849999D01*
X158546446Y-96099999D02*
X158546446Y-100599999D01*
X165046446Y-100599999D02*
X165046446Y-96099999D01*
X161046446Y-101849999D02*
X162546446Y-101849999D01*
%TO.C,Y1*%
X152011446Y-104475000D02*
X158261446Y-104475000D01*
X152011446Y-109525000D02*
X158261446Y-109525000D01*
X152011446Y-104475000D02*
G75*
G03*
X152011446Y-109525000I0J-2525000D01*
G01*
X158261446Y-109525000D02*
G75*
G03*
X158261446Y-104475000I0J2525000D01*
G01*
%TO.C,U3*%
X130486446Y-92330000D02*
X130486446Y-82050000D01*
X130486446Y-82050000D02*
X125186446Y-82050000D01*
X128836446Y-92330000D02*
X130486446Y-92330000D01*
X125186446Y-92330000D02*
X126836446Y-92330000D01*
X125186446Y-82050000D02*
X125186446Y-92330000D01*
X128836446Y-92330000D02*
G75*
G03*
X126836446Y-92330000I-1000000J0D01*
G01*
%TO.C,J5*%
X162236446Y-93059999D02*
X163486446Y-93059999D01*
X162536446Y-92759999D02*
X167256446Y-92759999D01*
X163846446Y-92759999D02*
X163846446Y-92149999D01*
X165146446Y-92759999D02*
X165146446Y-92149999D01*
X167256446Y-92759999D02*
X167256446Y-84639999D01*
X163146446Y-92149999D02*
X166646446Y-92149999D01*
X166646446Y-92149999D02*
X166646446Y-85249999D01*
X162236446Y-91809999D02*
X162236446Y-93059999D01*
X162336446Y-91299999D02*
X162536446Y-91299999D01*
X162336446Y-90999999D02*
X162336446Y-91299999D01*
X162436446Y-90999999D02*
X162436446Y-91299999D01*
X162536446Y-90999999D02*
X162336446Y-90999999D01*
X162536446Y-90199999D02*
X163146446Y-90199999D01*
X163146446Y-90199999D02*
X163146446Y-92149999D01*
X166146446Y-89799999D02*
X166146446Y-89599999D01*
X166646446Y-89799999D02*
X166146446Y-89799999D01*
X166646446Y-89699999D02*
X166146446Y-89699999D01*
X166146446Y-89599999D02*
X166646446Y-89599999D01*
X166146446Y-87799999D02*
X166146446Y-87599999D01*
X166646446Y-87799999D02*
X166146446Y-87799999D01*
X166646446Y-87699999D02*
X166146446Y-87699999D01*
X166146446Y-87599999D02*
X166646446Y-87599999D01*
X163146446Y-87199999D02*
X162536446Y-87199999D01*
X163146446Y-85249999D02*
X163146446Y-87199999D01*
X166646446Y-85249999D02*
X163146446Y-85249999D01*
X162536446Y-84639999D02*
X162536446Y-92759999D01*
X163846446Y-84639999D02*
X163846446Y-85249999D01*
X165146446Y-84639999D02*
X165146446Y-85249999D01*
X167256446Y-84639999D02*
X162536446Y-84639999D01*
%TO.C,J4*%
X114036446Y-97159999D02*
X115286446Y-97159999D01*
X114336446Y-96859999D02*
X119056446Y-96859999D01*
X115646446Y-96859999D02*
X115646446Y-96249999D01*
X116946446Y-96859999D02*
X116946446Y-96249999D01*
X119056446Y-96859999D02*
X119056446Y-90739999D01*
X114946446Y-96249999D02*
X118446446Y-96249999D01*
X118446446Y-96249999D02*
X118446446Y-91349999D01*
X114036446Y-95909999D02*
X114036446Y-97159999D01*
X114136446Y-95399999D02*
X114336446Y-95399999D01*
X114136446Y-95099999D02*
X114136446Y-95399999D01*
X114236446Y-95099999D02*
X114236446Y-95399999D01*
X114336446Y-95099999D02*
X114136446Y-95099999D01*
X114336446Y-94299999D02*
X114946446Y-94299999D01*
X114946446Y-94299999D02*
X114946446Y-96249999D01*
X117946446Y-93899999D02*
X117946446Y-93699999D01*
X118446446Y-93899999D02*
X117946446Y-93899999D01*
X118446446Y-93799999D02*
X117946446Y-93799999D01*
X117946446Y-93699999D02*
X118446446Y-93699999D01*
X114946446Y-93299999D02*
X114336446Y-93299999D01*
X114946446Y-91349999D02*
X114946446Y-93299999D01*
X118446446Y-91349999D02*
X114946446Y-91349999D01*
X114336446Y-90739999D02*
X114336446Y-96859999D01*
X115646446Y-90739999D02*
X115646446Y-91349999D01*
X116946446Y-90739999D02*
X116946446Y-91349999D01*
X119056446Y-90739999D02*
X114336446Y-90739999D01*
%TO.C,J7*%
X162436446Y-71660000D02*
X163686446Y-71660000D01*
X162736446Y-71360000D02*
X167456446Y-71360000D01*
X164046446Y-71360000D02*
X164046446Y-70750000D01*
X165346446Y-71360000D02*
X165346446Y-70750000D01*
X167456446Y-71360000D02*
X167456446Y-63240000D01*
X163346446Y-70750000D02*
X166846446Y-70750000D01*
X166846446Y-70750000D02*
X166846446Y-63850000D01*
X162436446Y-70410000D02*
X162436446Y-71660000D01*
X162536446Y-69900000D02*
X162736446Y-69900000D01*
X162536446Y-69600000D02*
X162536446Y-69900000D01*
X162636446Y-69600000D02*
X162636446Y-69900000D01*
X162736446Y-69600000D02*
X162536446Y-69600000D01*
X162736446Y-68800000D02*
X163346446Y-68800000D01*
X163346446Y-68800000D02*
X163346446Y-70750000D01*
X166346446Y-68400000D02*
X166346446Y-68200000D01*
X166846446Y-68400000D02*
X166346446Y-68400000D01*
X166846446Y-68300000D02*
X166346446Y-68300000D01*
X166346446Y-68200000D02*
X166846446Y-68200000D01*
X166346446Y-66400000D02*
X166346446Y-66200000D01*
X166846446Y-66400000D02*
X166346446Y-66400000D01*
X166846446Y-66300000D02*
X166346446Y-66300000D01*
X166346446Y-66200000D02*
X166846446Y-66200000D01*
X163346446Y-65800000D02*
X162736446Y-65800000D01*
X163346446Y-63850000D02*
X163346446Y-65800000D01*
X166846446Y-63850000D02*
X163346446Y-63850000D01*
X162736446Y-63240000D02*
X162736446Y-71360000D01*
X164046446Y-63240000D02*
X164046446Y-63850000D01*
X165346446Y-63240000D02*
X165346446Y-63850000D01*
X167456446Y-63240000D02*
X162736446Y-63240000D01*
%TD*%
M02*
